<mxfile host="app.diagrams.net" modified="2021-06-27T20:56:26.778Z" agent="5.0 (Macintosh; Intel Mac OS X 10_15_7) AppleWebKit/537.36 (KHTML, like Gecko) Chrome/91.0.4472.114 Safari/537.36" etag="lMLV_Z-29CGNRtNGOYJl" version="14.8.1" type="github">
  <diagram id="6a731a19-8d31-9384-78a2-239565b7b9f0" name="Page-1">
    <mxGraphModel dx="3247" dy="1108" grid="1" gridSize="10" guides="1" tooltips="1" connect="1" arrows="1" fold="1" page="1" pageScale="1" pageWidth="827" pageHeight="1169" background="none" math="0" shadow="0">
      <root>
        <mxCell id="0" />
        <mxCell id="1" parent="0" />
        <mxCell id="ep7B5gcZ21LLbHEQqian-2267" value="" style="group" vertex="1" connectable="0" parent="1">
          <mxGeometry x="-510" y="220" width="760" height="370" as="geometry" />
        </mxCell>
        <mxCell id="2094" value="" style="rounded=1;whiteSpace=wrap;html=1;strokeColor=none;fillColor=#BAC8D3;fontSize=24;fontColor=#23445D;align=center;opacity=60;" parent="ep7B5gcZ21LLbHEQqian-2267" vertex="1">
          <mxGeometry x="30" width="710" height="360" as="geometry" />
        </mxCell>
        <mxCell id="ep7B5gcZ21LLbHEQqian-2260" value="" style="shape=image;verticalLabelPosition=bottom;labelBackgroundColor=#ffffff;verticalAlign=top;aspect=fixed;imageAspect=0;image=data:image/png,iVBORw0KGgoAAAANSUhEUgAABLAAAASwCAYAAADrIbPPAAAABGdBTUEAALGPC/xhBQAAACBjSFJNAAB6JgAAgIQAAPoAAACA6AAAdTAAAOpgAAA6mAAAF3CculE8AAAABmJLR0QA/wD/AP+gvaeTAAAAB3RJTUUH4QwXERY1Tj1YEwAAgABJREFUeNrs3XecZQdB9//P2d00AgFCDfJI7yjSBAQV6SKKKARRRFCUoqKCGEqye3ZDSeRHHok+KiBYQIGgiAKCSJVmoZcgIDVAqAES0rNzfn/MKgFSts3MLe/36zWvUHfufu7MnXu/c865BQAAAAAAAAAAAAAAAAAAAAAAAAAAAAAAAAAAAAAAAAAAAAAAAAAAAAAAAAAAAAAAAAAAAAAAAAAAAAAAAAAAAAAAAAAAAAAAAAAAAAAAAAAAAAAAAAAAAAAAAAAAAAAAAAAAAAAAAAAAAAAAAAAAAAAAAAAAAAAAAAAAAAAAAAAAAAAAAAAAAAAAAAAAAAAAAAAAAAAAAAAAAAAAAAAAAAAAAAAAAAAAAAAAAAAAAAAAAAAAAAAAAAAAAAAAAAAAAAAAAAAAAAAAAAAAAAAAAAAAAAAAAAAAAAAAAAAAAAAAAAAAAAAAAAAAAAAAAAAAAAAAAAAAAAAAAAAAAAAAAAAAAAAAAAAAAAAAAAAAAAAAAAAAAAAAAAAAAAAAAAAAAAAAAAAAAAAAAAAAAAAAAAAAAAAAAAAAAAAAAAAAAAAAAAAAAAAAAAAAAAAAAAAAAAAAAAAAAAAAAAAAAAAAAAAAAAAAAAAAAAAAAAAAAAAAAAAAAAAAAAAAAAAAAAAAAAAAAAAAAAAAAAAAAAAAAAAAAAAAAAAAAAAAAAAAAAAAAAAAAAAAAAAAAAAAAAAAAAAAAAAAAAAAAAAAAAAAAAAAAAAAAAAAAAAAAAAAAAAAAAAAAAAAAAAAAAAAAAAAAAAAAAAAAAAAAAAAAAAAAAAAAAAAAAAAAAAAAAAAAAAAAAAAAAAAAAAAAAAAAAAAAAAAAAAAAAAAAAAAAAAAAAAAAAAAAAAAAAAAAAAAAAAAAAAAAAAAAAAAAAAAAAAAAAAAAAAAAAAAAAAAAAAAAAAAAAAAAAAAAAAAAAAAAAAAAAAAAAAAAAAAAAAAAAAAAAAAAAAAAAAAAAAAAAAAAAAAAAAAAAAAAAAAAAAAAAAAAAAAAAAAAAAAAAAAAAAAAAAAAAAAAAAAAAAAAAAAAAAAAAAAAAAAAAAAAAAAAAAAAAAAAMBiOW66fON0sBAAAPvHIAEAsFROnA7qtK5UHf6/H8Oufz91eHX56uDqsrs+Dq4Oqw6tDqqucKE/7bLVAbv5mc+oLtj1r6fq67v+9derM3d9nFF943///dDp1enVadWXmvpq9ZUO76s9ZjjXnQkALAsDFgCwGMbpsDb3Pa10jdr1MXWN6nuqI6prVldqdYhaBGdUX9718dXq1IZOqT7b1Ofa1Ckd2Gd7wvANXxwAwLwzYAEA82GcDmxz12ql61bXbdr1z299HCbSRTqz+kz1uerT1X839PGG/ruVPt44nC4RADDrDFgAwGwZp8Pb1M2aumlTN61uWt2g1SOoNgu0332p+u/q462OWx9r6sMd3oedpggAzAoDFgCwMcbpstUPNPR9Td28unF1s+pq4syEC1odtj5YfWjXPz9Y/XfjcIE8AMB6MmABAGvv6dMVO69bVbdq6pbVrVo9qmqTOHPnvOrk6v0NvbOpd1XvbRzOkgYAWCsGLABg/xqng9vUrVvpDtUdWh2rri3MQtvZ6qj1rl0f7+yw3tdjh7OlAQD2BwMWALBvxukaDd2hqTtWt69uXR0ozNK7oNVTD9+26+OtjcNnZAEA9oYBCwDYM+N07eou1Y9VP1xdSxR20ynVW6u3t6m3dOM+2JHDTlkAgEtjwAIALtlTpyO6oLs09WOtDlfXEYX95PTq7Q39a0Ov68a926AFAFwUAxYA8O2eMR3aWd2lqXu1OljdWBTWydeqN1avb3Ov75jhI5IAAGXAAgCqjp1u0Er3bure1Y9UB4vCDDilen1Dr2vq9Y3DFyQBgOVkwAKAZXTidFBf6867Bqt7V9cXhRk3Ve+uXtWmXtlK72ocVmQBgOVgwAKAZXHCdEhndLemHlD9VHV5UZhjX6le3dArOqjX9oThG5IAwOIyYAHAIhunw1sdq+5X3SOnBrKYzq3e3NAr29w/dvTwaUkAYLEYsABg0TxtulLn9YDqZ6s7V1tEYYlM1Tsbemmb+tuOGT4pCQDMPwMWACyCcTq4obs39YvVfasDRYGqTq5e2uZe5F0NAWB+GbAAYF6N05bqbtXPt3qK4GVFgUv07uql1d80Dp+RAwDmhwELAObNOP1A9bDqgdXVBIE9tlK9ufqrDunvOmo4QxIAmG0GLACYB8dNl++cHlg9pLqjILDfnFO9oqEXNPXqxuECSQBg9hiwAGBmTUNjP1r9SqsXZD9EE1hTp1Z/0+ae1zHDh+UAgNlhwAKAWfPU6Wqd36+0eprg9QWBDfGvDT2nK/a3PWY4Vw4A2FgGLACYFTumW7fSr1W/mKOtYFZ8vTqpTf1RW4cPyAEAG8OABQAbaZwOrn6u+vXqNoLAzJqqNzf0nKb+rnE4TxIAWD8GLADYCE+ZrtUFParV61tdWRCYK6c29CdNPbtx+JIcALD2DFgAsJ7G6Qeqx1YPqrYIAnPtvOolbeqZbR3eJwcArB0DFgCsh3G6U3VUdR8xYCG9raFndZNe1pHDTjkAYP8yYAHAWjlxOqjT+oVWj7i6mSCwFD7e0DOb+vPG4Rw5AGD/MGABwP52/HS5zunRTf1WdYQgsJS+UP3f6k8bh9PlAIB9Y8ACgP3lW8PV71WHCwJUZ1R/3gEd15OHU+UAgL1jwAKAfTVOhzX0qKaOqq4oCHARzq1OqnY0Dv8tBwDsGQMWAOytcbpy9TvVb1SHCQLshvOr57elp3b0cIocALB7DFgAsKeePl2xc/u9VoerywoC7IVzq+d0QE93aiEAXDoDFgDsrnG6TEO/6VRBYD86r/qLDmg0ZAHAxTNgAcClefZ0QKf2sGrMuwoCa+PM6nkd0NN68vBFOQDg2xmwAODijNOmhn62qadX1xMEWAffrJ7ZYR3fY4ez5QCAVQYsALgo26cfb+oZ1c3EADbAKdXR1QsbhxU5AFh2BiwAuLBxunH1jOo+YgAz4OTqqMbhlVIAsMwMWABQ9bTpSp3X1urR1RZBgBnzuurxjcN7pQBgGRmwAFhuJ04H9bUe09STq8sLAsywler5HdiTetLwZTkAWCYGLACW1/bpfk39f9V1xQDmyNca2tbUnzQOF8gBwDIwYAGwfI6drtfOTqzuLQYwx/6r+q3G4bVSALDoDFgALI8TpkM6vaOqo6qDBQEWxCvb0m909PBpKQBYVAYsAJbD9um+Tf1BdW0xgAV0ZkNPbeqZjcN5cgCwaAxYACy2cbpudWL1E2IAS+BjDT2ibcMbpQBgkRiwAFhM47SloV9v6qnVoYIAS2SqXtiB/U5PGr4qBwCLwIAFwOIZp++v/qy6rRjAEvtCdVTj8FdSADDvDFgALI5xOrh6QvXE6kBBAKp6VVv6dRd5B2CeGbAAWAzjdOfqOdUNxAD4Lt9s6Pfa1p/WMMkBwLwxYAEw38bpsOoZ1a/6uQZwqV7fln7F0VgAzBtP9AGYXzumO7bSX1TXFwNgt53V0JPa1omOxgJgXhiwAJg/q9e6GqvHV5sEAdgrr21LD+/o4RQpAJh1BiwA5ss4/WD1l9WNxQDYZ6dXj2/suY7GAmCWGbAAmA/jtKWhxzV1bHWAIAD71T9UD28cviIFALPIgAXA7BunG1d/U91SDIA187mGfqltw+ulAGDWGLAAmG3j9JDqj6tDxQBYc1P1h9XjG4fz5ABgVhiwAJhN43RY9SfVz4sBsO7eVf184/BRKQCYBd65CYDZs2O6bfXujFcAG+XW1XvbPv2WFADMAkdgATA7xmlT9YRqe7VFEICZ8KLq1xqHb0oBwEYxYAEwG546Xa3z+5vqLmIAzJz/alP3b+vwISkA2AhOIQRg443TnTq/d2e8AphVN26l/2z79CtSALARHIEFwAaahrb3mKaeUR2gB8BceEH1yMbhLCkAWC8GLAA2xvHT5Tq751UPEANg7rynzT2gY4aPSwHAejBgAbD+dky3aKWXVjcQA2Bufb2hB7dteJUUAKw118ACYH1tn36pld6R8Qpg3l2hqX9s+/TEmvxiHIA15QcNAOvjpGlzJ/fU6igxABbOSzu0h/X44UwpAFgLBiwA1t44HV69uLq7GAAL6/1t7qc7ZvikFADsbwYsANbWON2w+ofqxmIALLyvNvTAtg2vlwKA/ck1sABYO9unn6z+M+MVwLK4UlOvbvv061IAsD85AguAtbF9+q2mTsgvSwCW1XOqX28cLpACgH1lwAJg/xqnA6vnVQ8WA2DpvaJDe5CLuwOwrwxYAOw/T5+u2Lm9rLqzGADs8v62dJ+OHk6RAoC9ZcACYP84drpOO3tVdRMxAPgOn29T92nr8B4pANgbrksCwL7bMd2unb0j4xUAF+0arfSvbZ9+QgoA9oYBC4B9s3362VZ6Y3U1MQC4BJdt6uVtn35FCgD2lAELgL23fXpcUydVh4gBwG7Y0tRz2z49UQoA9oRrYAGwF6ahsadXR2kBwF76w+q3G4cVKQC4NAYsAPbMSdPmTu5Pq4eLAcA++uuO6GE9YjhfCgAuiQELgN134nRQp/XX1c+KAcB+8voO6X4dNZwhBQAXx4AFwO4Zp8tWf1/dTQwA9rP/rO7dOHxFCgAuigELgEs3TlevXlPdQgwA1siHqrs1Dl+QAoDvZMAC4JKN07Wr11XXEwOANfaRtnTXjh4+JwUAF2bAAuDiHTtdp529vrqOGACsk09Xd2kcPiEFAP9jkwQAXKRjpxu1s7dkvAJgfV2remPjdH0pAPgfBiwAvtux003a2Rur7xEDgA3wvdVb2jHdTAoAyoAFwHfaMd2ynf1rdYQYAGygq7fSG9oxfZ8UALgGFgDfMk63r15dXUEMAGbEl1u9JtYHpQBYXgYsAFaN0w9Vr6kuJwYAM+aL1Z0bh/+SAmA5GbAAWD1tcKXXV1cUA4AZZcQCWGKugQWw7HZMt2il12W8AmC2Xa16bcdO3h0XYAk5Agtgme2Yvq+V3lBdWQwA5sRn2tKPdPTwaSkAlocBC2BZHTvdqJ29qbq6GADMmY+1ejrh56UAWA5OIQRYRuN0w3b2xoxXAMynG1T/0tOmK0kBsBwcgQWwbMbp2tVbqmuKAcCc+/fqbo3DN6UAWGyOwAJYJk+brlK9JuMVAIvhdtU/dOJ0kBQAi82ABbAsxumwzus11Y3EAGCB3KXTelEnTZulAFhcBiyAZXDCdEj1iupWYgCwgO7Xyf2hDACLy4AFsOhOmjZ3ei+sfkQMABbYo9o+bZMBYDEZsAAW2jR0cs+rfkYLABb/x15j26dHCQGweLwLIcAiG6dnVo8VAoAlsrOh+7VteIUUAIvDgAWwqMbpkdWfCAHAEjqr+rHG4T+kAFgMBiyARbR9+omm/qHyjkwALKtTq9s3Dp+RAmD+GbAAFs043aZ6U3WoGAAsuZOrOzYOX5cCYL65iDvAIjl2uk71yoxXAFB10+rFjdMWKQDmmwELYFEcN12+nf1jdTUxAOB/3bP6UxkA5psBC2ARnDgd1Dn9Y3VzMQDgu/xK26fHyQAwvwxYAIvgtJ5T/YgQAHAxpo5v+3RPIQDmkwELYN5tnx5fPUQIALhEm5s6qWOnm0gBMH+8CyHAPNs+3bOpV1WbxQCA3fKRDu52PWH4hhQA88MRWADz6tjpRk29OOMVAOyJG3VOL+mkyc9PgDliwAKYR0+frtjOXlFdQQwA2GP37OS2ywAwP5xCCDBvxmlL9erqbmIAwF6bGnpg24aXSgEw+xyBBTB/Tsh4BQD7amjq+Y3TTaUAmIcHbQDmx/bpQU39jRAAsN98tEO6TUcNZ0gBMLscgQUwL8bp5k09VwgA2K9u2Nk9RwaA2eYILIB5ME6HVf9Z3VAMmCnfqFaqr1fTxfxvLlMd1Oo7hh4mGcysRzUOfyoDwGwyYAHMvGlo7G+rn9EC1sT51Zeqz1VfrE7d9fGV6usNfa2pr7W5r7Wzr3VQ53a9Tu/IYedef8ZxukJ1WJu6fHVYU4c1dfnqqtVVqiN2/eurVteorl4d4K6CNXVum7pjW4d3SQEwewxYALNu+/T4pn5fCNgnX64+XH2i+mRDn2zqk23pkx3d52uYZvrWnzRt7uSOqK7d0LWq723qWtUNqhtV3+Muhv3ikx3UrXvi8DUpAGaLAQtglu2YfrSVXldtEQN2y1eq91Tvqz7Spj7cSh9uHE5b6L/18dPlOrcbNnXDpm5afV/1/dV1fEnAHvvHxn565odtgCVjwAKYVeN09V0vxK8uBlykL1b/3tA7q/c29Z7G4bOyXMhx0+U7r+9vpVtUP1DdrrpJq9fjAi7ebzUOJ8oAMDsMWACzaJw2Va+p7i4GVLWzem/1job+ral3NA6fkGUvHD9drnO6TXX7pm7X6qhlKIdvd051u8bh/VIAzAYDFsAsGqcnVE8XgiX3iep1Db2uqdcv/GmAG/uYc93qTtUdq3tW1xIFOrm6beNwlhQAG8+ABTB7LyRvX/1r3nGM5fPF6jUNvXrXYPUVSTbIsdMNWunOTd2zumt1BVFYUn/SODxaBoCNZ8ACmCXHTZfvnN6TCy+zHFaq/2jolQ29pq2920WTZ9A4balu3+qRWfesbl1tEoYlesX0020b/kEIgI1+OAZgll4ovqQ6UggW2AXVm6uXVS9vHD4vydw9Tl21oZ9s6qeru1UHi8KC+0p1C49XABvLgAUwOy8KH149VwgW0M7qjdWLOrB/6EnDVyVZEM+YDu2s7tXUfav7VFcUhQX1+uoejcOKFAAbw4AFMAvG6cbVu6rLiMECeWf11x3QS3rycKocC/84dmB1j+rnqvtWlxWFBfNbjcOJMgBsDAMWwMa/6NtSvb26rRgsgC9Uf9nm/rxjho/IsbSPa5dp9YisB1X3ymmGLIaz2twPdMzwMSkA1p8BC2DjX+iN1TYhmGMr1Rsaek5X7+U9YjhfEv7X6ptTPLB6ZHVLQZhz7+im/XBHDjulAFhfBiyAjbRjunUrvaM6QAzm0KnVc6rnuLgxu2WcfrD61VZPM3SKIfP6Cup32zY8UwiA9X74BWBjnDgd1Gm9s7q5GMyZd7U6XP1V43COHOyxE6ZDOqP7NPVrrb6TIcyTc9vUrds6fEgKgPVjwALYKON0QvU7QjAnzq9eUj2zcXivHOzHx8Lvrx5V/VJ1iCDMiX/vpt3RqYQA68eABbARdkw/3EpvqjaJwYz7ZvX8Voerz8jBmnnadJXO69er36iuJAhz8ErqSW0bni4EwHo97AKwvo6fLtfZfaC6lhjMsC81dEIH9ac9YfiGHKybZ0yHdla/3NRjq2sLwgw7t83dwjuuAqwPAxbAehunP6p+XQhm1JerP65OaBxOl4MNfKzc1NBPNPXk6naCMKP+tbE71zBJAbC2DFgA6/uC7E7Vm3PqILPn89XxHdZze+xwthzM2GPn3aqxuqMYzKBfaRyeLwPA2jJgAayX1XcdfHd1UzGYIac19PtdrhMNV8y81SHr96tbisFMPY4e0E178vBFKQDWjiMAANbv6e22jFfMjrOq46vrtW043njFXBiH1zV264aOrD4mCDPi8M7vBBkA1pYjsADW5UXX9APVf1ZbxGCD7aye1wGNPXk4VQ7m1rOnA/pCD2/qmOoIQZiBV1b3atvwz0IArNXDLABra5y2VP9e3UoMNtjrq8c2Du+XggV6jL1MQ7/Z1FHVFQVhA32yunnjcJYUAPufUwgB1trQ4zJesbE+2tBPNQ53M16xcMbhrLYNx3dgN6qeX3k3ODbKdapjZABYq5dVAKydp0zX6oI+VB0qBhvgzGpHR/R/e8RwvhwshR3THVrp/+VC72yM89rczTtmcI02gP3MEVgAa+mC/iDjFRvjlW3pZo3D7xuvWCpbh3dUt6l+qfqKIKyzA9vZH8kAsP85AgtgrYzTvatXCcE6+0RDj2nb4GsPxumqrb7b5i953ss6v8r6qbYNrxACYH8+tAKw/50wHdLpfaC6nhisk53Vs6pjXEAYvsOO6Y6t9MfV94vBOvl4h3ezHjOcKwXA/uEUQoC1cHpPyHjF+vlgm7pj4/A44xVchK3D2zqi2zT0hMoptayH63Vaj5MBYP9xBBbA/jZO168+UB0sBmvsvIae1tTTG4fz5IDdeoz+weovqxuLwRo7s7px4/BZKQD2nSOwAPa/P8x4xdr7UJu6fduG7cYr2APj8B8d1q2qE6oVQVhDh1bPkAFg/3AEFsB+fWE0/VT1D0KwhqbqudXvOF0Q9tGO6Q6t9JfVDcRgzWzqTm0d3iYEwL4xYAHsL8+eDujUPljdUAzWyCnVQxuHN0gB+8k4XbbVo2Qe4bkxa+StjcMPywCwb5xCCLC/fKHfyHjF2vmH6geMV7CfjcM3G4dHVT9VnSYIa+BOjdNPywCwb/yWCWC/vACaDq8+Wl1JDPazcxp6Qts6sYZJDljTx/LvrV5S3V4M9rOPdkQ37xGDd8EE2EuOwALYP3ZkvGL/+0h1h7YNzzJewToYh890eHeuThSD/eyGfaGHywCw9xyBBbDPL3imm1bvq7aIwX704g7t4T1+OFMK2ADbpwc29dzqcmKwn3yxQ7pBRw1nSAGw5xyBBbDvnpnxiv3ngoae0Dg8yHgFG2jb8JLqNtX7xWA/uVpn93gZAPaOI7AA9sX26Z5NvUYI9pNT29QD2zq8RQqYEeN0meqPq18Sg/3gzOr6jcMXpADYM47AAthr09DU03RgP3lHB3Rr4xXMmHE4q3F4aEO/V60Iwj46tHqCDAB7zhFYAHv9omb6uepFQrAfvLjD+uUeO5wtBcyw7dOPN/WSXBeLfXNOdYPG4bNSAOw+R2AB7I1x2lJtE4J9NFXbG4cHGa9gDmwbXl3dqTpFDPbBwTkKC2CPGbAA9s4vVzeWgX1wRkM/2TiMUsAcGYf3t6U7VO8Rg33wqz1lupYMALvPgAWwxy9epoOrY4RgH5xa3bltw6ukgDl09PC5Du2Hq5eLwV46sAt6sgwAu8+ABbDnHlNdUwb20snV7RuHd0sBc+zxw5nVz1YniMFeemjjdF0ZAHaPi7gD7IlxukL18epwMdgLb+6g7tcTh69JAQtk+3RUU8cJwV74i8bhYTIAXDpHYAHsmd/OeMXe+dsO757GK1hA24bjq1+vVsRgDz3YUVgAu8eABbC7jpsu3+rpg7Cn/qp6UI8ZzpUCFtQ4/HH1i9UFYrAHtlS/KwPApTNgAeyuc/vt6opCsIdObOyhjYMXtbDoxuFvGvqZ6hwx2AO/3FOnI2QAuGQGLIDdcdx0+aZ+Swj2wNTQkxqH36phkgOWxLbhFQ39dHWWGOymgzq/35YB4JIZsAB2x7k9Jkdfsfumhn6nbcPTpYAltG345+qe1TfEYDc9ctcbxQBwMQxYAJdmnA5r8ptRdttUPaZtw7OkgGX+2TG8tU3dvTpdDHbDYQ39ugwAF8+ABXDpfiPvPMjuWR2vxuGPpADaOvxnm7pX9U0x2I2fII9pnC4jBMBFM2ABXJJxumz1WCHYrZce9UjjFfBttg7vaOj+lXch5dJctfplGQAumgEL4JIM/Wp1JSHYja+VxzcOzxEC+C7bhn9u6IGVdyPl0jyuk6bNMgB8NwMWwMV59nSAdx5ktww9qW3DM4UALta24R+qh1UrYnAJrt2Hu48MAN/NgAVwcU7tgdW1hOBSHOvdBoHdMg4vbOjhrZ5yDBfNL88ALpIBC+Cinz0O1e/qwKX4g8ZhqwzAbts2/HlDjxeCS/BjjdP3ywDw7QxYABdl7J7VLYTgEry4epwMwB5bPeXYacdcksdIAPDtDFgAF81vx7kkb+zwHto4uJYNsLd+r/p7GbgYD+6p09VkAPgWAxbAd9ox3aL6MSG4GO/v4O7XY4ZzpQD22jisdFi/UP27GFyEg7qgh8sA8C0GLIDvtNJR1SAEF+GTHdA9esLwDSmAffbY4ezqZ6pTxOC7TD2qZ08HCAGwyoAFcGFPnY6o7i8EF+H0NnXfnjx8UQpgvxmHz7epH68M43yn7+nU7isDwCoDFsCFnd+jKr/t5Lu/Mobu39bhA1IA+93W4UMNPai6QAy+w69KALDKKTIA/2OcDqw+XV1dDL7jp+Wj2zb8iRDAGv8cekz1LCG4kKm6YePw31IAy84RWAD/Y+gBGa/4bs80XgHrYhxOrP5MCL7t2Un9igwABiyAb5n6TRH4Dq/rph0lA7COfrN6twxcyMNczB3AgAWwapxuVd1OCC7kU9WDOnLYKQWwfj+PhnPa0s9Up4nBLlfrC/2UDMCyM2ABrPptCbiQb7apn2ocviIFsO6OHj7d0ENbvf4R1ORi7gAu4g4wTleuTqkOFoNqauiBbRteKgWwwT+f/r/qcUJQrVQ3aBw+IQWwrByBBTD0ixmv+JZnGa+AmXBET6zeJgS7Xrc9VAZg2R8IAZbb5N19+F//US7aDsyIRwznV/evviAG1S/W5AwaYGkZsIDltmO6Q3UzIahOa0tHNg7nSQHMjHH4QkMPafUUMpbbtRu7owzAsjJgActtpYeLQKsXSv6Vjh4+LQUwc7YN/1L9kRBUD5YAWFYGLGB5HT9drjpSCKpnNQ4vlwGYYU+sPiLD0juyE6eDZACWkQELWF5n96DqskIsvQ91WE+SAZhp43BWm/qF6nwxltoVO62fkAFYRgYsYJm5eDvnVj/fY4ezpQBm3tbhXdUzhFh6vygBsIwMWMByGqebVz8oxNL7vcbh/TIAc2R79T4Zltq9e9p0JRmAZWPAApaVi6Dy2sb+UAZgrozDeW3qlyrvmLq8Duz87i8DsGwMWMASPvmfNlU/L8RSO7361RomKYC5s3V4X6tHYrGspn5WBGDZGLCAZfQj1f+RYYkNPbZx+IwQwNy6acdX7xRiaf1Y43RlGYBlYsAClpHTB5fbv7St58sAzLUjh51t6pHVTjGW0pbqp2UAlokBC1gu43RwOex+iX2j+mWnDgILYfVdCf9MiKXl+QywVAxYwLK5T3UFGZbWExqHz8oALIyDemL1ZSGW0l0bp8NlAJaFAQtYNr8gwdL6j+o5MgAL5YnD1xp6ohBL6YDqp2QAloUBC1geT5+uWP24EEvp/Db18MZhRQpg4axe1+8dQiwlpxECS8OABSyP8/qp6iAhltIJbR0+IAOwmIapenQu6L6M7t44HSYDsAwMWMDymPyWckl9qtohA7DQxuG91R8LsXQOqu4hA7AMDFjAcjh+ulx1dyGW0NDvNg5nCQEsvIM7pvqKEEvnPhIAy8CABSyHc7pPdbAQS+cNbRv+TgZgKTxh+EZDTxNi6dy7cfK6Dlh4HuiA5eD0wWV0QZv6bRmAJft59/+qTwqxVK5S/aAMwKIzYAGLb5wuU91LiKXzRy7cDizfz7zhvIaOFWLp/IQEwKIzYAGLb+ie1aFCLJXTOsiF24EldZP+qjpZiKXiOljAwjNgAYtv6v4iLJmhp/TE4WtCAEvpyGFnQ0cLsVRu0ThdUwZgkRmwgMV20rQ5pw8um091RW8lDyy5bcPfV28XYmkMDU4jBBabAQtYbCd3x+pwIZbKk3vMcK4MgGf6PUGEJTIZsIBF/7EGsNjuLcFSeU/1YhkAqq3DW6p/FmJp3KUTp4NkABaVAQtYdC5qulyObhxWZAD4X0+TYGkc2te7vQzAojJgAYtrnL63upkQS+M/G3u1DAAX/lk4/GuuhbU8VrqrCMCiMmABi8zRV8vlSTVMMgB8h6H/T4SlcTcJgEVlwAIWmetfLY+3NQ6vkwHgImzr5dXJQiyF23bcdHkZgEVkwAIW0wnTIdWPCbE0jpYA4OIMU0Mn6LAUtnROPyoDsIgMWMBiOr0frS4jxFJ4W+PwJhkALsEVe2H1eSGWgtMIgYVkwAIWlYuYLo/jJAC4FI8Zzq2eJYTnQADzyoAFePLGPPtAY6+SAWC3/Gn1dRkW3k17yvQ9MgCLxoAFLJ6nTVeqbiHEEhg63jsPAuymcTi9+nMhlsDO7iICsGgMWMDiOb87e3xbCp9s6iUyAOyR51SG/0U39cMiAIvGCzxgEZ+0+a3jMhj6w8bhAiEA9sA4/Ff1ViEW3p0kABaNAQtYRK5/tfjO6KCeLwPAXhh6rggL78Y9bbqKDMAiMWABi2WcrlHdSIiF9+c9YfiGDAB7Yeql1WlCLLSh87u9DMAiMWABi/Z0zdFXi2+lzf2RDAB7aRzOqV4oxIKbuqMIwCIxYAGL9mTNRUsX3z91zPAxGQD2idMIF5/rYAELxYAFeLLGfBn6UxEA9tE4fLB6hxAL7TaN08EyAIvCgAUsjqdPV8z1rxbdZ7tJr5EBYD9wMfdFd1CburUMwKIwYAGL47x+yOPawntuRw47ZQDYDy7TSdWZQiywyZHpwOLwQg9YpCdpLla62C5oS8+TAWA/efxwZvUKIRb6udEdRAAWhQELWCQGrMX26o4ePicDwH71IgkW2m0kABaFAQtYDM+eDvAkbeH9hQQA+91rqtNkWFjf01OnI2QAFoEBC1gMp3br6jJCLKzTOrxXyQCwn43DedXfC7HAznchd2AxGLCARXF7CRbaS3rMcK4MAGvixRIsNEeoAwvBgAV4csY8+CsJANbITXtj9WUhFpYjsICFYMACFsWtJFhYH2sc/k0GgDVy5LAz70a4yPySD1gIBixg/o3TZasbCbGwnNoCsNaGXi7Cwrp6T5m+RwZg3hmwgEV4JLulx7OFvn9fKgLAGrtir63OEGJB7XQUFrAILwsA5t1KtxRhYX20rcMHZABYY6tvlPFaIRbU5DpYwPwzYAGLwJOyxXWSBADr5uUSLKzvlwCYdwYsYBG4gPvi/pT6WxEA1s0/VTtlWEg3lwCY/5cGAPNsnC5T3ViIhfTptg7vkwFgvX6mDqdV/yHEQrpOz5gOlQGYZwYsYN7dvNoiw0L6RwkA1t1rJFjQ131ndhMZgPl+IAOYZ0M3E2FhGbAA1p8By3MmgJlkwALm2+TJ2II6vfpXGQDW3TurL8ngORPArDFgAfPuphIspH9uHM6TAWCdjcNK9TohFpILuQNzzYAFzDsD1mJyCgvAxvkXCRaSAQuYawYsYH6N02Wr7xViIb1BAoANsrk3i7CQrtk4XUEGYF4ZsIB5fgS7WTUIsXA+2jh8SgaADXLM8Mnq00IsnKG6sQzA/L78A5hXKy5GuqCcugKw8d4kwUK6vgTAvDJgAfPM9a8W0dDrRQDY8MdipxEuJgMWMLcMWMA8u6EEC2elA/3WH2AGXiV4LF5M15MAmN8fTQDz67oSLJwP9sThazIAbLDV62B9VoiF4wgsYG4ZsIA5NQ3VdXRYOG+RAGBm/LsEC8cRWMDcMmAB8+kpXaO6jBAL560SAMyIwYC1gK7SOF1BBmAeGbCA+bTi9MGFtKW3iQAwIyYD1oK+AnQUFjCnD18A82jFk68F9KmOHk6RAWBGHNq7qguEWDCT62AB88mABcwrR2Atnv+QAGCGPH44s/qAEAtm8ktAYD4ZsIB55cnXohl6pwgAM8dj8+L5XgmAeWTAAuaVI7C8SAJgrQ29T4SFc00JgHlkwALmld8eLpapqffIADBzj84GrMVjwALmkgELmD8nTZurqwmxUD7aOHxdBoAZc0jvqyYhFooBC5hLBixg/ny0q1ebhVgo75UAYAYdNZxRfVKIhXJ4J0yHyADMGwMWMH9W/OZwAX1QAoCZ9V4JFsrQmZ5LAfPHgAXMn5W+R4SFeyr9IREAZpbH6EWz03MpYP4YsIB55LeGi/fTyBFYALNq6CMieC4FsPEvGQDmj98aLpazu1GfkAFgRk0GrAVkwALmjgELmEfXkGCh/FdHDjtlAJhRh/SRvBPhojlCAmDeGLCAeeQIrMXyUQkAZtjqOxGeKsRCubIEwLwxYAHz6KoSLJT/lgBg5jmNcLEYsIC5Y8AC5tGVJFggQx8XAWDmeaxeLAYsYO4YsIB5dLgEC2RwBBbAHPi0BAvFgAXMHQMWMF/G6bDqQCEWyGYDFsAc+JQEC+UqEgDzxoAFzBtHXy2Wc3pyX5ABYOZ9SoKFckjPmA6VAZgnBixg3jjkfbF8tgZvzQ4w67Y4hXDhnOs5FTBfDFjAvHEE1mL5nAQAc+CGfb46X4gFsmLAAuaLAQuYN55sLZbPSgAwB44cdpZTvhfKind1BuaLAQuYN47AWiyOwAKYH1+UYIEMXU4EYJ4YsABPttjI+9MRWADzw4C1WC4rATBPDFjAfJk82Vqw+9OLIYD54TF7sXhOBcwVAxbgyRYb6SsSAMwNA5bnVAAbxoAFzJtDJVion0JfFQFgTgwGrIUyuSwDMG8vHQDmi98WLpKVviwCwJyY+poIC8UvBYG5YsAC5o0Ba5Ec7ggsgLkx9A0RFoojsIC5YsAC5o3fFi6OM3vMcK4MAHNiMmAtGAMWMFcMWMC8cQTW4vimBABz9crBgOU5FcAG/hgCmC+OwFocBiyAebJiwFowB0oAzBMDFuDJFhvFgAUwXz+BDViL5QAJgHliwALmzRYJFoYBC2CeHNA5InhOBbBRDFiAJ1tsFAMWwDy5lgFrwTgCC5grBixg3myWYGF4IQQwT44cdlYXCLEwDFjAXDFgAfPGEViL43wJAObOeRJ4TgWwEQxYgCdbbBS/xQeYP46eXRyOwALmigELmDdOIVwcOyUAmDuOwFocBixgrhiwgHnjCKzFYcACAM+pADxoAQvpM/mN4aI4VQIAAGB3GLCA+TIONxYBADbMIMHCcCQ0MFecQggAAOwuA9biMGABc8WABQAAsHwMWMBcMWABAAC7y7sBLw4DFjBXDFgAAMDuuowEC8OABcwVAxYAALC7DpJgYRiwgLliwAIAAC7didNBXj8sFAMWMFf8AAIAAC7daR0iwkIxYAFzxYAFAABcugMMWAvmPAmAeWLAAgAALt1Kh4mwUL4pATBPDFgAAMCl29kVRVgoZ0kAzBMDFgAAsDuuIMFCOVMCYJ4YsAAAgEs3OAJrwRiwgLliwAIAAHbHFSRYKE4hBOaKAQsAALh0kyOwFowBC5grBiwAAGB3XF2CBTI4hRCYLwYsAABgdxiwFslkwALmiwELAADYHQasRTJ0hgjAPDFgAQAAu+MICRbKVyQA5okBCwAA2B2OwFokU18VAZgnBiwAAOCSHTddvrqsEAtkc18TAZgnBiwAAOCSnde1RVgwm51CCMwXAxYAAHDJVrqOCAt2j16/r8sAzBMDFgAAcGmuLcFC+XpHDjtlAOaJAQsAALg015ZgobiAOzB3DFgAAMClubYEC+U0CYB5Y8ACAAAuzQ0lWChflgCYNwYsAADg4j17OqC6vhAL5XMSAPPGgAUAAFy8L3X96gAhFsrnJQDmjQELAAC4eCvdWISFY8AC5o4BCwAAuHhTNxFh4RiwgLljwAIAAC7JTSVYuFeBp4oAzN9DFwAAwMW7lQQLZsVF3IH5Y8ACAAAu2gnTIdUNhVgo51dfkQGYNwYsAADgon2z7682C7FQTm0cVmQA5o0BCwAAuGhTPyDCwjlFAmAeGbAAAICLZsBaRJ+QAJhHBiwAAODi3F6ChWPAAuaSAQsAAPhuz5gOrW4uxMIxYAFzyYAFAAB8t7P6wWqLEAv3CvDjIgDz+fAFAADwnabuIMIC2uwILGA+GbAAAICLYsBaPGf35L4gAzCPDFgAAMC3G6dNGbAW0SdrmGQA5pEBCwAA+M5XCd9XXUmIheP0QWCOfzQBAABc2NRdRFhIH5EAmFcGLAAA4NtN3VmEBTT0YRGAeWXAAgAAvuWkaXP1w0IsoKGTRQDmlQELAAD4lpO7ZXVFIRbQiiOwgPllwAIAAL5l6MdFWEifbxy+LgMwrwxYAADAt0wGrAXl9EFgrhmwAACAVeN0ePWDQiwkAxYw1wxYAADA/7hXtVmGheT6V8BcM2ABAAD/w+mDi/vKz4AFzPnDGAAAwLOnA6p7C7GQplZ6nwzAPDNgAQAA9YXuXB0uxEL6uHcgBOadAQsAAKip+4mwsN4tATDvDFgAALDsxmlT9dNCLKz3SADMOwMWAAB4VXC76gghFtRgwAIW4UcVAACw3FZ6oAgL7ACnEALzb5AAAACW2Orpg6dU1xBjIX2mcbiWDMC8cwQWAAAss6G7ZrxaZI6+AhaCAQsAAJbZ1M+LsMAGAxawGAxYAACwrMbp4Op+Qiy0t0sALAIDFgAALK+fri4vw8La2cH9hwzAIjBgAQDA8voVCRba+ztqOEMGYBEYsAAAYBmN07Wruwix0N4hAbAoDFgAALCcHur1wMIzYAELww8sAABYNuO0qdUBi8XmAu7AwtgiAQDMgO3TjzX1BiEWxNDPtW14iRDM8NfoPZu6lhAL7YuNwydkABaFI7AAAGDZTP2mCAvvbRIAi8SABQAAy2Scrl/dU4gFN/RWEYBFYsACAIDl8uteByyBwWnpwGLxgwsAAJbFOF2m+iUhFt5XW+kDMgCLxIAFAADL46HVFWVYeG9sHFZkABaJAQsAAJbBSdPm6neEWAJOHwQWkAELAACWwYf7mer6QizFqzwDFrCAD20AAMDim3qsCEvh1I4ZPiIDsGgMWAAAsOh2TD9a3V6IpfB6CYBFZMACAIBFt9JRIiwJ178CFpQBCwAAFtmO6dbVvYRYClNT/ywDsIgMWAAAsMhW2l4NQiyF9zQOn5cBWEQGLAAAWFTjdKvq3kIsjX+SAFhUBiwAAFhc23L01TK9unuNCMDiPsQBAACLZ8d02+onhVgaX2ulf5cBWFQGLAAAWEQrHZejr5bJaxqHC2QAFpUBCwAAFs043aO6ixBLZOjVIgCLzIAFAAALZRqqp+qwVFY6wPWvgMVmwAIAgEWyvftXtxFiqbyjJw1flgFYZAYsAABYFON0YFNPE2LJDP2dCMCiM2ABAMDieGx1fRmW7lXdy0UAFv+hDgAAmH/jdNXqCUIsnXd1zPBJGYBFZ8ACAIDF8LTq8jIsnZdJACwDAxYAAMy7cbpV9VAhltDm/l4EYBkYsAAAYJ6N06bqj6rNYiydkztm+LAMwDIwYAEAwDwb+tXqDkIsJe8+CCwNAxYAAMyrp01XaeppQiztqzkDFrBED3kAAMB8Oq/jq8OFWEofbuvwPhmAZWHAAgCAebRj+tFcuH2ZvVACYJkYsAAAYN6M02Va6c+qQYylNLW5F8kALBMDFgAAzJ8d1fVlWFpv75jhkzIAy8SABQAA82THdNvqt4VYan8jAbBsDFgAADAvTpwOaqXnVZvFWFoXdGAvlQFYNgYsAACYF6e1o/o+IZbaa3vS8GUZgGVjwAIAgHkwTneqHifE0vtrCYBlZMACAIBZ94zp0OrPc+rgsvtG9XIZgGVkwAIAgFl3Zn+Qdx2kXtg4nCUDsIwMWAAAMMu2Tz9bPVwI2tTzRACW9yEQAACYTU+Z/k9TzxGC6v1tHd4jA7CsDFgAADCLxmlLF/Ti6nAxaDBkAsttiwSAFwjTn1cHCnGpnt44fFAGgHV83K0fkoHqnA7sb2QAlpkBC6B+rjpYhksx9BeVAQtgPYzTfarHCcEuL+uJw9dkAJaZUwgBAGCWHDtdr3pBNYhBVUN/JgKw7AxYAAAwK06YDmlnJ1VXEINdPty23iQDsOwMWAAAMCtO74+rWwnBhfxRDZMMwLIzYAEAwCzYPv1m9VAhuJDTO6QXyABgwAIAgI23fbp7UycIwXf4y44azpABwIAFAAAba5xu2NRL8g7hfLup+mMZAFYZsAAAYKOM02HV31dXFIPv8LrG4b9kAFhlwAIAgI3w7OmA6u+qm4rBRXD0FcCFGLAAAGDdTUOn9uzqblpwET7VTXuFDADfYsACAID1NratepgQXIz/25HDThkAvsWABQAA62n79AvVViG4GF+rni8DwLczYAEAwHoZp3s19efVIAYX408ah2/KAPDtDFgAALAexun21UurA8TgYpzbAf2RDADfzYAFAABrbcf0fdU/VZcVg0vwgp48nCoDwHczYAEAwFoap+u30murK4rBJZiq/ysDwEUzYAEAwFoZp++tXlddXQwuxSsbh5NlALhoBiwAAFgLT5n+T/XG6lpisBuvzI4XAeCSHiYBAID9a5yu2QW9obquGOyGN7R1eJsMABfPgAUAAPvTU6erVa+tri8Gu+lYCQAumQELAAD2l3G6Zuf35uomYrCb3tI4vEkGgEtmwAIAgP1hnK5dvam6kRjsgR0SAFw6AxYAAOyrY6cbVW+pricGe+DfGofXyQBw6QxYAACwL3ZMN2tnb6yuKQZ7ZHD0FcDuMmABAMDeGqfbt9KbqyPEYA+9u229RgaA3WPAAgCAvbF9ul/1xupKYrAXjqlhkgFg9xiwAABgT22fHtbUSdXBYrAX3to4/JMMALvPgAUAALttGhqn7U09v9qiB3vpiRIA7Bk/dAEAYHecOB3UaT23+kUx2AevahzeKgPAnjFgAQDApXnadKVO62XVj4jBPpja1DEyAOw5AxYAAFySY6cbdF6vqm4gBvvoxW0d3iMDwJ5zDSwAALg426efbGfvzHjFvju/zW2TAWDvGLAAAOC7TEPjtLWpl1eH6cF+8PyOGT4mA8DecQohAABc2DhdtvrL6mfEYD85oxplANh7BiwAAPgfx043aWd/V91EDPaboae3bfiCEAB7zymEAABQNU4Pbmf/kfGK/euUpp4lA8C+cQQWAADLbZwOro6vHiMG+93Q49s2nCUEwL4xYAEAsLxWTxl8SfV9YrAG3tG2TpIBYN85hRAAgOU0Tg9pZ/+Z8Yq1MbWpx9cwSQGw7xyBBQDAcnnadJXO68+qnxKDNfTitg5vkwFg/zBgAQCwPLZPP955Pb+6uhisoTOrJ8gAsP8YsAAAWHzjdFj1jKZ+tRoEYY09pXH4jAwA+48BCwCAxbZ9umdTz63+jxisg491eP9XBoD9y4AFAMBiGqcrVM9s6pfFYN0MParHDOcKAbB/GbAAAFg826efbOqPq2uKwTp6cduG18sAsP8ZsAAAWBzHTtdpZ/+vqR8Xg3V2Rlv6XRkA1oYBCwCA+TdOB1aPbWfHVJcRhHU3tL2jh88JAbA2DFgAAMy3cbp39X+rG4rBBvlAV+9EGQDWjgELAID5NE7Xr55WPUAMNtBK9cgeMZwvBcDaMWABADBfnj5dsXN7UvWb1UGCsMFObBzeLgPA2jJgAQAwH549HdCpPaxze0p1FUGYAZ+ujpEBYO0ZsAAAmG3jtKn6uU7tqdW1BWFmDD2ibcM3hQBYe5skAABgNk1D26efrP6z+uuMV8yWv2rb8M8yAKwPR2ABADB7xulu1XFN3VoMZtBXOrDflQFg/RiwAACYDeO0qaH7NvWk6jaCMMN+sycNX5YBYP0YsAAA2FirF2d/UHVUUzcVhBn38sbhxTIArC8DFgAAG+P46XKd3cM6tcdV3ysIc+CL1a/KALD+DFgAAKyvY6frtLNHdHa/Wh0uCHPk0Y3DV2QAWH8GLAAA1seO6Udb6THt7L7VZkGYM3/eOLxMBoCNYcACAGDtHDddvnN6YPXrrfT9gjCnPls9VgaAjWPAAgBg/9sx3bGVfq1zOrI6WBDm2EpDD2nb8HUpADaOAQsAgP1j9dpWv1g9uJVuIAgL4g/bNrxRBoCNZcACAGDvjdPhDf1sU7/Yzu5UDaKwQN5fPUEGgI1nwAIAYM88fbpi5/aT1QOqezR1oCgsoHPa1IPbOpwjBcDGM2ABAHDpnjJ9Txf0E9X9Ore7VgeIwoL7rbYOH5ABYDYYsAAAuGg7pps1dZ+mfrIL+qGcHsjyeFnj8BwZAGaHAQsAgFVPna7WBf1IU3er7t1K1xSFJfTZ6ldlAJgtBiwAgGU1Tteo7rTr426d301EYcntrB7UOJwmBcBsMWABACyDcdrSpm7WSrer7tjqaHVdYeDb7Ggc3ioDwOwxYAEALJpxOrC6cUO3bOo21a2rH2ilQ8SBi/Xa6ikyAMwmAxYAwLwap4Or6zd0o+qmTd28unl1g+qAJolgN32m+oXGYUUKgNlkwAIAmFUnTId0Zt/bSteorllds6nrVtff9fE91WCogn1yXps6sq3DV6QAmF0GLACA/W3oco3Tt64vtbmhqStUm1rp8g0dWl2mqcs1dLmmDq+uWl25utKuf16t0ztcTFhzv9PW4d9lAJj1p1cAy26cTqwOFOJSf2K8p8nPjTX2AxIsjEdIAHPhRY3Dz8sAMA8vRwBgd4zTv1R3E2LNvKlx+DEZFub7xUl9MPs+2KHdvscPZ0oBMPs2SQAAACyZb7S5+xuvAOaHAQsAAFgmK9WDO2b4iBQA88NF3AEAgOUx9IS2Da8UAmC+OAILAABYFi9s2/AMGQDmjwELAABYBu/OO4QCzC0DFgAAsOi+UN23cThLCoD55BpYAADAIjuvTR3Z1uGzUgDML0dgAQAAi2pq6OFtHd4iBcB8M2ABAACLamvbhhfIADD/DFgAAMAi+vPG4SkyACwGAxYAALBo3lQ9UgaAxWHAAgAAFsnJ1f0ah/OkAFgc3oUQAABYFKe2pXt39PB1KQAWiyOwAACARXBGm/rJjh4+LQXA4jFgAQAA8+68hh7Q1uFdUgAsJgMWAAAwz1aqX2zb8M9SACwuAxYAADDPfqdxOEkGgMXmIu4AAMB8GtratuFEIQAWnyOwAACAefTHbRuOlQFgORiwAACAefOi6jdlAFgeTiEEAADmycs7ol/qEcOKFADLwxFYAADAvHhth/dzPWI4XwqA5WLAAgAA5sHrqvv2mOFcKQCWjwELAACYdW+r7tc4nCMFwHJyDSwAAGCWvaND+vGOGr4pBcDycgQWAAAwq/6zg/vxjhrOkAJguRmwAACAWfSu6l49YfiGFAAYsAAAgFnztuoujcNpUgBQroEFAADMlrd0SD/htEEALswRWAAAwKx4c3Vv4xUA38kRWAAAwCx4TYf1Mz12OFsKAL6TI7AAAICN9o8d3k8brwC4OAYsAABgI/11R3T/HjOcKwUAF8eABQAAbJT/Vz2kRwznSwHAJXENLAAAYCMc3zg8QQYAdocBCwAAWE9T9djG4Q+kAGB3GbAAAID1cl5DD2nb8BIpANgTBiwAAGA9nFHdv23Da6UAYE8ZsAAAgLV2anWfxuHdUgCwNwxYAADAWvpQde/G4TNSALC3NkkAAACskdd3cHc0XgGwrwxYAADAWvjLjujHe8LwDSkA2FdOIQQAAPanqdrR2PYaJjkA2B8MWAAAwP5yTvWrjcMLpQBgfzJgAQAA+8Opbep+bR3+XQoA9jcDFgAAsK/eU/10W12sHYC14SLuAADAvnhxdSfvNAjAWnIEFgAAsDdcrB2AdWPAAgAA9tTXG3pw24ZXSQHAejBgAQAAe+J91f3bNvy3FACsF9fAAgAAdtcLqx9qNF4BsL4cgQUAAFyacxs6qm3Ds6QAYCMYsAAAgEvy2eoBbRv+TQoANopTCAEAgIvzz9UtG41XAGwsAxYAAPCdLqi2V/duHL4iBwAbzSmEAADAhX26Tf1CW4e3SQHArHAEFgAA8D9e1kHd0ngFwKxxBBYAAHB2Q0/0LoMAzCoDFgAALLf3t7mf65jhw1IAMKucQggAAMtpqk7s8H7QeAXArHMEFgAALJ9PVw9tHN4kBQDzwBFYAACwXF7QIX2f8QqAeeIILAAAWA5faujX2jb8gxQAzBsDFgAALL6/68Ae1ZOGL0sBwDwyYAEAwOL6YvV7jcNfSQHAPDNgAQDAYnpp9ejG4StSADDvDFgAALBYPlU9onF4rRQALArvQggAAIthpXpO9X3GKwAWjSOwAABg/r23TT2yrcO/SwHAInIEFgAAzK8zG3pCdVvjFQCLzBFYAAAwn17Zlh7d0cMpUgCw6AxYAAAwXz5W/YbrXAGwTJxCCAAA8+HM6onVzY1XACwbR2ABAMBsm6q/bUuP7+jh03IAsIwMWAAAMLv+o/qdxuHtUgCwzAxYAAAwez5bPbmxF9QwyQHAsjNgAQDA7Diz+v+q4xqHc+QAgFUGLAAA2HjnVc/pgJ7Sk4cvygEA386ABQAAG2f1Au31pMbhv+UAgItmwAIAgI3xujb1e20d3iMFAFwyAxYAAKyvf6ue2Di8SQoA2D0GLAAAWB//1tCOtg2vlgIA9owBCwAA1tbbGzqubcMrpACAvWPAAgCAtfG2ho43XAHAvjNgAQDA/vXGaodrXAHA/mPAAgCAfbdS/VObelpbh3fIAQD7lwELAAD23rnVSdXTGof/kgMA1oYBC4Dddb8O6gAZ1uwl8PkiwFw5vfqL6vjG4fNyAMDaGiQAANjPxmkSYWF9rPqjDu15PX44Uw4AWB+OwAIAgEu2Ur2hoed0k17WkcNOSQBgfRmwAADgop1evbh6VuNwshwAsHEMWAAA8O0+VP1R9cLG4ZtyAMDGM2ABAECdU72iek5jr6/BdcwAYIYYsAAAWGbvaugFTb2gcThNDgCYTQYsAACWzTeql7SpP23r8B45AGD2GbAAAFgG51avrv66emXjcI4kADA/DFgAACyy1VMED+hvetLwZTkAYD4ZsAAAWDQfbPVIq79pHD4jBwDMPwMWAACL4OTqpW3qFW0d3iUHACwWAxYAAPNqdbTa3Is6ZviIHACwuAxYAADMiwuqtzb08jb3so4eTpEEAJaDAQsAgFn2leqN1Surf2wcvi4JACwfAxYAALPm5OoVrY5Wb28cViQBgOVmwAIAYKN9qnp99YYO6PU9efiiJADAhRmwAABYb1+u3lS9rk29ra3DhyQBAC6JAQsAgLV2SvW2ht7e1Jsb+0ANkywAwO4yYAEAsD/trD5SvbV6W/XWxuETsgAA+8KABQDA3pqqj1Xvrt5VvbND+88eP5wpDQCwPxmwAADYXae2OlS9q6F3dUBv70nDV2UBANaaAQsAgO90avWh6uQL/fO9jcM3pQEANoIBCwBgOX2t+viuj0809JGmPtShfdgpgADArDFgAQAspjNaffe/z1efqT7e0Mcb+kQrfbxxOE0iAGBeGLAAAObH2dVXL/Tx5epLDZ1afbapz7W5U9vZKU73AwAWiQELAGD/+3j19e/4z86oLrjQv/9mq4PUGdXp1dkNndnUNxo6uzqr+npDX2mlr1ZfaRzOkhYAAAAAAAAAAAAAAAAAAAAAAAAAAAAAAAAAAAAAAAAAAAAAAAAAAAAAAAAAAAAAAAAAAAAAAAAAAAAAAAAAAAAAAAAAAAAAAAAAAAAAAAAAAAAAAAAAAAAAAAAAAAAAAAAAAAAAAAAAAAAAAAAAAAAAAAAAAAAAAAAAAAAAAAAAAAAAAAAAAAAAAAAAAAAAAAAAAAAAAAAAAAAAAAAAAAAAAAAAAAAAAAAAAAAAAAAAAAAAAAAAAAAAAAAAAAAAAAAAAAAAAAAAAAAAAAAAAAAAAAAAAAAAAAAAAAAAAAAAAAAAAAAAAAAAAAAAAAAAAAAAAAAAAAAAAAAAAAAAAAAAAAAAAAAAAAAAAAAAAAAAAAAAAAAAAAAAAAAAAAAAAAAAAAAAAAAAAAAAAAAAAAAAAAAAAAAAAAAAAAAAAAAAAAAAAAAAAAAAAAAAAAAAAAAAAAAAAAAAAAAAAAAAAAAAAAAAAAAAAAAAAAAAAAAAAAAAAAAAAAAAAAAAAAAAAAAAAAAAAAAAAAAAAAAAAAAAAAAAAAAAAAAAAAAAAAAAAAAAAAAAAAAAAAAAAAAAAAAAAAAAAAAAAAAAAAAAAAAAAAAAAAAAAAAAmE2DBAAAzJTjp8t1dgdUV9j1n2yqVnb963M6qLM7tzMahwvEAoDlYMBi4x07Xaed3ayha1WXrWrqzOoz1Qcbh0+IxEwZp6tW319du6Er7fpPz6u+0NTHOqL39YjhfKEALvIx9DJt6matdKPq2hf6uFp1pV0fB+7mn/aN6svVV6rPVp9q6FPVJ5r6UOPwGcEBYDEYsNioJ6+3qh5a3a+65qX8rz9XvbxN/Xlbh3eJx4Z4yvR/uqCHVQ+obnYpj59nVW+sXlj9rSMEgCX+eX9wdZvqh6rbtjr+X7/VI6rWw9er91fvrd7Rlt7W0cMp7hgAmD/DhZ5gXLehB8z132bqa7v+VmdUF1TnNHV2QzsbOq3Nfakb9KWOHHa66zfIjumWrfT71d328k94RbW1cXivmKyLp05HdH5PrR5cHbAXf8JHVr9me2kNk6Cwn2yffqypZ6zTs6VntW14gei74aRpcyd32+pe1d2rW1cHzditPKV6U/Wa6rWNw1fccQAw+y48YN27etUS/J1XWj3U/EvV56svVl9s6OMN/VcrfcgTmTV7QrujOqravI9/2lT9WYf1Wz12OFtc1vAF8oOa+tPqsP3wp72j+jmns8B+Mk4/U/3dOj1b+r22Dc8Q/WKcOB3U17pXUw9odbi60pw9L3xnQy9v6iUuWwAAs2sZB6zd8ZXqw//7MfSBpv69cfimNHv1IuPK1V9X99jPf/KHq/s3DieLzH7+mt1SPaXVwXV/+mpDv9C24Z9Fhn3+PjVgbWz/TQ3dtakHV/etLr8gf7N3NvTipl7QOHzJHQ0As8OAtft2tnoq0Fsbel0H9KaeNHxZlkuxevrV21u9OOtaOL36scbh3WKzXzx7OqBTe1Wrp76s1WPJLzcOfyU27AMD1kb+XH9Y9SvVdRf4b3pe9Y/Vc6vXNQ4r7nwA2FhbJNhtm6ubVjdt6tc6r6lx+q/qzdU/VG9oHM6T6UJOmA7p9P6+tRuvavXUrlc0TrdrHD4rOvvs1E5s7car/3ks+bPG6TONw5sEB+bCjukWrfTozu8h1cFL8Dc+sLr/ro+Pt336w6ae2zic5YsBADbGJgn22lDdpHpk9erqa43TKxqnh3T8dDl5qtP78+p26/CZrlG9rHE6UHT2yfbpt3Z9T6+1A6qTGqfvFR2YaeN0l8bpda303urXWo7x6jtdr6k/qD7VOG3tuOnyvjAAYP0ZsPafy1T3qf6ys/tC4/Sytk8PXNpRZfv0gOqB6/gZb1v9ni9D9uFF2vWbOm4dP+NVqmcLD8ykHdMdGqfXVa+v7irI/z5ub++cTmmcjjNkAcD6MmCtjctU92vqxbXrSc44XXtp/vYnTZubeuoGfOYn9LTpKr782EtPaf2PLLhX43Rn6YGZcex0k8bpn1rp7RmuLs7lqqM6p481To/e9cYfAMAaM2Ctvau2+k5mH2+c/qXt0wM6adq80H/jk/vZ6gYb8JkP7fwe7UuOPbY6MN9/gz77Ue4AYMM9fbpi43RcO3tv9eOC7JarVP+v+sCuN0MCANaQAWt9W9+tqZM6uY80To/sxOmgBf27/tKGfeaph9Q0+HJjDz241Yurb4S799TpCHcBsGG2T7/YuX201UHd9ST33I2rVzVOJzVOV5cDANaGAWtjXK/6k07rv9s+/WbjtDgXRF0d5e6ygbfguh3bDX2JsYc28jfnm7uge7gLgHU3TtdunF7T1F9VVxZknz2g+nDj9Gt+mQYA+58Ba2Nds6kTq481Tr+2EKcWfr1btdHvULSzO/rSYg9ewB1Y3WZDb8PkaxZY98e+h1cfqO4pxn51herZjb2mcbqGHACw/xiwZsM1q2d3cv/ZOP3IXP9NVrrRDNwKR2Cx+zZ3neoAX7PAUhinKzROL6qeW11WkDVzj+pDjdPPSQEA+4cBa7bcsnpz43RST52uNpd/g6FZuJaP33iy+3b6mgWWxI7ph6sPVUaV9XGF6kWN0x8v8HVPAWDdGLBm0wM6v/9qnH557m751GVm4FYc6kuIPeBrFlh84/RrrfT6DOYb4VGd1tt7ynQtKQBg7xmwZtcVquc1Tq9pnK45N7d66IIZuBXn+/JhD/iaBRbXOB3cOL2wenYbf7r0MrtVF/Qfc3+pCADYQFskmHn3rN7fOD26cXjxHNze090G5sxyfs2O052qv1yXz7W5e3XM8DFfarDu3+eHVy+vfliMmXDV6l/aPj28bcML5ACAPWPAmg9XbPUaCj9TPbJxOG1mb+nUJzf8NgwzcBuYHwf0yRk4/umTG/B9ckhT112nx4UDfaHBOjt2ul47e1XNxJur8C0HNvWXjdP1GttewyQJAOwepxDOlwdU72nHdOsZvo3v3/BbMPUhXyrsticPX6y+uMG3wtcssP+M063a2b9lvJpVQ7Wtsf/XOHkuDgC7yQ/N+fO9rfTWxunBs/mkefhEdcoG3oKVDuxtvkzYQ2/e4M//r+4CYL/YMd22+pfqymLMvEdVL2icnBEBALvBgDWfDq7+qu3Tthm9fX+7oUPAk4av+hJhD/3dBn7u06s3uQuAfTZOd26lN1SHizE3fr56Uc+eXGAfAC6FAWt+DU2NjdMf1zTM1C3b3HOrnRv02V0Ulb3xj9XnNuhzv6RxOMddAOyTcbr9rseyy4oxd+7fqb3IkVgAcMkMWPPvUY396UxdQ+GY4cNtzJD0uQ7vr31JsOcv/IZzqh0b8Jl3Vv+fOwDYJzumW1T/VF1OjLn1s9WfuSYWAFw8PyQXw69VfzhTt2hLY3Xuun7OoSf2mOFcXw7slZv2vOq/1vmz/mnj8FHxgb127HSjVnpdq+9YzHz7pfxSAwAulgFrcTy6cXrSzNyao4dPV+t5e17Ttl7oy4C9duSws3pEdcE6fcZPV0cLD+y1cbpyO3tFLti+SH6ncXqMDADw3TbyXPtzqrP38v97SKsXMufbPaVx+kzjMBtDztj/bez21QPW+DN9qvqlGiZfAuzb1+zwr43TUdUz1/gznd2mHtjW4euiA3vlhOmQTu8fqxssyN9opdVh/yO7Pr7e0JlNfaPVN7s4q6GDqss2dWir1/q6QnXN6kbVDavDFuXebfv0ybYNr/CFDgDfspED1u83Dvv+LnrjdIUOaujcDtj1ZObwhq7S6m8jr9zUVaprVNfd9STv6gt8fw7V8xqnTzQOb5+BmzN1yPQrnd2Nq+9bo0/y+erHG4cv+XZmv1gdXm/d6jtDrYWzq59r6/DvYgN77fSeV91hjv8GH6ve2NCbmvpQh/eRfb4MwDhdo7pxQ7dr6i7VD1WXmcM2m5t6UTumO7R1+IAvdgBYNf/vdjJ+2xEMX6o+cSlPbi5bXX/Xxw9Ut931sSjXjjiweknjdMvG4SsbfmuOGs5onO5cvbz64f38p7+u+gXjFfvXMHXT6SGd3OnVI/f7C7ZNPaCtw/t0Bvba9ul3mnrQnN3qc1p9l8RXtaU3dvRwyho8J/x8q7/YekP19E6cDurr3b6V7lod2eqRWvPi0FZ6WeN02+94rgsAS2v53q53HL5ZvXfXx9/+739+7HSDdnbbVkeWe1bXmeO/5TWrFzZO924cVmag+WmN012q7dXjqwP28U88uzqum/bUXdctgv1r9evqUW2f3t7Us9o/A/dfV49u63C6wMBe2zHdsZWOn6Nb/K6GXtABvbAnDV9d18+8ekTXm3d9bG3HdOtWekj1oOoqc9Du+tULGqf7zsTzOQDYYFsk2OWY4WOtHs7+N1WN0w2re+36+LHm75pb96x+rzpuJm7NOFxQPbkd09+00lOqn2rP30TgvOp5bempHT18zhcta27b8IKeNr2m89pW/XKr19/bU2+qtjUO/yoosG8/S6erttLftu+/CFprZ1fPbXMndszw8Zm5VVuHd1Xv6sTp9zqt+1VPqG4x4y3vU/1u9fu+AQBYdgasi32SOHy0+mh1YsdNl++c7lv9YnXXVq81NRd/i3ZMr2jr8KEZevL4oep+HTvdoJV+vqn7tHoq58V9LV5QvbP6h7b012tyygFckicNX65+o6dN2zuvB1b3q27fJV9X5eTq1W3qr9s6vEdEYD95brN9Lc9vVs+vjt91Ot9sWj0y68XVixunu1XH7npcn1VPaZze1Dj8h28BAJaZAWt3PGH4RvVX1V917HSddvaLrV4b54gZv+UHtdLzOmm648ydard6xNv2anvPmA7t7G7YSteqLtvQ5ur0pj7doX2kxw9n+iJkw60OWX9U/VHPng7oS12/la7f6jtiHdLQGQ19tpU+0jicJhiwX43TI1s9enkWnVedUD1j7h7/xuF11evaPt29qWe2dm86sy8OqP6ycbp143CWbwYAlpUBa08dM3yy2tGJ0/F9rZ9v6nHVzWb4Ft+uD/fb1TNn9hauDlTv2fUBs+8Rw/nVh3d9AKytY6frtXNmf46/ofr1xuG/5rrxtuFfevZ0677QY5oaW31n61ly4+r46jd9QwCwrDZJsJceM5zbtuHPG/u+hu5dze5h3VPbGqeru9MAYN5MQzt7dpd82vJGOLWhn28c7jr349X/eMRwftuGZ1Y3qV46g7fw0Y3TD/meAGBZGbD22TC1bXh1Y7dv6MjqEzN4Iy9XPdV9BQBzZuxhrV5/c5a8rgO6ZduGFy1m8+GzjcORDd2/+saMPW9/fuN0sG8MAJaRAWu/Gaa2DS9t9XTCo6rTZ+wGPrQd063dTwAwJ8bpytX/N0O36ILqqMbu0ZOHLy58/23D37W521Xvn6FbdaOGHu+bA4BlZMDa7082h3Mah99v9SKgr5up+3ql491BADA3dlRXnJHbckr1o6vPcYZpae6BY4aPdFi3b/UdIGfD1FGN0zV9ewCwbAxYa2UcPtPYParHtfoby1lw13ZMP+zOAYAZt2O6WfWrM3JrTm5Ld2wc3r6U98Vjh7Mbh19r6LerlRm4RYdWx/kmAWDZGLDW1DA1DidUd6++MhM3aaXR/QIAM26lP2g23i36bR3UnTp6OGXp75Ntw7Ma+uVm4xeTP9843d43CgDLxIC1HsbhTdUPt3r4/Ua7i6OwAGCWnzdMd6nuNgO35JXVPXri8DV3yi7bhr+s7ledtcG3ZKie4g4BYJkYsNbtyejwX23pjtUnN/y2rPRb7hAAmFk7ZuA2vLIj+pnG4Sx3x3c9p3tl9ZPVuRt8S+7aON3ZHQLAsjBgraejh1Pa3N2rL2zwLblv43QNdwgAzJjt049Xd9zgW/FvHdrP9YjhfHfIxRiHNzT0wGrnBt8SR2EBsDS2SLDOjhk+3o7pPq30luqQDbvfh36pero7ZJ6fPE9b2ty12tn1GrpeU/+nunx1UHVYqxd5PbCaqq9Xp1dfa+i/mvpAh/ThjhrOEBJm8vv7sDZ3RDu7SkNXqQ5s6vL/+98PnVud1bTrn3Va9fnGvrhU7xC3iKaevMG34IPVT/T44Ux3xqXYNvxD26dfb+pPN/BW3LFx+pHG4V/dIZfg2dMBndZlqzq3qXH4uijr+jPtsm3qOq10aHXZ6rCGDmnq0Av9XPtGU2dWX2lzX+7yfbbHDOeKt64/gIae2lU7/3+fe1y5qYOqy1zof/TNhs6vvtnUuW3qi630Od9TM/39t6m6evW9DV1p1/15mV33bQ2dWZ1Xfb2p89vcKe3slMbhvFn86xiwNsLW4V1tnx7V1F9s4BPkh9d0nBc6c/TAs6mbtdKPVneqblNdq527voenPbrvV51djdMHqn9u6DVdsbd6ogDr7Pjpcp3brVrpttUtqhvs+jj8f4/rmC7h+/i7His6r6ZTq89WH67e16be14G9vycM3xB8xu2YbtfKhh599Znqno3Dae6M3bRteHbj9D3VMRt4Kx5XLe+ANU7f29ANmv738fMG1fV3vUg7rLpcp37Ha55xqtVTQL9SfbU6tfpkQ5+o/rtNvbdjhk/6At/j++LA6gcbusOF7o8bVtf4rvfvnC7h3++sTmtqnD5X/Xf1wYbe29S7umkf6Mhhp9j76KnTEZ3fbXe9prjZru+ZG3T+rgMspt14LVHfel/WcTpr18+Qz7b6i5DV5x8rfWhWh5CFdNx0+c7pdrvu19vsem75f6oDdvs55c5d9+zq99+nqo809G8N/Vsrfbhx2NB34x0u9IBz7+pV6/k0rXHYtuQP8s+rfnnDPv+mfqitwzvW9IfYIbuW3bV2nc5auB9mx02X79x+pqn7tTpaXXGNP+M3qr+untc4vHuP/p8nTId0er+4TmXe0Dj895r8ySdNm/vkt/2Wae2c3bn7/AP9hOmQzu3gvfr/ntedm3rZOt1n26vPr/HneGXj8PmZ/74+YTqkM/qRpu5a3bX6gdbvdP6PVq9r6LUd3Bvm/gjMcfqZ6u/W6dnS77VteMY6/J1eWt1/g4qeX925cXi7VwB7ahoae3n1Uxt1A9rczTpm+PBS5D52ulE7+9HqR6s7V2t1WYyvVe+s/rVNvbGr9R9Oq72Ir/0d3aapuzR1l1ZPfz50jT/p6dVbGnp9U//QOHzC/bBbP1+u2uqbg9y1ukt17XX82fLu6rW7Pv6tcbjAHbJf79trN3Tfpn6y+pH+Z6xau9eLb69eXr2scfjKev91HYG1sX5n1wPJ927IZ1/pyGrtBqyhx3V2T1uXv8vJ3bf6x7n/ijhxOqivde+mfqFz+onay3Fi71y+enT16Mbp3dXx1d/u1sp+epernr1OLyQf3Opv4/a/D/cjTb1hnXofVz1xH5/CHbPPf8b62LYOXxd3ae1Hsr2zOvD+RHX/Xf+87AbdkhtWN2zq0Z3dBY3T26oXd1Av8S5zM+Ap07W6oPtt2OcfemLbjFd7GW/qwOnhndd7qu/ZkHtvZ4+pHrWwiVePTnxw9TPtbL2u43rF6u7V3VupTu30xumfGnpZl+mflvo023G6ZkO/1NRDW+n66/zZD6t+oqmfqE7YdTbBi9vSCzp6OCUufD9dvaGfber+1Q9XmzfgVhxQ3W7XxzHV6Y3TP1cv7IhePXej8Dj9Y+tzGaCHNQ6fvYTbsaWhn2zqkdXdmy50YNLav1788V0f/69xekNDL+5yvbjHDmevxw0wYG3oN8BwetunRzf1yg26BfdvnB630YcBUo3TFarf6LR+q7ryDNyiW1UvqT7Y9mlHU3/n6wT2+AXXLVrpVzu9X6iuMGO3bkvtOoLh3P5g1xOyv6he43t9g1zQr2zQi4uqV7WtE9wJ++BJw5fbMT2old6wQc+vH9zx0+8t1LUtj52u00oPburBrXTDGbhFh1U/19TPdWbfbJxe0qaet6ZnM8yUaWjsvtUjdr1g3jwjN+z7qu/rgo5tnP6loWe1rdcs7WVSTpo29+HutXq5mO7TNHOv9w+rHlA9oFP7cuP0N9XzG4f3z0nhO1eXW/PPsvlijmQcpy3VQ6utu65/vNHPJe/R1D06vePaPp3Ygf3xWv9S1LsQbrRtw6uqV2/QZ79m9UPuhA00TldunMbqk9WxzcZ4dWE3b+qk6j8bpx90h8FufV/fqXF6RSu9t/r1Zm+8+k4H7Xoy+arq/Y3TQ3Y9QWI9X3DUwzbos3+ueohrYu4HW4e3tHrK9Ea4bGf3gAV5DP2Bxuml7ey/m9pRMzFefXfv+pVWenvj9J62Tw9a6MfNcbpPY++q/r66V83MePWdr2vv2dQ/NXZy4/SQXY+ty+HE6aDG6SGd3Mm7Do746Wb/YJWrVL9Vva9xemvjdBc/SC7B9um+1Qeq59aGj1ff6apNPaVz+3Tj9PSeMR26lt/obLzfbePehvkn5N+QJwIHNk5HV59u9fSqWX+Be6vq7Y3THzROh7kD4TtNQ9un+zVO76ve0v/f3n2H2VHVjx9/n930QOhVqvRQpAuCdBGlSC8qKIqUrz9BEAQCyZ5NKEGKFFGDgFKVovQiHSVSRJAWOogCUUqAhJBskt3z+2MuJZCy5d6ZuXffr+fZR4Hde2Y+59yZM585BXao0xNZHbgIeIaYvgspWLc5eJqvk71UKsKPXbS9qkYDRY0kOKDO+0ZfIqYbydbL2b2OnlPWJnE58Bwxfa+hkiYxbUVMfwNuANapoyNfFbiIcTxFa9qDRhbTIFrTUUzg35X798p1eiabAHcS013E5ACLmet4fmIaQ+LaStsus3mBY5jMc8S0Xy0KMIFVikYZxgFXF1T6V62A3C9Cm1Y6Z6MgpwXDq6OZ7C3JE8S0mRUpfbKDz4OVRfHXapCzWgH4LZGxxLS2lVxjif0KKvk2YrjaCqhqn24GTfw/urY/cLVszKi0Ut3FbFRaiZhuAcaSvVit18T58sAFjONxYtqprtvxyWkBYroUuBPYuI7PZBUSVxLTPcTUKPfnzJWpmdZ0CPA8iZ8BizbImW0J3EdMF3JSWsR7StqWbFfpA+vsyJcELiKm6yobCFSNCayyaGIUUMS6I2tzYlrCCsjlAjQ/Mf2GbKvr1ev4TJYB7iKmVqcZqVc7KS1CTJdUOvgbNOhZbgw8TExn1XI4eK+WxfVrBZTcRjOHWgE1kE0lvKyQsrMNeuqlX9SP1nQ07TxONi2tUQwFriOmG4lpubo7+tb0Vdp4HPhWA9XJ5sA/iGk0Z6f+dX82I9M6jONBEr+E3DY1yFMA9mcaz9CaftBr7yXZud8ILF7HZ7ET8AgxbVStDzSBVZ7OzlPA3YVcIKaztRVQ8xvNF8i2Yj6A+n2z+EnNwAiyRNaiVrB6YadiD6bxNPDtXnC2zcChTOYhRqbVrfwqm8yO1H7b+Vn5GcPDs1ZAjfTlSLLtxvOV6iSBlY0qeIrEaPLdcTlP25NthnNYXUzHPjUNJqbzSdxKcVOaa6kPcDQTuJ+YVqzLMxiT+hLTyXTwELBeL7iSLkjiPGK6mtFpvl51D2lnNInzyHZxrHefA+4mpu9V48NMYJVJ4DcFlbyFwa/pg+4+dDCWbEpOo/ky8A9Cr7iJShDTAGI6q7K5wUK97OyH0sHD2cOYqqiI9VneAU4z9DV0XPgfcE4BJa/FqLRKia+hfYhpNHArsGIvaAmDSZxJ5HZOSJ8rcb0syWTuBb7fC+pkHbKRxTvXWf9jGcZzN3AM5V+cvdp2YyqPVXMUTx3YucHOZwBwATGN6ukHmcAqk8Q1wFsFlLyxwa+B7C3J2ZWFPRt56s1SlUUFpcYW0zLAg9Crp10NyB7G0uku8F6VNtUP+EoBJZ9DDBOtgBrrx5nApNzLbS/pBj3ZdLqxwNE0xmj0rtiaGTxWGXlWLiPTmsD90KteRs4H/KmyE3j5taavAI+RLXTeWy0L3FN3iUd92vE9/d6ZwCrVjT1Mg0ISAatxclrACqjyQ8l4rgR+1Gu66VIjy6YBj6VxFmnvqSOIXOQ6eD22KdmOPXmaTDEjg3qfYeFtYEwBJZdvPanWtCPwD2DDXtwiFgJupjUdXZoXAK3pa5VZAsv0wvoIQAsxnVryZ4rvkbiJ8u9Ynof+wNW0pv0NRV1rIaYR3f1jE1jlu5ReXUip03p1h6K6ssUhr6Lxhn5KvVNM21Y6+EsZjJnsC1xqEqvuEg2/JIa3DH1O+nIaMCXnUjcjpnlKE4PWdByJ64AFbRA0kxhN5CLGpGLXtolpJxLXk38SvWyOJKYzStr/aAUuoDHWQarmd+j8yg6Mql+t3a1DE1hlszh3UcRw89SwO2jlfaMZxARuINtxQVL9f6e3A66jsacB98RewOmGodvynj7YAZxt2HOUrYX1+5xL7U/gy8WffArEdBqJE+h9UwbnZl/GcwsxDSno3rYVcAW9by2l2Tmc1nRsyfofI8k2TNJnNZH4Ba3pG4aijiXOojVt2fXKV7kcFKYDfymgZHeW6qkz0kDgZopZz0RS9TuP25FN6x5gMOboUGI60DB0uX0NAdbMudQ7ieFVg5+7Swp4MNi00DMek/oSuQT4idU/W1sDd+a+jEdMG3pvm+V35kRiKscunjGdDAy3UuaoicSlxOTSDvWrL4mriOnzXat4lU/gzgJKNYHVsxtNExO5BNjcYEgNYGRaj2wqcH+D0Sm/IKbNDEOX7vUbA805l3qxgS+ij8C9wMs5l1rcYs8xDWI81wHfsvLnan3auCO3JNbItDrZy9Z5Df0srspwITENLfQoWtOPyHYa1NzNA1xHTAsbirq1EHBlV5ajMIFVRom/FlDqKq5j0iOnA7sZBqkRHjbTcnRwY6VjpM7pC1xcqnV3yn+v/1LOJU4Gd4wt6Lk4AZflXOiGlV0u85Wt63QV8DXrvdPWpY07iGn+Gt/bhtDBNZUHRs3aYOCKyqyKIvofO5P4udXQJcsBvzAMdW09Aod39pdNYJXT40BbzmX2o5mVDH03ZAvQ/dhASA0gpgHAH4HFDUaXLQucZBg6Le+1J68mhvcNe2HynkY4EFgj3yJTYDxjgK9b3V22LnALMQ2qYRm/BPv6nbAGE4kF9D9WJhsl22wVdNlexLSzYahjiVZiWrEzv2oCq5QPUGEa8Fju5XbweYPfRa3paySz/lIDOavyIKHu+SExbWoYOuULuZYWuMmQF9q3ew54IedS810bJnIq4Pb23bcR8IeazIiI6WCc0tkVRzAyrZNbadmIrytxamdP/LLmoxhVSwOBX3fmF01gldeTBZS5jGHvgpPSIiQu9HskNcoDZtobcDHynmkCzoLkjmNzvn8sBCyZY4mJvtxj4AuX9xqn+W0SENORuGB7NewInFbVTxyZ1gTOMLRd0ocOxnBlymc01ER+Qd4vNRrPEsCxhqGubU1rmuv0cx+8y+vZ3EtMLG3YOx2swDQuwGlGUmPIFgA9y0BUxbpEdjQMczCdvHdNeoJh4U0DX7i7ci4vnwRWtg36aKu3ag6jNf2gSve2PnRwMdnoBnXNBjzN/+XQ/9gKRy5Wyw+JaVHDUM+P2LTM7VdMYJVVKCCBla1fok511vh/4AOa1EDOAuz0VLFL7iisOVo55/LuNOSlcA+QGqqdnZgWI3E5rttT7Ye4c4hpoyo8TxwOrG1Au10Po4hpwdrdKdMg4DdkOyCq5wbjSNB690Va01fn9AsmsMoq8FIBpToCqzNGpZVInGIgpAaRLdy+joGoqnVoZQfDMNuHouVy7lPca9DLcK0JbwBP5VjiUpVdAWt17WxiOhfjaPRaGA+80aNPOCEtTWKEoeyR+ahlQqSJlYDFDHNV/bAyql7120caPuevjcqpg9cKKNVtdTujndNxKLbUSA+VU+nH5sAjJTy6d4F/AmOBP5NtT38N2VSkR4CXgGkl7YAcbOOareVyLa2Jxw15aTyRY1nNjK/py8mfAttapVX3LH3YlBh69jJ7BucA8xjOHjuMmGqTpB0RHqOJrwDvlPC8Xwf+QTZy9MZK/+MG4K+V69h/gI4SHvdg4Ns227q2CSPTbNeE62N8SvtANYGYppBvomQBAz+3eknbUN6pgwl4BngaeJnAKyTaCJWbYmJeAv1JLEm2jfJKZDsUeR2QhoU3GZ22Yio3AkXtotcB/A24icCjJJ4ihlc7cV3qQxOrkNiUxLZkW9gPKEFUtyWmJYnhdRvYZyyXY1lTWYV/G/LSeCbX0gLLQw1G9Y9Ma9LByBLHeQrZhkjPAs8DbxGYDHwAzE9iEbIXt+sCG1QeesvgceArHB96Nvoqpq8D3yhR//TvwL0EHiTwAh28xlDeYc/QXjne+WlmARJLkViZxLrAJpRjYfPBwDDg0Jp8+ohwPyPTlnTwZ4objTWZ7CXZ7ZXvzZPE8G4n2tk8NLEmiS1IfL1SZ2WYDvld4MxefJ95A/grgbHAMyRepD9v0sZkYpjGmNSXtxnCDJYisSKJLwJbAOtTlumsHXwHOGJW/8kH1/I3vjzXpVrQkM/BlamZcaXbxeVd4E9kIzL+RgwTutjBmYfAlys3nX1wFJ56s2PCe8T01cp36qs5lvwo8Evg+soUoy4+qIQZZNOSngLGMDrNx1T2BY6k2LUN+5C9Bf2Zjesz8pxy9fxHD4kqg+caoq11cDbQt2SxfRW4DLit0iea2sm+UB+ydaJ2AvYl7xGSH3sY+GqX+3KfkQKUIrn4OnAufbiE48N/5nIfe7fSp32ZbITPBZW6WYbAXpURvZ8v8FwOJKaTiOG/Nfn0EeExYtqMLIGU167wHcC1wEUM4XaOCFO60f94H7i/8nMyo9LytPND4CCKHf33BWJalxjKOLK+VqYDVwK/A+4ihtmPjjsoTAfervw8Bvyx8n1bEfg+8ENg3oLP51uMSUdXjvUznUuV1wc5l9efmAYRwweGfhae5gDy3JJ6zp4CRrMgV3FoaOv2p2Q3nluAW4jpJwR2IXFcic5Tc9LE70k82r3+LWsBx+d0nGswIjxVFzGN4QNi2gm4HNitxqU9ROAEWrgRQvUWdj4mvAf8gjFpDP/lx5U1UIrqSO6HCaxZyXN9jmcNd6nkOwIr1eDFVEx7kr2tL4s7Cfyc1bi1W8na7CXAw9lPaiGyOfB/lXtAXsutjGUA21eu3z2sH3YE1iuwPiYCo4CziaFnU9xj+DdwKjGdTjaq5gRgiQLOqT+BH1TOq1b9j+eI6ctkSaxabsDQUUl0nEgMT1b1k4eHl4EjielnwCnAdyhuRM++lHNpiOpf5eFSIPZ42nEMLwDHclI6g2mcTJbMKsqijOdrwPWf/g8msMptcgFlDiH/xFn5ZaOvjinBkfyPwOEkrphjZr17F61pwBXEdBWwJ3BGQZ0EddaI8ATdXU+lNb2b615Y9SSGaVyZ9mIc51c6zNX2DoEf0RIuq+l5ZG+tTiWma4AryKbK5G11TkjLcnx4xYb10cN/P/JNKD5v0Esl7xFYC1e5/Q4CTitJLB8mcAwtoYq7bIZE5B7gnso0yVZg5xo/hN/FYHbiqFCFfn8K5PVyatYeoJlvVhIZ1bwvdwAXEtPVwBhg7wLSBAczJo2e1YiQKp7nvzkxbcZ0biNb5qPanqCJ7zAiPFrTWGWjyfevPFNcRL4vbT70deDwBr+fvAp8nxhuq+qnDgtvAgfQmq4jcWklP1CEXZlFAstF3MutiERSP8M+C+PYheKGlH/oD8BQWsLvq568+nQnIYasrGwYqtT77BnaiXwPOLvKn3wLsEbNk1czf6dfYAibki3Emr92F3meSd/cp2pPMOglko1yn5pjidVub8dQ/K7VbcCxDGWj6iavPmVEeIIYdgU2gppthHALQ9ihOskroJWdyNb0KsIYhrJp1ZNXM39/JhLDPmQjsfK2JONzWFfsuPA/+rMF8EBV78RwCguyQc2TVzPX18008yXgvwXU18rEVPSzWy09CGxQ9eTVJ7WEG2his4LqD2CbSlJ+Jiawys0EVnkcUWDZCWgl8s2er4vQpZvOu8SwP9kQ3Kk2AfU+IRHDYVXqKCdgOJHtC1nU/IgwhYHsBDxUwBXMBNYnTc99seiJBr10JuVY1qCqfdLoNB9wWMGxexnYkBhG57a2WwwPsQTrA8PJkmfVcg2wc7fWHpr99fbIgurlRGI4OMc6GQ6cXMB5HpJLKceGd4CvANVI0E4CtiOGY3q07Eh3DQ/Pk60rmv9OiyHX9UzzdBdD2LJma7J9UrZT5nZka9Tl7XOMZOin/6UJrHIrYgqhCazP3CTThsDGBZXeAexHDLGqa+R0rZNwKU1s60OQeu81IAwHjoJuT7psBw4khhMK+x4DHB0m0Y+vAy/kXPLWxGR/o7j77PuGvHQm1WV7m8oPKG4qCWS7tG5EDI/nXvJBYToxnEAT61Gddcx+D+zZ4zWiPmlUWo1idtFtJYYipi0eD9yac5lbEFM+m3Bk69TuAFzXg095gya2JIY7Cu5HPV45l+m5lpv4SgPeP/7OwConvudmRHiMwN6V59K8n4Q/U4d2KMvNEVjl8KMCyz6cGC4tPAIjwl8rSax3bQ7qlWI4jcBBZMmormgDdieG80txHsPC22SjKvPclW4BYEUbUUH32ZBrskSdk2ed9K/Kp4xJfSl29NUdwNbd2qm1uv2hpxjIhmS71XbXhQxl38ri8dXTzgEFROS32UvWQu7LHcC3gH/lWGoT2ZpoeZ3jVGB3st01u+pfNLMpI8I/StKP+huQd1tZv8HuHW8Bu3J0yP++3hL+DJxawDlvNasvocqriG2vbRMzXWzTAMhhvvusnUsMZ5cmFiPCg5VYTLdhqFdqCb8Bvt2F70Ai8ANiuLZc17XwAB9uUZ6ftW1AH3EEluovgTWevYClCorXX4FvVB7mi3d0mERkd+BYuj4i4VwiB1R9qt3ZqT/Zrq95epYh/LDg+9kEQu6Ju91yPscZRPYFzurCX02gme0q0/fKYwlOJd+NLJblpLQQjSLwXWJ4tbDyh9BKvgljmMUGRCYrym1Q7iU20WbYZ7IdMG8B5T7OEI4qXTRi+AvwU5uFeq1sg4NdgbkP3Q600BIuKeV59GEk+Saj17HxfKQj99pW2fTNsaxqJUqK2s3raWCHyuL3ZXqSTMQwGvgO0NmRVKcR+VFNppK/w87ku9NbB/C9XKcxzU62kP9NOZa4Rf5JkZCIHA6c0olfbqOJXRkeni3dlS/bwXFUrmVOr8lujkX4Iy3hpkKPIPu+H5tzqZ8jpoVnTleozPJPYAWmGfaZ7FZAmW3AXqXoFMz6Af5MejYfX6pvMdxItj3znEZR/I6WMKq053B8eA24IccS17bhfCTf+2wq5CWM5izPOun5i8mYVmUWb8FzMIlsCnZ51+DMlnnYhbm/1DiFGI6q2TqIiT1zPvOzKlPCyuKndD6R2FN9mFbE4uAhEcMxBIbNsSXAAYwI95b2O7MgV5FNhbP/0ZV+Qx9+UoojGcpV5L+W6kxJSBNY5WYCq0jZcOwdCyj5VGJ4ptSx6cshuB6WerMY7qGJLWfTCXuKvHYq6plrcixrZRtNRXPOI52DCawSynMh9GlVaEN7FRSn/YhhXB3cDz58qTF5NvE7hhiOqXF/Nc/FqicCI0tWB+OAa3MscbPCzrUlnFzpY8xqNO85pVg7d06ynRBvzq281BD9j0s5PrxSiiPJpj+fk3M/5guf/EcTWOWWfwJrhusbfWQCWwLz5VzqqwzhpNLH5rgwnsAIG4l6tWxh1C2B8Z/4t23A3qVZq2VO+nB3jqUt5U6EFe05J7AcgVVG8+RYVlsV2tCeBcTo8tKtHzgnMdxDtrh320yRg8NpCafUtOx32Ix8R/X9ihjeLWEt5Lm245cLbm+/5rPTV59mCMfUyTcmz/7HMnV/x2jmtFIdT1+uIL8Rj5BY7ZP/aGey3PJPYA10t6JPKGIr4lNKO3Xw0xbn1+S/kJ9UtoeWJ2nmy5/4Lgwjhifr4tizaYR5PYT0oy+L2WCA/ryXa3mOwCqZFHJONvSsvcU0FBiac5Deoh8/rsP7wR3A98hGxnQQOKiy7EKtH+52yPEsp9K3S4uJ52cJ7szxnrYaMS1acHu7lMDuZEnT6TSxb908QzTxVI6l1XsC6yGGh6dLdUTHhf8BeU5TXWrm5qMyyzuBNYOj3a3oEzbKubzxwPl1E51sIcaTbSbq9YaHF8nexv4aOLPOjv6/uZXU3gBvQavhWN4l3zeXnzPoJXIiiwPNuZUXerzWzO6FRGlYeLMu6zeGywn8GPhOZefaPGyf4xn+gePC+BL3S+/J7ZsV2KTwc24J1wE7EDi6Miq8PnSQZxtaus7vGr8v6XHdlWNZS37yH9yZptzynr72bs0Wl6w3V6ZmxrFhzqVeWBfTjmZ2MVkSa0EbjXq1bFvjQ+rwyPMbddthIqXy3JMgvQMsklOBqxjzEpnBqjmX2NME1lY5H+9rDGFMXddxS8hvfZiYlgFWyO/yxdXlvrzyMImdcykrsR75riU5u/7HHcAddfUdGcAk8nvimY+Y5iGGeh2kcWMpj6qJe3PcU/lzMxetkj4MpX7kux0uwNsGvmIca0LO0y6auaQOH9qnApfZYKS61Z7jg0Vfw121pEJXrGq4SyTlnFBMPejbxdQHWD/X4w2cXDfToMogsF6Opb3HAqVPlOS56P8aNsBut9uOXMvrX7f9j38TwwulPLIOHiNb5y8PCxHTgA//wRFY5bU4EHIu813D/pG8R189yPDwbF1Gqonf0sGPbDJSlZyaBjOZJWhiMToYCAwi0J9EX7LFnycSmE7iPZpoo4P36MdrDAu+hKgfr8LMi5LW0Ofq/O1zo8k3gdXEf3rwt1+gg8E5Hu37pDp8mVeklGuC8Q4mM4iT06DSxqMt1zUG12y49nRSWohpLAYsWskTDCHQTGIg0I/Ae8A0EpNpYjKBdxnMv0w618y9pT2yGN4npn8By+dQWqAPi0B2PzOBVd6kwOdyzk0DvG7gP5L3lqs3122kRvBPIq+B04Okzt/40/zAWgRWq+yuMrTSCViCyZUHxo6ZHlI+/dDCTL8zDYhpMvAK8G/gRQKPkngUeJIYphn0Unk5x7JC5Z72iGEvhXwTWH16sNlK4ks5x+YyYphoE+mSDXIsazfa2M2Qf2R5TknzcnSorw2wTkhLM4PVCaxOYtVK/2MZYFGm0W8W14FZ//8P+x8TgZjeqvQ9/gM8DTwKPELkRZen6ZHHS358/yKfBBbMYODHtzWVU2LFAkp9xcB/4qaUpyZuqd9QhQTpFuAAm400GyemxZjO5mSLvW8OrA40VXnw9eBKR3Topzqa04npSeBBAneQuJsYJlgphcr7frshJrDK0LkL5Dsl7/0eLYaect/M5nLbSJfb07rGobgOMG0MBR4s9VHGtCqBzUmV/seMyo5u1e1/LFz5WRf4xsdlMxHSP4H7CNzBAvyNQ0ObTafTLeypkh9hfoNfmkxg1cE9iZUKKPU/Bv4jy+VY1gesWucPFoG7SCawpE91GpcisBuJ3ZjOJhS37mRfYB1gHRIHAx3E9AjZoq+LWFGFeCnn8rYi2yVTRRrJWnTk+p3r6Ui/L+R4rG8zlLE2ki44gaWYwUIGotDnteUoYwIrpnXJdhDdDViZ4sZADQE2AzYjMYwJfEBM9zHF73on29eLJT/CPNfzdA2sOpB/AiuYwPqEz+dY1mPsGdrrOlpNPEK7jUaqLHq8K/BD4Muk3Ncy7Nw3NhsFsr4VVlgNPJXzMgFbEVMTMXQY/AJ1sHXOJT7ZgyenQL4v826p+75Q3mbkPFtAs0owlGf5jJPTArTxfeAgKGQmT2cMArat/Gjuyr68z9QcyzKBVQe+kHuJoQfrJDTWA+j8wPw5lvhY3cesneeBSeS9c6NUro7jIcAhUBmeL83OYjzDeKbBLNYbqY2FaGLNhrjf1Letcu7XPdHtvz2RRZme4wLugXtsHl22jCEoXPEJrFFpFdo5nDa+DbluuqDamlQHm6/kl8Dq+HgKYZNto4Rimoe8F/mERAfPGnygmcVyLvHF+m+zoQN4zsajXni97kdMB9LGs8CJmLxSZxwUppMtdJvnXX4rA1+gMakv2VSaPHV/BNb0nEf3BB62kXSZCaziFXfPj2lJYhpDO0+SjboyedVY6mFzgDxHdTd95v+oRJpYp4C6edWdXyrac74BNM7UTaegqneJ6ZvA88AYXEtKXZfvaKjEnoa8QP9lO/IepdzMP3vw18vleKRTWIxxNpIuW9oQFG7JAvoeA4hpVKX/cSDOqGpUUw3BrJnAKqPEpgWU+pSB/8ignOv7tQaJ26s2HfUKMS1KTH8CLsM34Oq++3MubyNiWtWwF9a32y/nEl/j+NCTF0vL5XisL1ZGJaprljUEhRuSc//jwx1lj8/9eUV5c7fG2TCBVc5OzpYFlOqbrw+FnEdgNfFOg0TubRuPGl5Mu5Ml/HcxGOrhtb+IXZi+ZeALMDrNB2yfc6l/7eHfz5fjsb5iI+mWhQ1B4fJJIsXUh5hOAMYCqxn2XsFNV2bbfVLZHo76AV8qoGQXdv1Qyn0KYWMMEQ1MsfGogS8MgZgicKUPDapS1/QpyP0Fxr7EZN8vb23sDR8vQJuTniZI8+wLmcDqnoGGoBfUwSlpXuBa4DicLiiZwCqhrShiEb7m3KcylFfIuUPQKAmsZAJLDers1J/IJUALEAyIqiLb/CLvUVjLEtja4Od+f/xeAaX+pYd/n9/0pMAbNpJuMYFVvNp+T0al5ZnCA+Q/glMqLRNY5bNzAWW+zXBeMPQfdTTbcy0vNMgQ0ZBz3KQ8nJEGMoHbcOqVauPPBdzjjjHsOYppG2DDnEsdT+SJUj+Yz9wmfQHWPSawile770lMK9PO/cBQwyx9zARWmVyZmoGdCij5QQjJCvjIB7mWNp3+3sSlkl6TJ3IpsJnBUE00c1MBpW5FTJsa/NwcV0CZN1ehX5fnPf0Dm4n9rjpVm5e3MS1J9oJjMUMszcwEVpk8zbbAErmXG/ibwS+0IzWgIaKWfBOoRpIC4zgf2NVYqGaGh5fJtkLP27EGPwcj08bAFgWUfGud9U2m2Vh6cf+xvlV/9ODJaQGy5NVyhlf6LBNY5UoA7F9IuYE7DP5MPsj5Wzhvg8RtPpuOGkYr/wd810AoB9cWUObXiGldQ19jHYwo5IF6YFWmpua3PmdomJHo+bcwFa36Caw2xgBrGFppdo/OKocT0xIUM31wAqvysBUwk3wTWB0FjLqrjaVtOmoIo9JqJH5mIJRTT+yKAkoNwFmQ3JSgVmLaFtiugJJv5ugwqQqfMzm3I3YEd330VzUr1U1gxXQAsIdhlebUbVI5TOcwKOQN1J3sGVx8e2bv5vwY0SgJrKVsOmqAh85+tHMpri2ivIwI/6CYaYSbEtnXCqiBs1N/4JxCyg5VS4hOzvGoB9tousUEVvGql8CKaUXg54ZUmjMTWGUwOs0HHFxQ6bdZAZ+yBK8BM3IrL7F8g0RuRRuP6l7gIMCpVcrblQWVe2plvRVV0wSOBVYuoOT3GcTNVfqsPBNYi9tousUEVvGqOdX2dGAeQyrNmQmsclz6jqaY9YPageutgE85KEwHXsuxxDXrPmYnpGWBRWw8qmunpsEkhhkIFeBCilnPZlHaOMHwV9GotAJwdEGlX8FRoVqJpzwTWMvacLrFBFbxqjMCK6YNgR0NpzR3JrCKlm2TelhBpd9DDG9YCbP0rxzLWqvuo9XuiBU1xKPAj3EkgArpC4SXgHsKKv3gynpN6nmfrg/tXERxu8OdX8XPejfH4zaB1T2TDUHhqjWFcDTZ2oSS5sIEVvFOp7i1Vq42/LP1rxzLWoqYlqvraCW2tMmorp2d+pP4sYFQgX5TYF/wksoLNfXMicAmBZX9JDE8UKf9oBU4I7mQe9eNNwSF63kCa2T6ItiPljqrjyEoUGvansTeBZU+A/iTlTAbgRdJuZa3NXBBHUfsazYa1bV32AlY2ECoMAtyDRMYD4Vs7LEocDlXpq3d2KVHfbqjCuy3/LKqn9fEizlOau3L+6wFPGhD6pJXcirnPVwzd3bfu7E9/owOvmcgpc4zgVWUk9JCTOPXBR7BzU4fnIPEP3Iu76vUawJrVFqNdhdwV91/5/cv3RHBq8AbZNNEJgPvk+3WNU/lfxcAhmDirTEcGtqI6Rdko3iKsDnjiMBwK6OLTkhLM4OLKG4K0FskLqrqJ3bwYq5n0MEGmMDqmsArOb1sbSOGPQ14DcQ0CAobzDA704GXgUlkU4k/IFusfv5P9EHmIVtywR2blTsTWMU8lwSmcQGwVIEH8RvrYY4eqDxA5tUZ3YGY5ieGd+suUu2+OVKdOzEtwXSKXgPoXeBm4HbgSeAZYni/kx3g+YEVCaxEYiVgVWAjaJgdTnuP/vyKNo6luJ2ojqM1vURL+K2V0ekH0CHM4HpgoQKP4lxiqO6C3jFMJKa3czyvrYBf2KC65F85lbMoMQ0hhomGvMoCu5AYUoJ2dC0wlmaeYlFeqGxo1Znr35I0sRKJFSv9j9WBLwELWrmqFRNYRWjleBLfKPAIXmUot1gRc+y4TSCm58lvG+yBwO5UdwHWPDru/YD9bDCai3KvtziDbYDmgkq/CzgVuIsYpnXzevUu8HDl52NZYm5jsjV5NgHWL/A81RnHhneI6ULg0MIepxJjiOl/xHCzFTLXe+AA4AZg7QKP4gOo8vTBj71Ifgmsr3B26s+hoc2G1elv679yW+6iidWB+w16laXCXp5NB35LE79mRHi0B89LrwOvA/d+4qQCo1iV9o/6H18GVrKyVS0msPLv7OxHorXgo7jANS465QFyTULtAAAo80lEQVTyS2AB/BDSBRBS3UQosC+JRW0qmqMOyr04b2KLAkp9DDiSGO6oWQnHhfFkax1m6x2elBZhOl8nsSOwLTCvjbOE+jKa6RxAcVMz+gJXE9O2xHCfFTIbV6ZmxnEpsFnBR3JuDZeEeBTYMKfzmId32AL4s42r0/fWl4F28ngx0cEmmMCqhSIWb7+aZoYxPDxfo4eDxHCeBp4GLgRgVFqFdnYEdgA2xZdp6gF3IcxTa/oG2QibIrdJnUQ/zrEyOiXvG/XatLJT3UQn27XNtVLUmTtN2XeXyrsDeR4L8sWaJq9mZVh4k5ZwETHszoIsAuxj4yyhLPE4puCjGAhcy8i0jhUyC1ny6jfAbgUfyfv049SafXo1FqjuisS+Nq4uyKaNjsuptM0MeLXrL60ILJ1jidOB/Ylhj9olr2ZjeHiWGE4jhi3INg3xWVQ9eKxQXhep3UlcRfZms0jnMCy8bYV0Qh9uAvIdDZWIXJnq463EBA4BlrWhqBPturyLfMa0JPmuFfVLIgcXPk0mK/9vNs7SGk22cH+RFqKDe4hpC6tjpmvGAMZxFZRi44ezGRberOG1e2zO57M7J6VFbGRdktfC99twahpsuKsosEmOpXUQ2IcYflf8NTRMAB63Aai7TGDl09k5ELic4pNX79OPM62QTjo+/IdPrylTe2szjh+VPjYnpGWBkTaSOpZyTc6WeZeaPKcJ/x04rK6mCauoDv4bhBqOrOm8IcCtxOQOZFl/bh7gemCXEhzNG1DjNhLDS2Tr2+SlP9P4TgO1lzUYlVapcSl5JbAG8gFf9yJQ1X5Ynv2P02gJfzToagQmsGp74xpATOeRTQXoW4Ij+nlN39Q1osA1BZQ6ipiWK/EdNzCD83D9nHo3LceyFizxdzzPhUWPIIYZNj118uHmVODfJTiS/sDlxPR/vbo+TkifA8YCXynJEQ3PaefivEdh/bSSKKz39rI0cDPt/IWY1qrhk9yDuZ1T4qAGekbrQ2vavuCjyKv/8RaDfemsxmECq3YXxqFkayj9oCRH9BrwMyumy9+QqwsodR7gGs5I5Vw3KDIcCts1RdVr29NzKyuxQomTBHl1IB93QWx17VobPgCOLsnRNAPnEtPFDZFc6Hqfbitm8DCwVkmO6J8M5YKcyror53NbBKjvZOmJaTFmcBfZ+kaLAncxMq1Xk7JWZRwwKacz24qY1qj773O2VMfFJG6kNR1V4JHk1f+4iKPCZKSGeYRRtTs5g4hpJPAPit1WeWaB44jhfSuoi7JFDp8ooOS1mci5JWzfXwdabBgNoIM812Aq8/bJea3jdpuNTl2/5nIFcE+Jjmhf4KGGeIjt3D2vDzGdBNwOLF6aqzf8KMfdpP8E5D1y9GhOTIvVZZsZneZjOrcCK37i3y5EB3cS05eqXl7WDm7P7WmCwndS76EUGMcv+XATk8TPiGm0/Q+pfpjAqm5HZ0/gGWA4MKBER/Z3EpdYQd2+Xf+qoJL3J6ZfQQqliMPItAlwhdeNhpHnFMIVSxyHfKbCBl6yyakbDSfRzIHAlBId1GpkSawDS3N/qk2fbjmy0UfHluy+NybX0ZwxvAHcnfM5Lsh0zq7DNjMPU7mRWb/Ang/4M62pFrve5rncxS41ScTlIgUi5wIHfuo/HF1QEiuv0az2P9RQfBCtzg1rC2K6t/Jwv3TJjm4GcDAxdFhR3b3fcQnwbkGlH0zk3MJ3JhyZvkwHt+Z4s1WtNef6QLwyZ6f+JY1EXm36vzY6dcvw8DyBUSU7qoHAGCIPEdP6DRXvMakvrekwstHXXy7Z0Y0HhuVeauCKAs51T1rTLnXTbmLKNjyATed4v0ncREzbVbXsAdxAfi+lAnABMQ2oq+91TE1EfgMcMpvfOJqYfkVM+TwbZ32ivNZHtv+hhmICq9tSoDXtSEx/I3sztVlJD/QUYnjE+urJTS+8D1xY4BEcwjjuLGxr6da0Dx38GZNXjaWdt3MsbQAT2Likkchnh8SU65RNNVyXg1PJliYom/WB+4npDE5J9b+xR0zbMJ4nSJxZwnteAg7MaeH2mfXjT+Q7avfDM76IUWm10reb0SkbXQWbdOK3BwLXEdOuVSv/mPAe+Y6SWxU4oY6+132AS4Dvz+U3DwbG5JLEmsDgHK8b05AaiAmsrl8EF6Q1/ZDIEySuh9I+lAE8zYKle2tbr84lW3eiKJszjQdpTVvn2NaHENOvSFxe6XCpoa5l4d2cOzU7lzQSebXtJW106sH3dQbNfAso40K8fYDDmcKztKbDiGlQ3cV3ZNqAmK4jW0tolZIe5a+J4cZCSj42vAPcVEDJ89LOVaVOjp6cFmAqtwMbdeGv+gF/IKa9q3Yc+e+afURVj79Wsg2RrgS+2cm/OAC4uJL0quVVM6++R6APS3gTVSMxgdUZY1JfYtqJmP4IjCfxC2D1kh/1NJr4DocG3/pX5+HhpcoNsEjLk7idmC6obOddIykQ0+7AU2Rvo9S43syxrG+W9MG2Lbfvb/nSDsGvQB0ZHp4l8JMSH+ESlZFLrxBTJKb5Sx/TkWkTYrqBDh4EdirxkT4NHFl0KqCgcldnCteWchr6qLQ8bYwFNujGX/cFLiWm71XlWPpxJfBBjmcfgAsZmb5c2m9NTEsykXuBrk5F/RZZgrFfzY5tRo6jsmeUsP8R7H+o+0xgzf6ityitaV9iupzxjAeuA3Yle2tSfoFjGBH+bkVWUTPDcnzYnVOH4XvM4AViOouYVq7aJ5+d+hPT3kT+CVwFLGWlN7w8E1iLEDishDHIq8O/a6nOOqYFmcFv/QrUmZYwhmxXuDJbmGy32peI6TRGpjVL1vbnIab9iOkvdHAfsEPl3lpWU2hiH2L4oNi4hfuA+wsqfSsm8Ieaj4rpipFpA9q5n2xTg+73LOF8Yjq0x8eTjZLLe8OmgXRwMzFtWsLnuHWBh+hechFgN+BPNVvra0iuo2l3LlndrE1iuDd0dZcJrI+/TEtWRlmdSEwPkY20uphsm9WF6uxsrqeFM63UKhseXiabSlgGA4BDgWeJ6X5a00+Iad0uL/aeJWp3IaYLmMB/gd8Da1nZvcaruZaWaGFk2qBkMXg/p3JWJaaNSnHGMQ2tdOy39CtQl74DjKuD41wA+AkdPE5MT9GajiamxQtq803EtCkxjQFeBy6ifAu0z1rgh4wIj5XkaE4rsOydgSsqU8KK1Zp2oYN7gMWqUsNwJq2pGqMrf0G25lGe5gH+XBm5Xw6taQ/gr0BPZytsD9zAqan661UdwVSgPaeI7F2aEfAx7QmMpXybnqmO9Ol1ZxzTPGRbuq9IYBUS65Nl5z/XIGf4IrA/hGTzroH+nEAb3wUWLNFRbUSqrL0wjneJ6VngeeAVApNITCLbjXIIWeJrCeDzH30PbCm92XO5f4M6uI3WtB8t4YaSxGBCjmWdS0xfJIYZhT3EZ4nvk3Bduzrux4T3GZV2pZ2HKtf1ejCUxGjgRGL6JzCWwH0k/kwME2vU3j8PbEO2K9zW1Oc6dL+kJZRppOS1lf7FSgWVvysTuYsT084cF/6Xe+lnp/5M4BQSh1LdUXuBxGnENJAYTujBteFJYrob2CrnyAwCriSmE1mCkRwUphd0jxsEnEHioCp+6jZM5lZi2r6616qQIL1DNmK11hYDRlLkNOTRaT6mcibwXW/i6qkiE1gDOTkt0ONPaWNeoA/N9CUxDx0MJrAQsCiJRSoXhoWAZSs33I/f/jXeg/sEmtme4WGCTbtGjg3v0JpGVtb5KKP5gS9WfjA5pbl0mZ8roI3MT+J6YroJOJOh3M2eob3AKLyUY1nrAicCR+d+liPTOnRwJuXdMVddMTw8S2v6Lomrqa/R9M3AesB6lSTAtMqo9yeBZ4FnaOZZ2nmFGDq3cUpMQ2hiFTpYhWx3tFXIFtSu92nw9wGHl+qIYuggphPIRrAVZSOm8zgxHUQM1+aYHFmZCfwBWKeGpYwipkHEMKwH9/WzSbknsLKS4XjGsz0j0/cZER7Nt22mHYCfk72crbZNgds5OW1XmapZzf7HwjlF6Me0pttpCX/Ot1mkQCu7M5XTcdSVqqTIBNZRtHFU1T7tk48/vfOhfTqBPRkenrVZ1/pazDlkC0JubjBU5235+QJL3x7YnnG89dEDbOBJAs8RmEg7U+jPe7QxmYH0p4M+zGB+oA+JIUA/OhhM9uYXYri+m13uF3O+Z/yUmKYSQ0tuD13QSgd7gYumNpSWcA2t6aekQqd19VS/ysPhpp/qz00lpknAJOBdsqm+U8gSYPORTVuaB5gXmL/QPYJr43n6sTPDwrTSHVnkEiKH0LVd96ptUeAaYvoDcFxlo51aXUMXBoYBh5CNYq+1Y7MkFod3azZFC9cTeQjYsKC6WYcOHiam3wORGF6oYd00EfgqiZ+QjbKspQ1p425OSl9hWKjW+qEv5lhPzSSuyZbLCXfk1P/YFjixMttJqpo+hqAhtAPfpSXcaSjyuCCHDkal/Wnnn9TP9A3ps/ryFNMLP4qFga8DXycx8wuID7dMmDLXz3gD6G4C64UCXnqMIKZ1gEOJ4V9V//QrUzNPswOJQ4Cv4HqXjaslnE5MywI/arAzG1D5WaQX1urbwA4MC2+X8/BCoikdSgcPlODasjewGzFdSBPnMCI8VbVPHpWWp539gcMK6OsdRmQgpEM6PRJx5vo5kg7+UmC9NJHt5LcPMd1K4LzKdOGp1emHp+UI7ELi/0g1GXE1O19gGvcS0zbE8HoVPu+FnOtlIHAzMZ0BjKzJxhDZVMF9yXYxX92btGrBBFb9S8D/EcPlhiJHw8PLtKYjSJxvMFS3jgv/I6aXyNZE650G8giTmU62pXmedgS2JqYxNHFBjx+8Tk4LMI1tSOzAOL7WSx/8e6ehHM44liTbNUv17X1gB2J4rtRHOSL8nZh+C3y/BEfTFziIDg4ipr8T+D2Bu+jgiS4lf65MzYxjFQJbk9iHdjai2FGrBwIDuTLt3+Vp9iPCX4npWorffa6J7OXU14HJxHQngXtI/AP4Z6fWlIqpD82sQDurky2PsT2weoGzbVYD7iWmrYnh3z38rAcK+r4cTbaw+9nApcTwRo8+MUsofo3EjkxlS/IZqahezARWffsweXWeoShAS7iAmHYEvmEwVMfG0psTWEeFycT0MLBxAaUPAg6ng8Mrx3Af8A+aeIwO3mYw73FUmFzpIPajP4NpZx46WIbEMsAyJNYG1qONFXGKYO+0Z2hnTNqH8VxTebhTfZpCYCdawgN1crzDyJKm85fomDYgsUElufE2MT1Otuj8i2RTUScSaCcxkMACZGsyLgKszTjWBgaXbBmSfRnHAMakb3V5YfRmjqGd7cn/5czsDAZ2IrHTJxIfE4DXgP8BH5CNuw6VNjWEbIrwCrTTr2Rtf0XgL4xKWzM8vNjtTxnAWKbSTjY1Om/LAqcDo4npTrKdif8BPEM/3mEeJnJoaKvU0yD60582FiGwNImlgRXI1vVcD1jMNXeVJxNY9Wsage/REi4zFIXar5IAWMNQqC4FxpLYt5dH4V6KSWB90vqVHz5az2cyEFPiw8RUm81Vs3FQmM4ZaQ8mcjOwhQGpyz7dHrSEu+vmiGN4g9Z0MIk/lPQIFwK2rPx8LH3qf8tvD/7LTXR14fzh4dnKCJuflPjcFqz8rFmH39llaecvjErbMDw83a1POCa8V9mVdb0Cz6MvsF3l58OrUbY/86z6HyaqVAKui1Gf3q+8pTN5VXwHbiLZVKA3DIbq9C5wlzHo5vpZ+XBUlTrniDCFbATWbQajrrQBe9ESbqq7I28JVwAXWoU1dTercWk3//Z4YJwhrJklaeeMHt7hb7D/IXW126568zJNfCn/bVA1WzH8iyZ2xfERqkfDw/PA4706BiPC/YA7uKoR7kcfkL1UucZg1IXJZGteXVu3ZzCYQ4FnrMqa+B99+VaX18D6+HowFdgXSrBdS2N6qRLf7ktchOOapC4xgVVfbgLWZ0R4wlCU7gF4LIHvQwNu5q3e4I+9PgIBR7SqMcQwjSXYC3Bzl3J7G9gmty3ta+WoMJkmvokv8aqtjSZ247gwvofXg0eAkYaz6ibRxM7E8FYP6+dfZOtfSuokE1j1YQaBYUR2JIYJhqOksimdvulSPbq610egD+cDU2wKaggHhelEvg20GoxSeolmNiHWzYLtczYiPAocjCNJqulARoSxVfqs0ZgkqaZ2AvtUbUBB4BxDKnWeCazye4UmtqIlnAzBjkHZxXA5sKsPwqqzdjsOuLtXxyB7y/1rG4MaR0jEEAkcgC9WyuRvwBcZHhpr2nIMvwOi1VsVJxPDxVWsmxn0Y2fgBUPbY4nAQVVds66Fq4HHDK3UOSawyu0iYC1GhL8airrqxN1IE18DJhoM1c+zLqf3+hj042TgfRuDGkpLuADYChhvMAp3CUPYpsfTjsrb/xkJ/NJq7mHfP3Jc1T91WHibZnYC3jXEPXJM5ZpazQ5YIjDK0EqdYwKrnF4nsCsxfLeyy53qzYhwL9nWzS8bDNXHQy43A0/36hgMC28SXCtEDSiG+4D1yUb/KH9twA+IYb/KbpGNayiHAtdZ5d3yJ+CAms24GB6eBvYCZhjqbhlJDD+rUR/sT8CthliaOxNY5dIO/IKBrEpLcAeh+n9geARYG9cXUl0IicDhvT4MidNxrRA15j3pdbIXK6fjWkV5epYmNiaG83vF2e4Z2hnMt4Dbrfou+SNLsDcxzKjxdeA24BDcdKiLXSSOJ4aWmvbB+nAAjpCT5soEVnncSxPrEcOPODpMMhwN88AwkcieBH4MTDMgKrWW8Gd6+5vzGDqAH5Btby81WvueRgxHAtsArxmQmruEbPfoR3vVWR8VJgM7AH+wCXTK5cDeHBSm53QdOB/4Do7E6owOAkfQEk6seUnHh9cIHGnIpTkzgVW854A9iGELRgQX8GtIIdESzgK+DDRiJzYbOajG0IfDgPd6+UP+MwT2qrRtqRHb+F304wvAFQajJsYT2JkY9iOG93tpG5sGfAvXxJqbs4F9az7y6rP1cymwC246NCdtBL5NS/h5biVm62uda+il2TOBVZxXgYOA1YnBKWa9ozP3EEPZgMChNM4Q4VdpYmvIcfHJZFKhpo4PrwB70tuTN9kOQ8NsEGpYw8LbxLA3sD3wbwNSpTsUXEI/1qQluA5UDB3E8EOgFaetftoM4IfEcFhl5G8R9XMjge0BZ3581hs08RVawu9zL3kohwE3WgXSrJnAyt/zwEEsyIrEcF7ub1xUrD1DOy3hHPqyKnAx9bsGQQdwHvAFRoR76UvIsewPbEg179TeBhxvHMLPgDMa/GH7tzb4Xt/ObwbWJBsJYp+k+54CtiKG/RgW3jYcM7WxSGAP3J35Q28T+DoxFD86rSXcTRObAM9aLR+5H1ivsF3g9wztZKMXG3nTjYm4RrC6yQRWfv4G7AGsSgzncWhoMyS92HHhf8TwHWA14ALqa32s+2liQ2I4iBgmADCd/jmWbwIrnweO0QSOobe/NY/hJ5U4NJr3Kg+UJipVWa8xHEYzawA3GZAueaeyzuXaxHCP4ZiNlvBH+rAW8PdeHomHaGYDWkJ5FrkfEZ4g26X08l5eNwn4ObAFMbxa+DUZvgLc1oBx/ifNrE9wlJm6xwRWbb1PNkplHWLYhBiuLmyYsMr60PAcMRxAHz5PtjNUmYdx3wt8jcgmjAj/mOm/NDMwx6uW6zXk98BxCnAgvX1URks4hcARNM60yvuBtWgJf7SRaybDw7PEsAOBHYB/GpA5+qBy316RlnCWI+o74fjwCkPYHDi/F579DOAkYBOGh5dL2B99nxi+Rba4e298UfhfYAdiOKKyflsZ6uQDFmQnoFHu1Qn4NbAxw8PzXhDV/UdBVVsb2bzl7zCQJSujVOwEam6duteI4UiGsBiwF3BtpS0VbRJwEbAxMWxBDLdCSLO4JQ3K+aFB+XWgzqeJ9WnMDQg6L1vEdSvqe+e2KQSOYShfJgbXPNKc2vtNRNYlsFOv/+5/1jSyl5MrEcORH41EVuccEaYQww/IFhD/Ty8568cr/ajjSp/ojOFi4ItkLy17gw6ypMpqlenU5XJoaCOG3cnWTa7n2TuvANsRwyHEMNULoXrCBFZ1tANjgYMYwGLEsCMxXMzRwUUR1Z2O3ZXEsAuwOIHvkc0R/2+OR/EecC2BbwOLE8N3ieGBOf5FYtHcji6YwMpdtkPqRmQL8U7utXGI4S/0Yx3ghjo8+r+Qjbo6pbK+hjS3i22iJdwArE9g10o/pzd7FzgFWL7ycvJ120iPrqfXAkPJ1hls1NFrkwgcwxKsTwwP11HdPElkSwLfpL5f2szNP8gSi4cQw7slr5PzgE2pv7XKEnAuA1mzsr6q1GN9DEG3vQTcA9xNP25xwU7V4Gb1LtkCy9kiyzGtXLl5fRlYC1gBmK8KN5aXgMcIPELiToby92484C6VW1za8btWTHucBkROSucwjR8BPwIW7HVxGBbeBHaiNe1I4hfAMiU/4v8AJwDnO4Vd3fzudwDXANcQ00bA4cDOQL9eEoHngV8ykAt8MVn1tvU+8BNiugT4JbBxg5xZO3AhfRnOceF/9XkKIdHC74npBmA4cCgwoEHq50UCw0lcUVf3xRgeZkxak/9yBIlYB/VxP3AkMTTyYvQqgAmszhsP3AfcQTO3l3L+uhq9o/cc8Bxw4cf/Li1MEyvQwQpkSaRBwEBg/sr/DiB7szmJbNrDO2SjuV6lidfoz3NV6pDnlcCaTAxv2RgKlCXrI6ek05nKriT2BrbpdfeTlnADp6R7mMIw4P8B85TsCCcAJ7Mg57hpiKp4H3oA2IuT0wK0sUel7a/ZgGfaBlwPnEfkzllOnVc129U/gS8R06ZkI323qtMzmQ78ATiJGJ5pkLp5HziaE9MZTOf/Af9H/b68eprA6SzOxRwUptflGWTHfQox/RE4GdiV8s2oGkfgmMoIXqnqTGB91hRgHPAkgaeAx2nmSY4PrxkalbBj8RbwFvBgoceRcnuAecVKL4ks8XkRcBExLQzsAGxGNkpwpV4Ug2M5KZ3BNI6qdOwHF3xUrwBnOlpENXVseIdsHajzGJlWp4M9gG+TjQyuV+3AAwSuInGZL0sK6dPcB2xNTFuQjfqpl0TWBOB3wDnE8K+GrJtsJNlwTk2jmcz3gR8Dy9fBkXcAtwO/IHJTwySjY3gB2IOY1gJayEbFFp3IGgucBlxPiyO+VTu9MYH1DtloqvHA68B4Aq+T+A/NPMEqvOT6IFKXrZvjw7nK15F6q9J5/x0AJ6YlmMG6JFYDVgFWBT4PLAL0bbjzz6YV/pTR6UTa+DaJHwBfyPnB+y6y0ZlXuxuacjUiPAU8BamVyBeB7YHtKveFsq+1+hZwO4FbSNzkguyluafcA9zDyPQFOtgX2AdYsmRH2QH8lcBvmZcrOSL0jh2SjwqTgbOJ6Rc0sUkleb1bCevnGQJ/IPHbht60JIbHgd2I6fPAAcD+wOI5HsEkso2nfjnX9XKlKunzif/3BDM4qK7PJjCJbLrU+ySmAx/QRBsdTKEPkxnEG73mBlOO+riZxJs5lfZPA16Qk9JCTGO5nEqrbSekD88wnR/YZnvouDAeuKny86nOVloQWJQmFqGD/gTmrdyL+pCY91PXkMlkU18ziUmV6/pkOngP+ID+TKGNcrxRPSa8B5wLnEtM6wI7kY1MWxcIVS5tOvAA2SYPVxJDdzd6+C/9c5oO0lb1DQAegZy+r6HgUa71cdNPRB6otMvhxLQo2fTiTchGZq5B8Qmtt4G/AffRxL2sysO+tCyxbAORx7gyHc3TbEVi38o1dYGCjmgaMJbANfTh6sq9rnfK1o76K/BXYvpx5Tu+G7B55bveXEDdPAjcSjPXMDw83cvq4yVgGGNSC+PZGtiR7GXCsjUobSJwB4E/MC83dvvZOvF7+nN9LvE5lner2B84jJTDy9jAO3XQ8m4kr43G+vDEx6GRVHsj0zoE3m3ItdNa0z4kLs/pIfIYWsIpNijVV8cyLU5gYxLrA+tXOvdLdOEenMgWY38O+DtwD4MZW3kTLtXL92AI2Y6Ga5JYg2yU4kpkazZW2wyyFx5PAU8QeJzEY0SedT2rum9HTTTxBTrYHNiSbGObWiW03gcerVx372Qw93rd7YRT0rxMZSPgSyQ2BlYnG6FVzQT2K8AjBB4l8SBwHzG4S/WnjUqr0cGGn+h/rEzX1jCbTrbZ09ME/kbgHlblERP/KpIJLKn2na31gVuBV4EvNdwNNqbLgG/mdMXalpZwu41KDfC96Ue2+cFSBBYg29FtfhIBmFp5cJpIE2/SwfN2zNWwTk4LMJ3lSCxHYgkCC5FYCFgI6E+2OUn/T/3Ve2RTuN4hmwb4NoG3gX+TeBl41am0veZa2kQzK9DOSgRWIrESsCKwHDBvpf3MP5u/bgferPy8QZYUeZ7A8ySeZijP+qBexXteM8vSzvIEliexNNnmJwPJdtTuV6mvD00lW5d4AvAmgbcq3+8XGcyLJhJ7VBfzAMsQWILEAgT6fjQCPpvN9D6JyTTzH9p52WupysYEllTbm8RmZMMrP7wp/44Y9m+Y8zsjDWQir5HPcP5EfxaqLB4sSZLUOaemwUxnAIFscek2JvlgLkn1xwSWVCvZLjo3kL1h+qRDiOHXDXGOrWl/EhfmVNozxLCaDUuSJEmSep8mQyDVQEw7ALfw2eQVwJnEtFFDnGfi4BxL+7sNS5IkSZJ6JxNYUrW1pt2APwIDZvMb/YHrGJVWquvzzJJ0G+ZY4kM2LkmSJEnqnUxgSdUU094k/kC2GOWcLEo7f+bEtERdnueVqRkYnXOpt9nAJEmSJKl3MoElVUtMBwCXAX06+RfLM53bODktUHfnOo6jyLZFzstTxPCcjUySJEmSeicTWFI1xPT/gPO68Z1agzaurWxpWx9GpnWA1pxLvc5GJkmSJEm9lwksqada01HAOXR/V8/NgLuJadHSn+tJaRE6uIK5T5GstmtsaJIkSZLUewVDIPVAa2ohEav0aS8AXyWGl0p5rqemwUzmbmCDnEt+lcgyEJINTpIkSZJ6J0dgSd0V0+gqJq8AVgTGMjJ9sYTnujCTuYP8k1cAF5q8kiRJkqTezRFYUpelQORM4NAaFTCdwCgSJxPDjMJPd1RahXauB1YuoPRp9GU5jgvjbXeSJEmS1Hs5AkvqkhSInEPtklcAfUmMBMYS08qFnm5M+9HOwxSTvAK42uSVJEmSJMkRWFJnXZmaGcdvgX1zLPUD4AwG8jOODpNyKzWmtYHTga0KjXkTX2JEuN/GJ0mSJEm9mwksqTPGpL6M5zJgj4KO4G3gXOBXxPDfmpUyMn2RDn4M7EnxIzQfIIaNbXySJEmSJBNY0tycnfozgauAHUtwNO3AXwj8kT78qSrT60alVehgZxJ7AOuVJu5NbMaI8FcboCRJkiTJBJY0JzENAq4Bti3h0XUATwNPEHicxBM08QodTKI/77ECE9kztFfOYx76MpjpLA0sQ7bj4YaVn6VLeG7XEsMuNkBJkiRJEpjAkubshLQ0M3gGGFSnZ5Dq8Hs+HViDGJ6zAUqSJEmSwF0IpTk7PvyHwHfJEkH1qB6T1L82eSVJkiRJ+iQTWNLctISrCLQaiFz8h/60GAZJkiRJ0ic5hVDqlBSIXAbsYyxqpgPYmhjuMRSSJEmSpE9yBJbUKSExhO8DfzcWNTPa5JUkSZIkaVZMYEmddUSYQrYb4UMGo+oeAadpSpIkSZJmzSmEUleNTvMxlT8DXzQYVfEWsDExvGAoJEmSJEmz4ggsqauOCe8xgK8CDxiMHpsC7GjySpIkSZI0JyawpO44JrwHfBX4m8HotnYC+xCDiUBJkiRJ0hyZwJK6K4aJwNbAZQajW46gJVxnGCRJkiRJc+MaWFI1tKbDSJwONBuMuUoEjqIlnG4oJEmSJEmdYQJLqpaYtgN+D8xvMGarHTiQGC40FJIkSZKkzjKBJVXTqLQa7VwLrGwwPmMKgb1oCTcYCkmSJElSV7gGllRNw8PTwDrAuUAyIB95lSa+YvJKkiRJktQdjsCSaiWmbYALgaV7eSRupy/7clz4n41CkiRJktQdjsCSaiWGO4A1gPN6aQRmAK3AdiavJEmSJEk94QgsKQ8x7Uw2rXDJXnLGDwA/JIZHrHxJkiRJUk85AkvKQwzXMpiVyUYktTXwmb4OHARsYvJKkiRJklQtjsCS8jYqrUI7o4DdaJwk8mTgTAZzMkeFyVayJEmSJKmaTGBJRRmVVqCdnwLfA/rU6VmMB86jH+cwLLxtpUqSJEmSasEEllS0E9LnaOe7JPYHVqiDI07AAwTOIvFHYphhJUqSJEmSaskEllQaKRDZHNgd2AFYtkQH1w7cR+AaEtcQw7+tL0mSJElSXkxgSWUV09oEvkbiS8BGwMI5lt4BjAMeInAffbmRYeFNK0WSJEmSVAQTWFK9GJVWoYN1SawGrFL5WREY3INPnQ78B/g38ArwDPAQA/k7R4dJBl2SJEmSVAYmsKR6d2oazGSWABYFFiXQF5iHRF9gADCVwHTgfRJTgKnAROB14HVi6DCIkiRJkiRJkiRJkiRJkiRJkiRJkiRJkiRJkiRJkiRJkiRJkiRJkiRJkiRJkiRJkiRJkiRJkiRJkiRJkiRJkiRJkiRJkiRJkiRJkiRJkiRJkiRJkiRJkiRJkiRJkiRJkiRJkiRJkiRJkiRJkiRJkiRJkiRJkiRJkiRJkiRJkiRJkiRJkiRJkiRJkiRJkiRJkiRJkiRJkiRJkiRJkiRJkiRJkiRJkiRJkiRJkiRJkiRJkiRJkiRJkiRJkiRJkiRJkiRJkiRJkiRJkiRJkiRJkiRJkiRJkiRJkiRJkiRJkiRJkiRJkiRJkiRJkiRJkiRJkiRJkiRJkiRJkiRJkiRJkiRJkiRJkiRJkiRJkiRJkiRJkiRJkiRJkiRJkiRJkiRJkiRJkiRJkiRJkiRJkiRJkiRJkiRJkiRJkiRJkiRJkiRJkiRJkiRJkiRJkiRJkiRJkiRJkiRJkiRJkiRJkiRJkiRJkiRJkiRJkiRJkiRJkiRJkiRJkiRJkiRJkiRJkiRJkiRJkiRJkiRJkiRJkiRJkiRJkiRJkiRJkiRJkiRJkiRJkiRJkiRJkiRJkiRJkiRJkiRJkiRJkiRJkiRJkiRJkiRJkiRJkiRJkiRJkiRJkiRJkiRJkiRJkiRJkiRJkiRJkiRJkiRJkiRJkiRJkiRJkiRJkiRJkiRJkiRJkiRJkiRJkiRJkiRJkiRJkiRJkiRJkiRJkiRJkiRJkiRJkiRJkiRJkiRJkiRJkiRJkiRJkiRJkiRJkiRJkiRJkiRJkiRJkiRJkiRJkiRJkiRJkiRJkiRJkiRJkiRJkiRJkiRJkiRJkiRJkiRJkiRJkiRJkiRJkiRJkiRJkiRJkiRJkiRJkiRJkiRJkiRJkiRJkiRJkiRJkiRJkiRJkiRJkiRJkiRJkiRJkiRJkiRJkiRJkiRJkiRJkiRJkiRJkiRJkiRJkiRJkiRJkiRJkiRJkiRJkiRJkiRJkiRJkiRJkiRJkiRJkiRJkiRJkiRJkiRJkiRJkiRJkiRJkiRJkiRJkiRJkiRJkiRJkiRJkiRJkiRJkiRJkiRJkiRJkiRJkiRJkiRJkiRJkiRJkiRJkiRJkiRJkiRJkiRJkiRJkiRJkiRJkiRJkiRJkiRJkiRJkiRJkiRJkiRJkiRJkiRJkiRJkiRJkiRJkiRJkiRJkiRJkiRJkiRJkiRJkiRJkiRJkiRJkiRJkiRJkiRJkiRJkiRJkiRJkiRJkiRJkiRJkiRJkiRJkiRJkiRJkiRJkiRJkiRJkiRJkiRJkiRJkiRJkiRJkiRJkiRJkiRJkiRJkiRJkiRJkiRJkiRJkiRJkiRJkiRJkiRJkiRJkiRJkiRJkiRJkiRJkiRJkiRJkiRJkiRJkiRJkiRJkiRJkiRJkiRJkiRJkiRJkiRJkiRJkiRJkiRJkiRJkiRJkiRJkiRJkiRJkiRJkiRJkiRJklSn/j94mjBH71z/BQAAACV0RVh0ZGF0ZTpjcmVhdGUAMjAxNy0xMi0yM1QxNzoyMjo1MyswMDowMDZq4iYAAAAldEVYdGRhdGU6bW9kaWZ5ADIwMTctMTItMjNUMTc6MjI6NTMrMDA6MDBHN1qaAAAAAElFTkSuQmCC;" vertex="1" parent="ep7B5gcZ21LLbHEQqian-2267">
          <mxGeometry x="45.5" y="15" width="125" height="125" as="geometry" />
        </mxCell>
        <mxCell id="ep7B5gcZ21LLbHEQqian-2261" value="NYC1" style="text;html=1;strokeColor=none;fillColor=none;align=center;verticalAlign=middle;whiteSpace=wrap;rounded=0;fontFamily=Verdana;fontSize=32;" vertex="1" parent="ep7B5gcZ21LLbHEQqian-2267">
          <mxGeometry y="270" width="216" height="100" as="geometry" />
        </mxCell>
        <mxCell id="ep7B5gcZ21LLbHEQqian-2264" value="" style="shape=mxgraph.cisco.servers.standard_host;html=1;pointerEvents=1;dashed=0;fillColor=#036897;strokeColor=#ffffff;strokeWidth=2;verticalLabelPosition=bottom;verticalAlign=top;align=center;outlineConnect=0;fontFamily=Verdana;fontSize=32;" vertex="1" parent="ep7B5gcZ21LLbHEQqian-2267">
          <mxGeometry x="330" y="85" width="160" height="200" as="geometry" />
        </mxCell>
        <mxCell id="ep7B5gcZ21LLbHEQqian-2279" value="" style="shape=image;html=1;verticalAlign=top;verticalLabelPosition=bottom;labelBackgroundColor=#ffffff;imageAspect=0;aspect=fixed;image=https://cdn3.iconfinder.com/data/icons/nautical-9/100/Nautical_marine_maritime_naval_sea_ocean-18-128.png;fontFamily=Verdana;fontSize=32;" vertex="1" parent="ep7B5gcZ21LLbHEQqian-2267">
          <mxGeometry x="630" y="75" width="100" height="100" as="geometry" />
        </mxCell>
        <mxCell id="ep7B5gcZ21LLbHEQqian-2280" value="" style="points=[[0.015,0.015,0],[0.985,0.015,0],[0.985,0.985,0],[0.015,0.985,0],[0.25,0,0],[0.5,0,0],[0.75,0,0],[1,0.25,0],[1,0.5,0],[1,0.75,0],[0.75,1,0],[0.5,1,0],[0.25,1,0],[0,0.75,0],[0,0.5,0],[0,0.25,0]];verticalLabelPosition=bottom;html=1;verticalAlign=top;aspect=fixed;align=center;pointerEvents=1;shape=mxgraph.cisco19.dns_server;fillColor=#005073;strokeColor=none;fontFamily=Verdana;fontSize=32;" vertex="1" parent="ep7B5gcZ21LLbHEQqian-2267">
          <mxGeometry x="650" y="180" width="66" height="120" as="geometry" />
        </mxCell>
        <mxCell id="ep7B5gcZ21LLbHEQqian-2309" value="" style="group" vertex="1" connectable="0" parent="1">
          <mxGeometry x="660" y="190" width="886" height="460" as="geometry" />
        </mxCell>
        <mxCell id="2095" value="" style="rounded=1;whiteSpace=wrap;html=1;strokeColor=none;fillColor=#BAC8D3;fontSize=24;fontColor=#23445D;align=left;opacity=60;fontFamily=Verdana;" parent="ep7B5gcZ21LLbHEQqian-2309" vertex="1">
          <mxGeometry x="79" width="803" height="460" as="geometry" />
        </mxCell>
        <mxCell id="ep7B5gcZ21LLbHEQqian-2258" value="Pella, IA" style="text;html=1;strokeColor=none;fillColor=none;align=center;verticalAlign=middle;whiteSpace=wrap;rounded=0;fontFamily=Verdana;fontSize=32;" vertex="1" parent="ep7B5gcZ21LLbHEQqian-2309">
          <mxGeometry x="670" y="355" width="216" height="100" as="geometry" />
        </mxCell>
        <mxCell id="ep7B5gcZ21LLbHEQqian-2278" value="" style="shape=image;html=1;verticalAlign=top;verticalLabelPosition=bottom;labelBackgroundColor=#ffffff;imageAspect=0;aspect=fixed;image=https://cdn4.iconfinder.com/data/icons/logos-and-brands/512/272_Raspberry_Pi_logo-128.png;fontFamily=Verdana;fontSize=32;" vertex="1" parent="ep7B5gcZ21LLbHEQqian-2309">
          <mxGeometry x="440" y="30" width="128" height="128" as="geometry" />
        </mxCell>
        <mxCell id="ep7B5gcZ21LLbHEQqian-2286" value="" style="shape=image;html=1;verticalAlign=top;verticalLabelPosition=bottom;labelBackgroundColor=#ffffff;imageAspect=0;aspect=fixed;image=https://cdn4.iconfinder.com/data/icons/logos-and-brands/512/272_Raspberry_Pi_logo-128.png;fontFamily=Verdana;fontSize=32;" vertex="1" parent="ep7B5gcZ21LLbHEQqian-2309">
          <mxGeometry x="700" y="30" width="128" height="128" as="geometry" />
        </mxCell>
        <mxCell id="ep7B5gcZ21LLbHEQqian-2287" value="" style="shape=image;html=1;verticalAlign=top;verticalLabelPosition=bottom;labelBackgroundColor=#ffffff;imageAspect=0;aspect=fixed;image=https://cdn4.iconfinder.com/data/icons/logos-and-brands/512/272_Raspberry_Pi_logo-128.png;fontFamily=Verdana;fontSize=32;" vertex="1" parent="ep7B5gcZ21LLbHEQqian-2309">
          <mxGeometry x="560" y="30" width="128" height="128" as="geometry" />
        </mxCell>
        <mxCell id="ep7B5gcZ21LLbHEQqian-2288" value="" style="shape=image;html=1;verticalAlign=top;verticalLabelPosition=bottom;labelBackgroundColor=#ffffff;imageAspect=0;aspect=fixed;image=https://cdn4.iconfinder.com/data/icons/logos-and-brands/512/272_Raspberry_Pi_logo-128.png;fontFamily=Verdana;fontSize=32;" vertex="1" parent="ep7B5gcZ21LLbHEQqian-2309">
          <mxGeometry x="312" y="30" width="128" height="128" as="geometry" />
        </mxCell>
        <mxCell id="ep7B5gcZ21LLbHEQqian-2289" value="" style="image;html=1;image=img/lib/clip_art/networking/Switch_128x128.png;fontFamily=Verdana;fontSize=32;strokeWidth=3;" vertex="1" parent="ep7B5gcZ21LLbHEQqian-2309">
          <mxGeometry x="370" y="210" width="420" height="170" as="geometry" />
        </mxCell>
        <mxCell id="ep7B5gcZ21LLbHEQqian-2290" value="" style="image;html=1;image=img/lib/clip_art/networking/Wireless_Router_128x128.png;fontFamily=Verdana;fontSize=32;" vertex="1" parent="ep7B5gcZ21LLbHEQqian-2309">
          <mxGeometry y="240" width="200" height="160" as="geometry" />
        </mxCell>
        <mxCell id="ep7B5gcZ21LLbHEQqian-2293" value="" style="endArrow=none;html=1;fontFamily=Verdana;fontSize=39;strokeWidth=7;fillColor=#fff2cc;strokeColor=#d6b656;" edge="1" parent="ep7B5gcZ21LLbHEQqian-2309" source="ep7B5gcZ21LLbHEQqian-2290" target="ep7B5gcZ21LLbHEQqian-2298">
          <mxGeometry width="50" height="50" relative="1" as="geometry">
            <mxPoint x="-240" y="690" as="sourcePoint" />
            <mxPoint x="-140" y="690" as="targetPoint" />
          </mxGeometry>
        </mxCell>
        <mxCell id="ep7B5gcZ21LLbHEQqian-2298" value="" style="image;html=1;image=img/lib/clip_art/networking/Modem_128x128.png;fontFamily=Verdana;fontSize=39;" vertex="1" parent="ep7B5gcZ21LLbHEQqian-2309">
          <mxGeometry y="40" width="160" height="140" as="geometry" />
        </mxCell>
        <mxCell id="ep7B5gcZ21LLbHEQqian-2303" value="" style="endArrow=none;html=1;fontFamily=Verdana;fontSize=39;strokeWidth=7;fillColor=#fff2cc;strokeColor=#d6b656;exitX=0.5;exitY=0;exitDx=0;exitDy=0;" edge="1" parent="ep7B5gcZ21LLbHEQqian-2309" source="ep7B5gcZ21LLbHEQqian-2289" target="ep7B5gcZ21LLbHEQqian-2288">
          <mxGeometry width="50" height="50" relative="1" as="geometry">
            <mxPoint x="-120" y="699" as="sourcePoint" />
            <mxPoint x="-230.00333333333356" y="699" as="targetPoint" />
          </mxGeometry>
        </mxCell>
        <mxCell id="ep7B5gcZ21LLbHEQqian-2304" value="" style="endArrow=none;html=1;fontFamily=Verdana;fontSize=39;strokeWidth=7;fillColor=#fff2cc;strokeColor=#d6b656;exitX=0.5;exitY=0;exitDx=0;exitDy=0;" edge="1" parent="ep7B5gcZ21LLbHEQqian-2309" source="ep7B5gcZ21LLbHEQqian-2289" target="ep7B5gcZ21LLbHEQqian-2278">
          <mxGeometry width="50" height="50" relative="1" as="geometry">
            <mxPoint x="499.2146596858638" y="220" as="sourcePoint" />
            <mxPoint x="450" y="173.92156862745105" as="targetPoint" />
          </mxGeometry>
        </mxCell>
        <mxCell id="ep7B5gcZ21LLbHEQqian-2305" value="" style="endArrow=none;html=1;fontFamily=Verdana;fontSize=39;strokeWidth=7;fillColor=#fff2cc;strokeColor=#d6b656;entryX=0.5;entryY=1;entryDx=0;entryDy=0;exitX=0.5;exitY=0;exitDx=0;exitDy=0;" edge="1" parent="ep7B5gcZ21LLbHEQqian-2309" source="ep7B5gcZ21LLbHEQqian-2289" target="ep7B5gcZ21LLbHEQqian-2287">
          <mxGeometry width="50" height="50" relative="1" as="geometry">
            <mxPoint x="509.2146596858638" y="230" as="sourcePoint" />
            <mxPoint x="511.35981224047646" y="178" as="targetPoint" />
          </mxGeometry>
        </mxCell>
        <mxCell id="ep7B5gcZ21LLbHEQqian-2306" value="" style="endArrow=none;html=1;fontFamily=Verdana;fontSize=39;strokeWidth=7;fillColor=#fff2cc;strokeColor=#d6b656;exitX=0.5;exitY=0;exitDx=0;exitDy=0;" edge="1" parent="ep7B5gcZ21LLbHEQqian-2309" source="ep7B5gcZ21LLbHEQqian-2289" target="ep7B5gcZ21LLbHEQqian-2286">
          <mxGeometry width="50" height="50" relative="1" as="geometry">
            <mxPoint x="590" y="220" as="sourcePoint" />
            <mxPoint x="666" y="178" as="targetPoint" />
          </mxGeometry>
        </mxCell>
        <mxCell id="ep7B5gcZ21LLbHEQqian-2308" value="" style="endArrow=none;html=1;fontFamily=Verdana;fontSize=39;strokeWidth=7;fillColor=#fff2cc;strokeColor=#d6b656;exitX=0;exitY=0.5;exitDx=0;exitDy=0;entryX=1;entryY=0.25;entryDx=0;entryDy=0;" edge="1" parent="ep7B5gcZ21LLbHEQqian-2309" source="ep7B5gcZ21LLbHEQqian-2289" target="ep7B5gcZ21LLbHEQqian-2290">
          <mxGeometry width="50" height="50" relative="1" as="geometry">
            <mxPoint x="-120" y="699" as="sourcePoint" />
            <mxPoint x="-230.00333333333356" y="699" as="targetPoint" />
          </mxGeometry>
        </mxCell>
        <mxCell id="ep7B5gcZ21LLbHEQqian-2311" value="" style="group" vertex="1" connectable="0" parent="1">
          <mxGeometry x="-530" y="730" width="880" height="570" as="geometry" />
        </mxCell>
        <mxCell id="ep7B5gcZ21LLbHEQqian-2312" value="" style="rounded=1;whiteSpace=wrap;html=1;strokeColor=none;fillColor=#BAC8D3;fontSize=24;fontColor=#23445D;align=center;opacity=60;" vertex="1" parent="ep7B5gcZ21LLbHEQqian-2311">
          <mxGeometry x="31.428571428571434" width="743.8095238095239" height="570" as="geometry" />
        </mxCell>
        <mxCell id="ep7B5gcZ21LLbHEQqian-2314" value="US East(Ashburn)" style="text;html=1;strokeColor=none;fillColor=none;align=center;verticalAlign=middle;whiteSpace=wrap;rounded=0;fontFamily=Verdana;fontSize=32;" vertex="1" parent="ep7B5gcZ21LLbHEQqian-2311">
          <mxGeometry x="20.952380952380953" y="439" width="366.6666666666667" height="100" as="geometry" />
        </mxCell>
        <mxCell id="ep7B5gcZ21LLbHEQqian-2315" value="" style="shape=mxgraph.cisco.servers.standard_host;html=1;pointerEvents=1;dashed=0;fillColor=#036897;strokeColor=#ffffff;strokeWidth=2;verticalLabelPosition=bottom;verticalAlign=top;align=center;outlineConnect=0;fontFamily=Verdana;fontSize=32;" vertex="1" parent="ep7B5gcZ21LLbHEQqian-2311">
          <mxGeometry x="408.57142857142856" y="300" width="167.61904761904762" height="200" as="geometry" />
        </mxCell>
        <mxCell id="ep7B5gcZ21LLbHEQqian-2321" value="" style="shape=mxgraph.cisco.servers.standard_host;html=1;pointerEvents=1;dashed=0;fillColor=#036897;strokeColor=#ffffff;strokeWidth=2;verticalLabelPosition=bottom;verticalAlign=top;align=center;outlineConnect=0;fontFamily=Verdana;fontSize=32;" vertex="1" parent="ep7B5gcZ21LLbHEQqian-2311">
          <mxGeometry x="408.57142857142856" y="60" width="167.61904761904762" height="200" as="geometry" />
        </mxCell>
        <mxCell id="ep7B5gcZ21LLbHEQqian-2324" value="" style="shape=image;verticalLabelPosition=bottom;labelBackgroundColor=#ffffff;verticalAlign=top;aspect=fixed;imageAspect=0;image=data:image/png,iVBORw0KGgoAAAANSUhEUgAAAlgAAADNCAYAAABkUg4FAAAABmJLR0QA/wD/AP+gvaeTAABpPUlEQVR42u29f5RtVXXn+5n17mDcwbiDvoPHYFCnGafoOobwDE0bYwxBNIqIaIhBA2pM4o82Jv4mikqI2gweTYxRNGgUbaNJbOMvwBDbaDSIxCjStLENGqK0p0KdJqfohPBogoTcvrnz/bH3XmvOtXdVnVO/btWt+R3j3HvqnH32Xnuuueaae/4UDhMWB7NHgeyV6s9zgb3Nd6og9RcKCKAogqD1p4Ise27t/L46U/Ud9Vnz+Vf7vT0uj6nzt/cLcnP95wP94ZjthtFg9hkg+7vGPy024hyTnLuL5htw7XuAWxUOzA3HD2+7iTqsPNLbA3oe8ApUzkby2qBaHXeq6ieBaxFunxsuBdGWweKgd7TAHlU9VUQeMek6mvSzrVyTq1znC/3h+J5lZM5pII9abX0v8/3N/eF4FJy05TLgaGAPyjEIZ03OE34HnZa3N5p/V72+6nf6C0u3TbCO9wo8AXgZsA84G7gd1QVErgU+1S/2ka1Yh80COwaYVzhDkGcCJ6rqKQ1BASRpVQpS/YfU4lwVbd43FErqVr4bUUO8YoZVzXXqa6BW6TJjqS6cf4si9tj6t4jWCmEeex6P3CSwoPDfBW4Cvtcfjg8e9oUzP/stRE614/W0F1TV0Kn6u5wjtYwkbibN8eQtubhWdQ08/ZYbUzMVxfWlmYw0ufW8YP7G31v+n2r+4G5BvqHKJ0T4Qn84vndXC9b53tMVfas0PJJI1ywuM38VeT+i8Kq54dL9u5luRhAfj/IMEX0cSF9VHy2wv1kQFd1qHhWzLgy/pmMEtwYS/7Y2iiybutZOujaaLuuFJ0neubEY2SnFtYsffhuRn+gPx/d1y//em1T1CrFjSfyTL5z3ArcxXNgfjq8Lztpsvp09HuVRiDxe4AyU04DjFF1+7sXwi9mIm93B/a7zvRRMSAdvFzKnlt3Z6KLFVt+sLTxP2WPy+ngQkX+zmsxfnJ89W+ADwEmtseXz3g1cDPKpuYVqn9+zyYJmRuAc4Dmqeg5Cz8+NoJKJlJ6OpbZR1ZOXCaJp4hCpflcT3Aokv9VTaV1G+7JWLHWaGEipUDQjVVDJ0iZZ0lQcpVWcfewsVTmr2sQFQb85GvRuVdVPzC0s3XzYVlJW3ev7byulIlLQsJ6vWikRkWRZ9Ixd/Mgytni7YLpGvTqNYlrNQ7Eg0vW0WKBGYWrO1yjD1dxpdW1pxl/9puIpAThR4UTQZwAPjAazN4O8sz8cH745OgwYDXp7Fd4MvEGQPZX8qfm8plWluzbrNM3BzwuctTjoPWVuOL5jd25OvZNQfbEg5wCnge5NT/Eiy2xKVslqWLmSTSKFHUDyxtX1MALaupZ9oEzKDB0PUxh7flpnxQbS/KSUA/mLX15OuXLn8E9l7kt1wsLTI7Bpa76n6DmCPEfhCSIcbVgj8amq4Q3NPKhputQ9ZKf9VY2cb/bqxM6Sjs7PEXk/x64PzF6jzf4j5uHccrHZjcolls5fn1bkylWVq0HvuQK/Dxyl6AOCXAd8Ffg26HEgF4Keg8qJInwC9H2jQe9V/eH44Kbw7mi+11fhXFFeg3CK/7bUJ7u+wxFL1rTEVjE0Wj/kOrBGc+YhVW5HuFrg4/0tdk8tzs9+y1on1nX/2hb4G0HXNc2Esa50z1M5W25rye8qy+QhhT8Rlbf2F8Zf3g3CdnF+9i0i8qvdUznRSrwbeGp/lyhZo0FvH/AERS8SlTMQ9q2yWFbgz8nk3Fa5/9pXxayg1jp6V3+4dNGKvDXovUngimlvqt5nL5wLC9bGrvVB7zSpXF3PA45Zbj7Wym+On1ea37Xs7xu1d6veJsLj+sOlg8vTafYcgT8C2QvcqqrXA/93o7Ch8pcIX0e5T0TfCfL8+r5eMzdc+q0NXaujQa8PXAL6fJB9WrvhpFiSyTWUn+Fq7ZaWRqruqOX/t8flbyQbK60HqRz4MuZP6yLziqGPHnDWG8ucxqqWTKZaPsTJd4CrQH9vpYne2Hma/ZYqp9pbT0+5pSu1vg/7ZNl6gjauW7+W/FNFmg3nzTNPRZAsanS4h/Osmukyrj5R7x10Uyv5SSxb1LJpW41VuZjigyCfAi7uD8d3H8EC93xUrxVhj1r6O6tgft8QLD+JNq4nuQn4qf5w/NCRSqvRoLcXeCHwelWdd24vK68MUzkXW/bjmQcUI8/UWKq0w8JVnM+FNZCFXdvVly0DQpfrUIy3zlgSWqEXdtzcqfCjc8PxA6vQ7E3AFS33ZuHi1/r8Ytz5KhIK1sat8zMFvUyVJyLsEcVY/w1vJRmZPxAjc53nyPCXC+fAWDxpeMge3/6d51tzPhv1UfKzmH2pWQ92v2r24LTHCCgPgD55bmHp68vTanafIH+pqvMi3AryNNAPgFxg93OQhxHeC/p6kLcCr1P0YUF+aGaDJm1mNOj9CvA14OUg+xpCJLM0BYFIRuFkEm/cg5nQdoPO/2fzoZER5krV++ITMxiR6jrp/zSGPBbn+9VGiSvGovn8Ng7MjgpjBK0mOt9jLaBOAT6g8FejwewvbcUia4RzcpHZ8ZjvVNWZY6V81tDSwIsT3KrGF285oaY9hs61uTZfR8zVjNvV+fqlnhXxu0kzfucSJN9jEuK1iVntAk00qf9X9qjqs0G/ujjoXXAkCt3RoHeMwHuAPZSzLGYu0vuG7mLmJinKZwHnHcEb1BmKflHRa0DnEw0kP9JZPq+UF0/PzF82madYH40EbB7OnMyQ/JBjeL1xPSa3X4ufs8xLF7fzJ2lHSucXkToMQvx85yCuN6+mXGVZbq4p4gVm+rywjYmEi3Bj1nhvNOh9TNAvgZwtUocAmPmp5L+ZZ5G0zpv17+bfhlmInUcr37PsVvNwnB/ijA9P2nyWPldxeoLjZ6M3qGSetTytRl7V28SHV1Ku6jVxgarOI9yvyM/0h+P7k/qofFbgBYh8AWEv6MtBjgOuQBlLZfG6aGYDJu5Mgb8B3glVjFUTKaVOKVFU8nar/hnKTLSk3xbbcpoUGx+k6n3BzRvFe4PTdUXM2Mz/IuazLKTUxCkknugYb+l4SrxjfNX5Jc6HXY/tZEXePxr0/nQ03ztxMxebtUDl+fDarzbxGOWxjdLSvK//tpEgXtn0tANv7ep60fG/GHVcjXKYoukk80uzgL1y5Tc5n1hhNqcOfqwnsg9cuzjovW00mN3U2MUtFryAvlFVe4nnjeDq2ijzeilplgTfNYuD3nFH2AZ14uKg9wmBr4KcIYUMU2NJd7ytPt7EGsqznCt4Tmv6an5YLNdG198Nmyte7tAhm7R5uNDi9+ZaWRbme/HH6idBPjktLS2PWTo525rIMqHPgWmwOJidGQ16rwQWgeeC7En0r/chyy/WEeP2R9UW35VzlI+RFr+kaxglSs3DRZfcd5+JWUPlWnHyvdnP7bnNw3T16YLApROQ78Jaufvk3HBsygEIInJHf7j0YVR/Erhfkb2gp/WH4wcQbVzhZ65ZwRoNensWB72rVPWLqtpvrB1JCTKkUKf1aG2BygFrWt95+lz9Em/+zQHr/jxa/0bNtcQeo+acalhA/UvKbcTFF+XjVLX1WXMv5bXV3otqHbxtvjOf1TQ4W0W/uzjo/dJo0NsQCyPLbZNubH6hJBrj78PNHf73dv5U/faR5s+c09Kw+S5dvxxDMZ+Vuddcz45TLE3zONJ1zTkyHUjHpmtQ3E81ztcp8sHRoHfUkSGC9TGqvKEUqxWt8vrMtMqSTaiCRh2fV/8fK/CeSnk7Ejap3vnA11B9tqrWIsjwUeP+VjVBCq3tKK99u/4KGWHpKMmtkeWV28KKdZbWhBayz/K+e4zUllzTtGtpdp93yExVvQe4aPIyNOLvzWyHlZVEjUUcJ7ND0VrzHt0T5Iuq+m5V3aMtuez3AbWyudgzRYo5MfI7yQahtXeX8612v1Er62uZ3sWjmvm7Sizz+3BLttt7s+uqYqyDwEv6w/GDq9BuD6qPrfW6azMXp/1x32jQ6yFyharuR/UgSB1CIreq6iFVffTMGifuROBLwGtF5KjsbrNZM9ZVJ8YKKIXLybjNGhcP2aXWGN3F7sf1NcSYt5v/xcY/lWb0ZH4XF0vkYoqKWCMtyhE4N0mH2dxa2cRZT7K5XrT4rTVzVu+PFni/oh9cHPSO3fAt1dDdzlO+xeL7Ym7FuUPEuylUvPsx3b04y4ikKEHjxsD43s0TlVBcu35p86hSuLAo+KN5nMmuYm9eduYrbZu3E480Pn/V5yv6/p2uZI0Gs/tQ+aCbL7Vu2rwgpFk3KR7I87ZfC4LCs4Ed7VIdDXp7RoPeVcDHgBPTk7eRBSQ5ReLJJNfU8JpavjZu8MT7dg0Y/kaWfdnfZ2ttliMYnrXrWcv5ktL9K8bNmNeJZnlwUERe0x8u3TMpLe2+4KzFaizR0uFKJVyEa8HiYPZchf9axVpJS6bbwJXGBYf1BhTuZdVlXM4unMLv7TZkg2I3cC5vs89ocqlLsW/ir51ckSYj17o17b7mQkzkd/rDpZtW3SNVZxQ5rubTv8t7J83aeCnwt8Cv1vS9pT8cfwegPxx/U0TGiDC1gjUa9M5W9PPAmeLtRX4xFe9FurMGqzINVlT7DAEfC4URAriIailcQZ3Kk0t77jpOi83FxGVhlIzOJ1MrSKycEP9k5tyG7RRkTzt5IejnR4Pe/o1dftoxP7QC/QWWGZ8u/3e3rpr+1uJYKcdQXNfHd/nvXTzJcr8pjgEb82fGIXmBl3xrBYR5QHghqq/byUJYkZcjnObpUtBKaCvLLkaxro9l5zg/sb5/43l3azAa9I5V1auB1wrsNWFQSfGUDp5t8VXBnJ1rSorfi4kJNUGH5Xop50061q4dk3Rcv+szVrkO6M394fjjU3ObWZ/ddNFOuoQFayq+ZXEw+yuCXC9wYsmDy/KAmIcoMx9T8VARJ9MVZCC0dQIv74u47RW+k6IM0LI8m40pI+DiSehodDjPgZqucw8wrv++B/ipNAfzsycCxwhMp2Atzs+eC/wXQR5pK9BZVwJmQGoyClQLl6AjXuNmcJ9gzemqWtehUuOgyi6LFd2OOSDHmEEpXHi482rLZabmHuw42/FfTUZGMtWLz6DMZnd89kyni4zHqOpfjwazZ2zUIhRDh9K9aV2bbs4cTRrrkVonuJuLdH6K7FE3X8XcJbppi1+8Kw/HFxiXjTo3i/99p1kbnCuwdP04l2K6TIpXu2xxvvfcHSqIHyHopdb1py0aFvSz69K6UA1NrbtX4Vjgsh1Im+OAPxPh5Vq42LRwU5efOd6Bzu/zZ216urVmjzP86uVouVb9GtIOd7iTqfhjrPzRVkgEoBwAXjE1UY2rsXSP5pc497wPYwhMiLehvFNVj15u/qGDB5UOfqAVPoFzxbX5xIZptMNBaI2DjlAEtw917AFZVyjWAcV60dYY3jh5drMcAL2pTqg7N32aPC98BPRpCA+DnqBwfv6pnKaqx6jq5ArWaL53DsIfAnvdxuQy8kwEgnoN1aVSYoJCXRl2TIyBN5lnd4XRKQuLsguuthZ6o17bVOby6RyKkza/cNl2RckCjA+4UQCb4qlSF7h0hVRJWRYpZbTZqGz6q8v04QRV/ng06J2+ESsw+6PzdZL1xrgOxIwnudcw/naxAef5/kmuTvJcNfMtJsDVVYfPbjktx5lcFPgsA1dWQVLGkZ2vnGjQfuaSoiRtUqBq+qcg0MJU0RSBBI4S9KrFQe+knSaFFX2/KvtFikKypWXGZPHkystinnaltS6LtfnS0aD3xJ1Cl9Ggd5yiX1TVU1XFW7jFu9acK1m82akrxLxJDsjnMcLKhh00RZZNRlZ2Baorm2IKJhpxQcdaxq0x5xqyBSUbOST+no3MfWN/uHTn1IQ1jJZckOLdUVJkn7k1H1gVi4Pe20BfV2biWQOAOtnoFn8HLztBkJPWpAxAt3sHrihxq9Cu+OK7WpTFlCJ7UNx+2ew3OHOyX0ddfCeI8On+cPyRSWlZxRbKLfVwXjwazB5N2uerd/3h0u0Kf1JHiL1xcTB7fE2Ti2rafmYiBWtxfvZchD8SZG9eiEJ3nlGz0LWVeZdazrj4FhOf1RUPhHQl+nshgYkrgpyiWUj6HCwvhWKlLoMlZ1eULjO7MVMUYxNHFz9iXPmB8oxaxvqkk6uNidgPfH403+uvdyFmPznQWb9qJdduGffmaWBnUZu5JS9iN/Ou6rT6lkciLeXXKl/JpYeN1QKvtPsRlu4by01JkWwWtUoxS3mc9jNFeqDv3EmCeDSYfbkgZ7k4OIq6RIWKIOLrormUEPVzYjM6gb2gVy/Ozx67/enSOx74Ishp7ZIxbZTdD7TLcSKeLqLtdWbb3dA6Q+EitzGsTYxVIYfbjb9guXroTlEWHzmr7Ru+RdG3r4W2tqCktmTJMr/RiMCakG9nRoPe2wReR4tfcA8GMgHtKzd/ltSu2xL4/dOE7JT7rTj53xmYYpaJKatD2Suw3KMkeULa0V3SejCoXHjymjWQ9hMKh4CTVXn1aL7XRb+XCDwgyMnAKxbnZ8+VqnsNAletqmAtzs+egnB91fqhzO5zTjWsw8z+Wz6EqPt9yxnYMpe3r9nOvEm2M1V/Ri0z3jpM6JaLzLWt+qWFad1+7kSb4mmirbtr3WvZU1FN8YeCBscgXDtaZ+C7G3fpfgPvEtJijrTIQMGnqOe0a3UV62ybgy4XVBMDpmUWSOH6bZR0TbVN8PNW8IeWbkxwNE2ZKanYoppijtrporSf1/35njGa3xlWmsX52eNVeaPL+qXtHm5l4RS86pzjUrgctFgvcJqIvHCbb1J7gGsVPa3aFbQlryjchKLZJVdmyNpsKbdShE7Z1nZ503LbOLnlitn4M1nXvVuzZn5ambRSyHQjU+tzHBDhBWtt6p3arXhp4Naoc3U2RS/DfLW6PFeuUHhda28jh09ox75s13S5dyb51xxZugEb+WtXeYfMtC4+oc1jaLfcEbtHSXtPdx4h2m5O/Biu7g/HC9PStT8cfxuV36n/fAvwBuAKUZ4CvL8+5l7QHweeUgf2f6Ie16cU+cqeVYROD9VrVTka8XXS7eKTolq37xzkNVfxz2sHEL4B3Kyqf4EwgjLQNvdBqn/jkpjKoPIy6rmZqNTbK9X90KRh259JUQ+kGXXjHvTafDaX1pVqn4AwAJ4InCzITGNOXK5tgErResJVsk9XsYvpsYJ+bjQ/+7j+wtorv4sUlh/psqKRKqjXIzqEyI9T92X0QtOeLL83TiXKvmvutosCY7aaePO/2DkQbJ3+ktGcX9pVi64sCvtV9UJEzhXhRLtAbS82W2S2cruoL46XsiCZoWoD8vgdoERcpdAzBZpKxkibc6uHmPg+kNbilVtHWB7KcwVcMRr0PtMfju/cnnTRd4I8odNyYyWXqJFJJGunGtexd6mlyu53oXxd0O8h8kegh3Iohed3Vw7D8nnhHm/S4lP7Glv43bVysxWv1QeYW2UuFZJXt2nVbvIH+sPx99ZDZ+mqSWd5x8hJ67kII9aKvHsO8GrHpzbmV1yfkcLiIz5bTIo+KE1guPANVL4D/LGKHnBsY8WvZFmrJjEju7atvDfhMmr3QkkxiF2JV+W+bJuXN0peE55jnv++uXae5SJF94vIsxXeKio/hnA18EBF/9mjFTle4GeAl9aUvhPl4rmF8cE9qwljRE5tu4EoFkH+u4sSZay/wq2iejUit61Fs9zGuK15szg/ezKiFwAXgjyqi0HatKGVdiSFXlYz7GMVvYLJiqWtzEBlVfrCLVLOd384vu0ImasvjAa9fVU5Ab1MkH73NBQmbzHxhV4XP2M06J3dH45v3K43rOh5gvy8LNOz0cU/NJ+5hxujNJfNwLH6mskXy6c6WlU/OBrMPmmrWkJNTBfV80Tklcss0cId3nb/Wx3ArRdlAZEbgA+CLPQXtrbn6HaFLPuuOxs9bFjdGA1me8D14HtgSgfvLhcC0p4HAbgf5KPAtaje1l9YOmLbXq2G/nD88GjQewHwoMDzEZ4FPEvhvsVB7x6FfQIpbEfR21B5ztzC+C5YKYtQ9aWgz9UiI7B5r4U70LsEymOTPevTij5O4Mf7C0sfP8KUK4e5haU7+8OlXxfkRxSeBNpZe2N5OpauhLL0Km9YT/Bwy0krXpSVlXKPxJJ//eH4wbnh+EOC/AjoZ7Xk84L+eR2UWVug6Iyqvmi73uto0DtB4J2t8RcF+rQoOohpmQR6r7aKYxZurDLz1LgfReRMyIrMNqHLiSLyMe/a8C5ttzZNllQrnCHf//dAX6Ci/7Y/HF/cH47v2OqG7tsR3Zmpbbd7me0roWF10xN+F9inrWxMWu5W597uCNGo3z+o6CXAD/WH41f0h+Obd7Ny1aA/HD/cH45fDPw0ys21DDwW9JEC/Zp+N4L+pCCPb5QrWEbBGg16JyLyTrXVSVoupKqVA4WnwbZ2SEGZ8E1Bfgx45txw6ZbJq/8eEZNzaG44vhnkKVQupMLMLj6Ow4X624yaeknlQoYzwHtG82tpSSJFHRFx7Tzq1eYTTDCTfOTN0b3ATwm8Q2x2iyne2AijVhFVw/ci8oy64fl2xMWKnOQKUBrfa+5515HRmRMKLhGRb7iMo8QjRVHAonVFbnOhb9tmNPp9hb2tQlKmMK4rLCpFEVBxxXYfEpEXAz/UHy59eG4Ym1MSJ5iWY1IU+aWdIAEmszFchC2MBr1/L8g5qeckPjvV9qaUjsK0RXbsASrZ94Nzw6Xf7Lu2MIEG/eH4syr6JET+FcK/FniBKj+CyL8CntIfLn22PxwfsL9ZzkX4B8Ce3KCxCJiho6Bmp+GXh6VyZf16f43BkUfQ5BwCvjIa9H4A9A9Ant3Q2PfG879rmXv9948EvQx41TRjWS6Lye8vsopZ+Uibn6VDi4PexQInAs+Wjvik7ixE58rYJ8rTgfdtp3sbDXqPpSqYWYx5dadBzuThsyJ8GLhFkG9Z2SGFspnfF5mI1b9V6AFceLjpsjg/+1LgLCe5ZOX10skA1V3+CcgL+sPx3+1qQTeR3JEVaWsfWqLSaOd6PhF4t1unnXzbTefi0O8JPKc/HH8jKLs66iSPB+rXh1c7fqZj8i5Q1TPUhbuZLLGOTCpfojNlMnwH1Z/uD5d2vXJl0R+O6Q+Xfg54AXCgoZstxtmVgVE6X5OLT/jFxUHv1GnH4bOW1DRI9sU7u8z5R+7iGaPwMuDbLbO7yfAqXUIuG0943Ha6p7qdz++r6oyWxftcVg4dLr503AGES/vD8cGqHYS+r13oElS7z0X7+2eNBr1nH066LA5meyJcoiusuewCpTvDuaENvK8/XHpaKFfLI/VwW6a/qXfPetkTQe4tXJMKibrwhTbv1lKp5Nnm2w8Djw/lavMw44VOb6/ClQh7XGsI/JN7qmVlC5XhahzdgciT+wtLXwgSd6M/HH8UeLyid7mCl7YuSENwWxzQCKx6ZvYK+sbprq6tulw2i7KaV3X9/WSXVKSZG47vAy4vC0qKmiwxpCiIZ/otqp62zW7pcuAUVw/HTrhtASWY4rLOinVlfzi+PZ9S3gjyPbG/t7XLmj6g4nnOFA+cUdWrFquWEocFglwEclLOLG3q9mjR90OxSb25nqggIg8L8rP94fhlIdFWp7inq+9V52vQZWL72k2B0aD3GIVz8lqzxX21KDCqLhc9rVNA0N8DXtwfju/ZjXTcKswUS+C5UpUXMKUCjKBJU0XxGeYT7hB4avhxV0d/OL5N4KmgI1oRWGlO2i69VpE1OX9x0JtiY2+7vlS7s0987PvuEHX94fg64A53xx29LV1z3PzZyYuD2W0RYzQa9E6hakrq4/hMAdvOOfcxZt8A+Y2CPg+I8PqiuqWjS3m+soeZiJwoMllfsE2gywnAL+WxiSsvIUVHNlfwN9/Fw8DP9YfjT4Ukm1Tq+M4c3aqTJsUhsgg7canAUZZWZVvsdiyvnwWQDyvyy/3heFtl8x6JmDFC52jg0nbWWllCFFoBrGkh6L2CPrU/XLo7SDsZqrYTcjHoQV+4E4rSmWkWRHyvLlXdCzrVZlWWiG3OSeGObIoQ7gYXYYHrOvtmFf0JyyKyoHulijM6rBgNenuBqxXdT5n1a4oPllmBRVnZAwovKQM3a3wGuCHxi7SLbDq3RKOpO9ckr1ycnz3zMJDn9TR0UdtzyRbctXNskwLSMS8L5WpaaFHY2K8j2982P9lpaFh5TT8WeIYr7V0U3C6lN2UvTfTDoC+Z617TgQ3GjGH900FPbtX9aTWraTfUrf85IMiLQrmaHpXFRC5paNkU8KzaD4j5rJqF5n8X9K48r25SO5mga4q5YeJITaHNxl1iC6TuLmO9/rnY3lx1c8vUF9P06KvaMrnnxfMO//D5RdBzJM1pcw+YBIbs5rdWTGNp+PDccOkby/DsQZBXINyfWlNZuaG0XMwUYxGRPSLywcW6z9dWYLF6kHxWGov4forakQVJ2axL5HcU/QiBqRjSpVYUPe5yyyY1vS9rqoePsKHhxWgTvpOtw+kZwYSStCzv1Xr7niCX9IdLoVxtEZKCJXBRmb5fTWTutFd9Jq4XkXEnfKg/HH8mSLpmvENErnPp/6ZieapyrJhYBcgxNLJHVS+abJ1Kqx+jqLQqLYutZL7rsnnk1opW5im7IQe52nkr3a464LBasEaD3n6Ey9T1BjNxLeBrC7muRqmU/p3AirF9VRiAvMUWxxVbTry5ekcV22yg0JMFrhwNeltFnmcAJ7XXhJppLAKu0sQrqNwJvHFumxVL3e5QlyZd1hXvWEhFHNxux2jQ2w9ydlJAbdV7kY40wqK1AhwEfU7EXG0tZgAWB7PHgT6xmQ7beLcoVZbaKKRjq7d3Am8Ocq4d/eEYVC8GvTsHLRZuQjEOnOR2qeeiEkjPGg16q/aXVGn3Q1Sh1QewumZue6C7qOJfcpnZh2nrZkumv8KlfpgV0VpReY8qxzWalGuk7daumhp3iglFApG3TJIV1x+OfxP02xiebNyB+fwdBU2brvTVxvArwKO3aGIvzHpns5ZILsAyHKLo1gjCqyJbcO1rqug0amqvdRRY9grCbsfTQY/V1LPV0LQsAm7c8pqz/3+jv4w1OrB5mKlkhpwDckwjd3JWkbrnCjFdrPNnAFxRF2sMrAP9haURyFUsU3RUSrqrb8wK+kjgkatdx7q0rM3SWrCc40Ttp7sDKdBW6bDYaofLy7jXDiOZFM5HeV5O4jMuOnNU6UpI91d98lng96ag1qusBUjUnEtNcVzzpC2u0ZYAvHs0v/rDwXqwOJjdLyJnF7Pli8XSzLnneUOXyIxe43qyGYFSeEvUuJGlmBeNPEKAF2Azy02/wFyrTh2dmzUmyF0ickWQcOvRCLRliv6JeVRPK6U86MsKHw1SbgwUPgRyN525mmI6w0o7W6tadBeufg3tnlIt5t4dILvvYbLT9G5oY6pwbgeMBr1jRPlA2c+yc/zL71kPgL5kym4LNyPy3s5G6cvSsDW+M5DctHaTJvQc4JjVFuAyVRsBuWw3daHY0qVWE19alTOjTMPifG8vcIallCuEbEvGaJt+ir6lH0HthwUzo0FvH3AutPoG2vms2b/o01a9vWauqlIe2ADMDccPCPo21aJboC32KdnNV20IaguErpqVJYgv9LdMz71cdLGtlB3pUDjXZdk1n1L0ZUx+QcwR3HuYxvxmheOKseT5bAqlarsHnPnF2/rDpam0iFrpuBy4f9mepJlwrj9himWrPrh8ND97yuYRqHYPFrNoM7Eac60tylgP8NNAuFjWzaPd8qZJmGr3IwwnoaDnquo+S5NES1O8FTrDOO4SJBIyDhNmgMcAe5NptjNbrDb/ayuj7E7ghiDjxkKRTyHyIDYby9Bd1SQepJji5IKZKO3d9f2yLhwbkFwEuJcL/EiGwOMbVxd1odEU+2yUgty5gMpEX23WX9nq8Y4GvTNRfaVNaxejUFmjVuMGcw666kZuBX5rLdev45JeQeN+rhXPhmfEKOmiYuKeIKlcyjG6Sa6M0aC3B+R0X41BbPR1rhpAWeNMUNW39uNBcu0yTU3jZnWFeXMpDHxQhLrEg10MkcdjaJLpUmT82yzzfNxn+8Nx9MQ8TJhRmE9cbLyBfittTJCuwiXAZ6JL/MZjbji+W9Bbq7XVzhRpVTcWZ0E5ajTonTvd+pVWU6vUqLus8L4LMBrM7gEuaPUuNqb4pgmwbaxa/3Foq7eE0XxvP3C1iOxtzaXgKtLnz03cXXXcA8BF/eH4wXUM5aOgn85V4zP/qnlv6SpmLPX/FywOes/dBDIdJcKJ+frS5uuycnjm9+8JfDMk09ohJR92yDVTZtzzTpBvXgxNymLH2HXVsG113CFVvTrId/iwB9WfajaKbKnPf7eSouo2GrVt49og4eZA4VrQs3MGc51pU/zd6LxqTBSqevTK51aTIK2tchDp8+Ypst3r+wgnvrxShV7qnwa+2oFZFCqmLEG1Nr7dHy4tbC2v6CUgj07N2VW6i8KKpJkt70NEPtpfWLptPePoD8eMBr3LVPWJNLFOjncyrdLlLX9lXD0a9L68kd0gFM6zqe3OGmstt+SxplWg8tn+wlJYAdaFes5V6zWDrxViKul7KRUh7oqe5wSQFmu6pmm5tgUeQnjP4mC2Q8YbC3aKO/SdW9xlWG4LEHds2dyhM6lau8McE0t0fad+EOVxvspa18jdcR/sD5c+vhVzt8cGy0lzh00GVZ0S2mRONa6o6lj9O4Q7Q3BsljiSW4GDSFNTScm6kA161xw6kp9kngZ8aoUV636eNhhfyyn3tmps+nrki7rRoNcHXi+mR511V6TV0vTsa8Urype3cryLg94jRPWVzcRK0V1BOjIYRCWVTqimXkbA6zdiPP3h+JuLg9nfE3i1pmKj5sGgiIN3emsW8seDvoWqIfoGrSf2NfFW2Rhp5rD5u9nWveL35yGR1ofmsS0vE3xCgfFZN70wm4f53ewkrGOkDV3EKKb5ATjJK8fD7BORs/MDIPm3ai2EWY7lB59iWxApjmm+1LbSo7mXbQpPKPeYsj6fmvWv9SmKIr9NxxGMTMm9T83ZzL3l+oXJ8byAyJbV65wBOctKId92zquaYrKmVOQ7/aoxbmAT0B+Ob1fVv7Piybp53DNDkam1mkldCneXn1wxDYyLwhBHuJwbDXpHK3oN0EsVpvGuJN+nz/gz8qL56haOdw/oBxDZ54SWdLl0yya7Kb7oEMJL1uka9PyFXAqyUDaUbt5rmxlbRW6BZy/O987aOGrpU3ypiLLvos3ELcpySNWXMrAenqBYKxRmjMJtaOZgN7sIa2vwnkwXPL86GdRFP5wL0flg0zSU3QyLc0irWJM/X9nxwhptShewu7a2xyPiSt/YvUcKOSbleVvlhqx8AYSDirx4I2XdaphR9BhfTlTaHclSJllDFgH05hAbm47b1T37pUXna59QGnRZsfGzNsGStjdckVXYXMf1kzuCCV0rV9dKVdAv90uz/epsIVZTg8xk8dwH3LiFw36pwBNdbq9mC0xrxtTPc32fn50bjje0tlN/OH4I1ReBHnIZYWrG53oj+tKeteDdC1xT91RcN9TQR4vOqra3ZO7vSTPfC0pY6jcKZVa0nR3XNcHwQlTB8nKZQm4XlDW9HX0PW8fX6mVcrrhrs3dy5jHFeVDtnNPUn7WUnWaOnWQq5ah6uaBmXDb7WLWjyCrlWClkOJ+eWxjfvJUzNyN16WVNBQFrF4La/moVmixC2XV96Q4PRFiQQm8333ont1qBJPMrnhdMN3vBd7CSnE0qufeelHEqRxBGg95JCpVylfo8WtO4jQHwmU3ZZV49dGxVwd3RoNdD9Z1aCMJkMq/XKU55yAkS1UdyjyAXbcb4+gtLXxbkhjJo3FY38pW6zROrJrP/yaBXbshaStcz68U+NRZPzpICUfXg3HAcbXE2Aqm3qbEWmuCaprK/ljJuV0PMmmiYt2hg18is9PCSCJ6yNlXFJS2ldSDiuxio9+GnNAPtyH6zBajVun7FG83MnCcXHjSZLy5zPR1vY1+bmMhmzTYJNOn+jSKeXP95Xddyb6zoa7Z69maauZMiy8fVF20mwfc//Z8hMTZbIC0jXwqTb87QKorCrrpw8XPqWu90uJeOsCzC0aB31OJ87w3A14Cnt5r9trIGm+8Ll2y1Ng6g8sYtYw3Vq6iaJSd3oDabk0jrpV1ZhKKX9ofjzQzIfw0wboScGh7KMVc5IzPTU/O9IK8dDWbP2IjBtLLYbJYlxobm3RqjEEQbJMxac09RUNS6uMza2t2E+7FGHLk+jkXmZV5bTbmdLKc0KVbq5IMU8yFGAVO7DmxPTjFN0UtXXOkiNMdocZ3mnpy8MvOtJqM3RYiVoTCNQm72PrVrHbW89vq54dKWr+U9WjRizTWWmuA3QUxAWQ604+shNDYfNjPMFS9KTzGa2rpo/X61elVqgkelyerSJoCQ1lynuisrKFiL87NHi8gxPlSSVrRksiSIPa7MNzGfpVpcapwF7fO3ntzMv1DXXhIQdB/I2ar674BnCNqjM1GyqTGmKVA71SErxln/++n+wvg7W8ETi4Pes1C9oDGJi3nC02x5aW9MPuPx68jmFiDsD8ejxcHsVShXiU9Z9E2gi1mV1OMx5fG9bTToPWld1aiVM1ruJiPzWi2IGxpKFBfdCFTLv8juSkXJ2hIvJVotl3K2W+S/0GvMPu1HXh8EnoN8zILCx5f7pJwmE90motR7gj9Fe18pjL8+2TprD9TXbGcv5vqK2fpUZ0QyTbivT+vJMfbWEs2nQD55OOZvTzWgLmuFT9uXulq4bLP2IEf26jIZG1LIIhv0Z5SrvNhWPi+ml56qFsvWxBiZ66+kuInIsSh/KsIp1GUCyiDrVheHlDIvLUGqjcIghZO0zBCxboaGTJqfe7zSVQaC5gGpmuurdlxLCh1QTAYmh0S2ptn5aDDbq6xX1dp18yfZXK+1AMu6rJW2PCwiL+pvgetLkHep8EzgzJbYTApOIxi1M1NV0DNAXg28fa3jUNHjBZ8IInaOU6q7H9+ut59sFB+YtdVOvqhpb4VbrWAjEYzSaA2asgXtg4EvNp34uOBn8SI0f6ZGIWnOj+kR2fzbPHQ7yV105nHPyX7WtL3ss8tYTAmPtF5TtQLf37VWyFK+dEf5F1xpIXkYeGP/MLn5Z0oGbrcOK6P205ePJLDpK6sl8LsKftqswDZvt1GsEpHCTWOuI8Vxy6E/HN+twlOB7yB0ZrAs25GuGL8tmyQr3CauwGdRK9WYwVfsh9dVvNUUPLQXz5ZvTxeE6/rDrbFegbxGRE6SVoajz4ButQX0/HFlfzj+9laMtj8cHxS4DFi2jlT2LAhl200zd5ctDmZPXQfdbuqSapZppHupnEJgA9lXOj+zCW6uUC27/lH+fi9/yiKjnqzii/ZiAqUc70tpTbbn7yr4Kva3HevIrSW8h9AUHW71UHTRLlI0q/bH5HNLa8+wBbKLveeyrZPNbcwkjVG7epPZyHzfn0vhB0NabAGaqMDSndJyAblsidWknAlq1FZLCm0KmpZDWeXUc8PxCPSpwHXp3KiJs1YfX6w2o8iPrrzXFemTetxhesuVvzU0NFmR7b6Cxam1fT1/fu4DfnkrWGE06J2u8CvL8YGNGW+Z83MG4XcU3reVLNwfjm8C3qeGiQoaujFaXtM8t/tA3rrWMQg8oLocb3j5h+VPlVCwNkiOqalkbfPUAZepXM7LLrdgfcn1oW3RVZcXiaYFkarfxxsvgxprvZPHJjGm/Xkxry7Dz8v3/Mor0X9u5JeW2dnFvmGvr0XecSuzEYBbQd9xOCdvxmZD5ZirrhKparRLyX0JA5uJE2zAoC2rULbLkaJO1kpofOKNti9FakmTOdj63QRT3q8CCX8W5SM2C7EqPEfOcBMf5CylzFhOqepY3DQkSuf2T3llsneK9VFfW0Wb2NCyB1pR5du7O/Sn+sPx/ZvNCHW5gg+K6p58H6bsrEL5cOjnThCRA4K8Zm6LMh0LXClwrzprqJqxKr7Lj+Y6lPlezh2to42OlI1wcwqWKVgobiy7OPxnw+FCA1KvShLdJRW4dpGQu70OVt5zXRaSiWcqDCLZCCg5i1iy911MnUMf6G4CKRrzk3bV1crKVzqPeTxPFrIyNh7fN9d5SerwIxEx2Y1FBz8xdePFd+4TE51f3+7DoC/uD5cOawbwDMrBzMzNqI1VQ4wmbC0kwvkhMjYdpzstX61BS90ToS+RojesuGhrhnYWyVR/pKywq50d7ldCfzg+KKK/oKqvQfVgjuOyMU7+qcTeZ7O4ncUhpehiFrcaF7xpE6FFHZacwpKb/CbprU6hynFN5smtEV1+rIdU5GJFbtlsJhgNeqBcATzSNXw16dAq/n6zBUaz0qj6J/2F8Z8cDkbuD8f3KbyssU+qaUTt5k6ymBbDf/X7GdD3jOZ7x69tFCatPfGF+Kd1O4gqvu3k0XwvwiHWCWsVb2J5xQQ3q59nM2VRqkHLmle2NVeiUU7mobRA2TIK+JpTie4picdYvfA1QZ1118yTWreE+T5FBGu2Mol5gC1rLGZrleEDMTxj42cbuWYHILmGJ8rl/eHSYS8QPKPoZ0rTfNan/KLwpTD02NF875gQHZuDxUHvFFU9zjKUlLFQYl1dmWlXe+q2fvFmQnMMVsP0tdBbY5Pn/nCJuYWl30LkFwQ94IpJ2sDEtjTJyp5k60JTBiYZo4vit+lWJG+RahMyxBa8M8qdWcC2UF7ZxUC9D/OQiFwyNxy/Y244ZrOhcJqir3PCJ920UarS8eaJVlIw6IOIvPhw8vTccHydoJ+0T982lqJRc9W4u637oD7sWEXfMxr0Zqa8/FfTWhHz8CjtpBA1hQwrGnJSSKT1IVss2xlq7p00a9Ju/ruadFXLNONJUlNyIclCsOE7RdF0LWQrrlG9pK4VuOLirjBxR4WIZq1UY1JfUi7JTKUMDWj+LrsgOQOnqiuVivhzOSOB4SPTeeE/bYfJ20MhYHwQmiEkJl29+vJERU8Cbg/xsQkCCR6DcJQmxvGCqtVjzrhZVPmzVc/u3DO4jdu6byh68k2L/nD88dGg97CIvhPlJJuF6q7TNTbNLjuRMoq9I8VfxN+HtlZtu6cpttciRUB/V/0GOQR6SX84fjtbBIH3lON1uuNy92Tpo7xsbuGwuAbLebpMRM4FTQ9nOTMqFcp1PdNabCdcAFwAfHKK6/5dkZhQ086keDf806oGoo8HPhtSaV3znqa43WfQWLKa4pjrkDlHEuYWlu4dDWZNI+Sc2erc7CaTLjetlQOgd0my7HQlcpjfu+Qd9dmATgZr90O3eOtvq/lVx7WlyGQSJ9TSqfz3Yvomd55dXtZf2B5t/PaAfFFVz2/1nC6f7LR6uhBy00gRuZBQsDYLFybroe0dZzT7hvlUi+a1Iisyl3X/uvoPkp86bOPQbOFam62+PxzfMBr07kD4vKqe1Cov0LXgzWOQTeEt2wI5k3MttLU4XarK4utAkZVX09/R1ABzBV6q/+4X4cr+cGnLlKvRYPaVqnpm2Wmy1UDJ1rFzKdOKCJ8R4aPbgannhkvfWZzvXSVwuR2750l1mdZZ0Lt4qctHg94Xpoh/u8luMTl4OvO1TULPLYdARJ6xOJi9bG64dGA70HAnwizT2mUkuQJ3q8m8SbtXXZMF/Qij3k2onqOmC4OIKVZg5Z6pdK7oIYGn9ofju4IDDw9mBBZMOXnTW1F8BpYRTqYm/vmjQe+oIOPGYnEwewLwBF9dILeTEJum6toWKSIcAL1pxeVaVC1wTe2Fdq0za2ZeI/rD8Z3AU0TkGxhLU66u3dF3uhG+qdtAWXrB3pQJ0rTBkeL99uXxNEKpUSqNO1ZM+wUR7hSRp26l5Wo06J0MXCFF+rqrwVBYmTEWzjrB4AGFy/rDpUPbhb9FeIcid1jTfw52xcXhZZ7UzPfVJnIKVklb7Zqq94twn7PcCq16bU4Zz6vgkSARh7XueRfjuios48alpaFclVhA8gOAS8xplCtjYUppPcpeVV68W4m2HTADfCVvRJr60FVTaIvS+Dif+vNTgScGGTccZwH7XQ6FKQCnahxhImU40zf6w6WHV7+E2Z0Vig576f9y81kP+sPx91T5MeDTVqtz/7r4rPb3nffhipGap2CbkWJohbtebvEgHa7x+mHjt1H5sf5wfNsW88HlIPtNT4k8rDIjC8st7gbeMjdc2lbVyPvD8YOIvsS3d1LTD7CBdreAygr4S0eD2YnkT39h6SBwK61EwnbhWTHjSRmOcNF2ouHOhXS8vDySwg11hLZAnRzKnzsZ6Go+YfhXvaysltOzN6phemB67AF9AORG4GyXPVBPkOtqAqaZYtNGhbeOBr0b+8PxtnlC3skYDWaPVuXyxr/cuJpNn8tqGpwLS1IFcxG+sup6tdmH9m32/qag92xVkA0JNp1bGB8cDXo/I8K1qjwDdMa5p51broyzym4+W/Q5K4jefabO/dm0YShb8tS/SFHxTecCDir6WUHeDNzeX9j8YHaLxcHsBar6XFcAdiWXav1v8vBWHywAv10HhO+tTqEupdn5HNzip/139k347B4pGo+L0mpGbp+yq3iDbyp6g8D5rWBn211b1FXnd5MORyHy1tGg9+OTyB+F60Xk6e0OBlrkzpbud0FVX7g4P/u2uYXDn5m0E6F1yXDrkDXxvJmX8HGUustb5dTkuQE4pKozpfyza0+1HUIBnIzwdOBTwYVbj5n+cAngE3YpiElT93EeeNcOgOijUD0nSLlheBYij2jmosmAy08rmrKfkvCxZne4dtX1WjX6LfoZmzY74lNlKyuPbtiTZH84PtgfLj1TRF8hIgfLyu2uv6j9vKGJq7Kg7Sru6Wcm4J18v/6Z2R8jcK+gvwP6w3PDpZ/uD8e394dbq1yNBr0TBN6d4iyK+l4+GcHGLWlTmwuFQwov6Q/HDwKPBP1HVf2+iHwf9Puq+n2k/h++j+r3Uf2+Yv6GfCx8H6k/F/0+VC8Rvo+SztX8vvmNqn5f6+/StZHvK3xfhPNblahTHR5c703v9lVr/3isoq+dhK6icgPogSZLqqs9uq847XoRg3DJaNALCbUmSLsXcCPi8C6uzORFPbpdiv5w/JDCjRS147oyM61Zy0QSXLk46O0JHtx6NKnOnwEerlg6lwCQonu3dC8bQK5cHPSODnKuD6NB73iQ92R3UNpu8JWa6s/VlhEQQBYUndAdlM8tqT6UW6WmQztFBulGCY6l9ym8SkTuz7yUS9XZUhJqMoqSNc12hDfpxo2gVtc13t+TJJe33IPIt4HfVJGnIvzr/sLSS/rDpS1pJbMMrkQ5IVEkdYxX19qn+V+b0rFZM0HQ981VFdSp2+K8T8S7fjOtpKAVrtN9ThwQU/nTvEyBQjc+U0y2ZtKaT22CRVNE18bVGT4vZJCrXJi16ctHg96qFderzCK5ybVPqsdu+nqYNZD/ryPang88OiTVGmD7nUq7ZV1uWG94Zo0lYo5ECPLHVjZn2S9uzblCodnrcIqovjyouPXYA9Afju8Zzfe+gnB2sgqAMeaaTt02Wynj0YJcClvT8PbIFUJcrnX6unfP+aQDm+XWFIGtmnFzw9zCBJVra1dZDig1WYLaXtq2u/1GY244ft9o0LsFkc+r6gniuqOXDUO1rr7uKz6VWfW1B+gOUT6mvqNpowbcAXJnrTCO+sPxA9uFBUaD3hNU9bkpA5CihIZpLeKdZrZ7vIyBtxbEezPC2ap6clGpwFlxssNZCvoWtO6oYtFke+KkR3ktTS5ny1BdjtvsLso12orUwkZHOhrVD44GvZ9YramroteKyrlaWEdU/TXdd7mLOIJ8YDSYfVJ/uLRteGYnQGxmJtminBrVm2lt8U0oWajyEdArq5ZRPpKiLMrSaqxcuRQvXxzMfmFuuPSd3UKz7YBsNhS9GuTsZsZsin7emGwxyyx2awH42tH87H/pLyzdttuIuBFYnO89T0Vfaqtz2y0nFUfEPq2YvOfqs6snWqzi3Uym+m0KReoqvrhZcq4/HN8+Gsw+RUS+BBxns7XtPbtNX23IVDHaqlDkySLcNzccv3en8MBovncU8H4ROTrdrq+fkVabb+iauUWQQ8AldcuiTOOFpftG87MvA75o49eS09HG9NnaUEWKgeWDTP4iDaEu4Cq28qAbp6ZMzVzBXVJcoVOq1Mqb3NJIbGHV6mdngL4aWLH3mCjXIVwB0ksryPC9Zlucj3nLD52PBrkEeGNIrcmhrrmwr3EmKqkEUCpCaYvP7vYgd2BuYXzf4qB3s8B5pjFFq2WN499mLVYP4PsVfnc033taf2HzW3sFKthqyF8B7rG1YsS4EkpvuG/eWD1Fqsi1o0FUd58Wo0HviQIfsD0AU0sX4yOTVj+93BsSuAG4e5LrSeuZx7hj7EbmOjPIpsq52iX3A8BN2TXg2zZU/4spiietgquae2buAa4eDXp/WCsu2x4qXAGcoq1ZbqbJKN9iG3Y7xeAz/eH4I90TLzeLyA25T5n4bFSlyNqTjlNItqhCu+BtM2qt3I7amYUq7jxJybfuaHO90k2UlMvatW1cnxePBr3+iny2sPQA8AWpCW75vtXvzZUQETuWX10c9H4xJNcUcC7dwv0rXpEvM5fDgJVwNeXKFLcHOPt/+j59I6cj8WCwlUgKVn+4dD9wJV294Ux/t9yhu6NfodIHPjcazIaSNSEWB7PHq+q7FT3a9gZst4rwvQN9uwAOKVw1aSZn08cuvy/6XBWd1ZNLcpMbfPeH4/sVfgr0RtuuxPZfbHdrL1qbmEdeVfao6vkI148Gs/Pbmw96p6NVO5w817iWQFq8z/2/Uv/BQ8DFK9D3EOjLQO41zGCmvaubvbqeYYBvy5NoX/THTPG3RZ8x29anc37VH6dazLN/n/vYAao9Rd85wQK4XJUHm3Xk14W2+2NqsXZgBtWrRvO9M0KCTQahi7a06N81z2HBSrgR+BPb+q9rTYijp6YM3nqRv2406F25hlZTgTWgJPJHRGSM04hx8Z5NQcDyydU8aZwB8sdhyVodo0GvL8ifisipNoMmWabM07vtPJ4tN02tHv3M3HDpKxNf2F7LBJm2sxJ90PNWPEnODccPCfJMQf6jIIfEZhaC65jVCrcW23ElByio6nmo/NnioPeIbcoHRwm8Ver1mOefbEGB0r7ist3qgNZL+8Px91a6Vn+4dA/Ca0AP2UyuVjcas86zpRTTbkgNP2bLQ54DdS5DN39SzJupqp5ljLl+YUVy47Rvqt89azToPXdFGiws3SXwSVe41MUHlVmLzW04njsG4Y9Hg1CyJoGqlVuSskGTW1q1TXca121oWLVsBLhK0ENi4xDLdVA0sMc0Sq586/proFeEkrX5cASuLQiXA4dyBlA1kdYMmaWbLc4ophApZwJ/PJrvRcbNMhgNemcr+lcopyUaWxdhaTWgbGyZVtNBkLdNc22x5ycHzfsM6cYFpcu0tNk89IfjB/sL4zcjXAocauhRDctW1czal4rp8u7KVqTstBMFvjoa9J6/Ddnh5ar6BN/6qz3vakpN5BqxSQG+VdHfmpC+HwH5dNUZoFGsc6HPsqBwevpN35v1njI2Sda2JA9kudBbTfeiZv5ETLi81A1ktWxlnuVRFkNSOJJ5y2gwu3eVRXCFovemTNmU9YjJLMS5YrO2lawC+xX948VB71dDoq0icxo6Ngq6DTkQm7GsdUYrrgZtIK3dG0FutoV57QMxBT9n+aiuA7QqvwZcMZrv7Quqbh5aGuzccPyfUP2G67xtXITV3+pMt+Xf9bFnKvqni4PZnw8yeywOZq9U9A9F2Zc7l+eMwNIs3vV33oDlXf3h+CtTD0JNlqLpu5bPrbkMV6NIb72i9ZsgT1XV+8V6/4yNPNV+atL/1XjNimNQPV5VP7A46L10cTC7LeKyFudnH0nd8sXORz23LetSdq0YxQceRvXNU/XKUy5CecjOqWQ3QrZAtVw45ntH36LYa4tnE9vVv8uvpNzngLJ0j81vpb5vsS7M+oxqflN/fhLIW1fhrbsEeYt3TZqHf+uC7fjf9NXbL5VCd83iIDarZdmtS35lP1fitTTHxj0epRpaeE295g3fdqyD4r1ncCpLlvD51eIWA2tHp4lQRF6sNtC4qDmU3Rc5DoIs7ox7iWNF+f3RoPeHMYkwmp99xGgw+0WBXxPY5/09HT2ljGuEsuxJ9dGISWJOWsJOfdG/dF5To0g6ApgPg5zrD8c3isjTFO63YxDXJ8KO0bs/U8ecfOhRgl6D8sHR9ii+9xZVPcZMg7diunXZnrP6i9+ZW1i6cSq6LoxHIlzhCj6KCTK25afABdi7wGORjkBkcQZG8L0FU1kQ1w8SFwjtKlJ13rfkpEesay9lmr58cX72CauQ4b0I3yhOm86jvlNYGma7iIiC8lJBvzUa9M7e7XJuGanT+sTVwhJbfMXzVqAlE29H5IqWi97IwjK0IncoNLSvnqrPAP77aDD7ysX52XhA2GAs44PV2wX99WpGrPXCPob42IwUM6Eka0ItSWeA80G/uzjovXs0P3vibiPyaNCbHw16vwvyLZCzfCFFL2mczuB6kvg+c3U6/sX94dLdaxpUzu31Qq/ZvJyos/63wyJQbgWeJCK3ii0FTdEstqFTs1lr7uEntkx89Uzw88Dvjwa9w1aaezQ/ewEi51klOhXjMOvKFku1f9fr7z508qbHBd4hyG3J9Wf7NhoutMWvMulNumtN65ydSCoeqiYuLj+LGWtj4nkjY0zxU1eQNE21FO5fW2Q1xZ7sEZEPjlYogNwfjh8WlRdY14oYK7yYophpFOWSccVJOUlVPz8azP75aLCqcrerIPim7rnDi6Q2SCnm0PJcaFjLie+3K/r1ellmF7eKe2DKvVrVyBO7swiqHAu8W0S+OBrMxgPChvL9MhgNekcBf6Sq57aeFE0fr6wdZ4FE0Q3dZTbAIYF3IfIJ0K/3hxMUxtyBGM3P7lXhWYI8BzgP1Zlc6cXTqcm0andby8KmjIMSkY/2h+OfW8vYFudnvyUip3Zf13UByxtm9cmhuYWl/+uw0XTQ24/q5xROl0IFtcUKy+pQplsj2nrHAqI/sWZFdc33MnssyHdRjss9Fu2IjQXR9h7zXRYRkZ/rD8cfXQdNH4HyXYSZzA9lvancAxK7nju8xtLUbNPiszRb/j7Ke0qV4U1R3VTLp5hB20+w1aOS1H3gkv5w6TeXX6c9gF8CfX+jZErBJ/bBx85Rlm1W/qW6ZYcQuQ30D0A+BPpwf7i0a/u1jga9N6nqFb4Ag425K/lL7Dq4sD8cX7dbabeCHD9FkL8CZnLtuKI3KNoqomsL6IopIq25+OvdIlwNch1VIeboM7xGrPh8sDiYPUWUP0XkRLvBd/nE06KohasUBQNzBWdjxlcWgNsQviTIN4BRXXrg4NzC0n07RHAcR2MJVJ6g6DzwZESeiOpRpevEKZ1SVsu2diM1SpaJzaqO+54IP9Qfjg+sZcyVgsWptkJ8q3BsUwhS3XwdVgWrpvd+4BpFnyuOJrT4M/ULtmqYWlNXenIYCVzUHy7dsEX3gKIfA55ru1Wntjhp8Pl+SkWiHvsN/YWlZ65/PLNvUOWtea8TU44lc6TVxL3y13QSkMS3jQ/CKouqttgkbYXItkOyJWDcxZu4NE20Em13mTAPdvcj8qT+cPzN5ddD7yhBP6Yiz7J1JqQo9JufiSSlvzdaZmuOmtWULdO3KFyP6oKI3GJUi4fmqn6RRzQWB703AVe4grbL0KrDVP5iEflMS1KqV3S7Cu+CL9CceEuMdLXyz2QfS0selwVz2/GR+Xe25XwXb+DkLcV57P5ZHHef7VYwGsw+H+WDaoqG59+SxpAHbEvAF7wr7QK7Itymyi0Cf43IZ1X1QH0PD/V3Ad+uF6saYEeD3unAnwHrDAruamqy7JEPgX6z+SO3cbHtXaRoI9Kl9FF4j3yFaBH7WSczu4WSxa7a1g+PVZE9UtxTfoDIjNt5102dklYZ0WWn6E7gKf3heLTWmRgNet8CTi0Xett+1arofqg/HB9WBSsL7Nm3CPKrK9LL9pIwxVOXiZl9WFVfJHBdf2Fzraqj+dnTEfna8vzQsU60rKUgDwD/pj8cr/tBZHG+d5SIPqbtmG4XehW3JnLDbZEufm0HKWvnUdjHsHK7OQHk+tXlhlFZbKn3au5vUfiJuRXa6CzO9/aK8EfA5I3r3ZzImmQdVXHgUTd9jCWtSUQRZ9suhqOuw0P7GLvp53FbZZZlzp67erDMuaHOaL60Pxzf0iFz3oTqFd7/NxF9Ou5huXOU/0+zH9l51LYcmWrc5bpdgRc6z72cPOBuhR+dG47v8bKw9x+ErjCB5faR1eikq/AzgIyBuzyX4tpMKd0dQXI1/47K8y2fBB17Uje91JVAXs6bIe6B25zng/3h+EMbLetXDfLtD8e3jga9V1BZDdzxvleYOg3ZW7Aawii5Tqlay0jigVqcHI1yRlcx6UTiovFcKQhEzNM0uTK6SklcWz06j8+6QNO0if++VUXctRsx39h+HHRUKNcOtpeSYQVV/TsRnlq2QVkL8lCLypCmfYkUdN1O4RCCXKrKQdBfEdinRVM5G9NU8qeWx1WtXfYCH0Pk8YuD3qvmNsksXtWH0w8k/lHv6vJCt2k3U6i/1fdXbIRyBTC3MD4A3LKNptdhcb7324i+MqcgthuxlW1DCmY/A2HFNjpzC+OHR4Peq4DPAyd1WR7ynJmtS22jYm+lyOeo/rLGg9QaCE5UOLG0hvkWUNqSDw0faLF/tiwlNc3sQ6XzJJjYD9Vc8sLK0aoHqPjPuiysItfNdShXrU14GeusnVBbqVzVhp8061pNR6eibVjiE39OXEcKszM5q6TfsyyBpYO+XffiLKlky5Z9qE/XFGORxffobLqo1HN0UJCLS+WqvvvfQOUHFX2et0plGlL0LrX32eoQopjWRdoad31TPRF6jZBVrJJe7IHqy6pgi59i9ts6hqxsEKqFZd2qYJb2aMdDgnd9Zlma1qIiMFKRj2+G7Jqo0Fh/OP4dVH8Z5BCKaykhVpOQotWBZtehWGXGCiXNzWWlCUpWW2zQBHmLUUvEMnrO4ZciFUXtdU0QoBNAVo2xhVSl0N+aPoHqf1+2J05CykhhMeZrVb/0kzLYyt6raVX98mHgZf3h0l3rnfSyr6DUNYhsIHWu3q7gGu5uD/SHY+YWxm8WkWci8qChU958bF6GKUsh2toYcgA3vFzg+tr1uxm4DOXUsnei7+dXz0HZiC1XL78FeNd2U4Q2C4JeLsj9ZVFUmzxqFRIpZEzdFuiyKu5tRZ66E/SpCiNbqsI2KrZMZStm200xKe/qH9SSXKuVKyczkNwo23RpwHFFvXbL84JTNryQqS3/2uY1LXSRLJONy7q5Hr5CePnsKyIPS1U+YJk5FFpV/MzGb+VjaaHIHozcxcJ05PS5OrY9qxb/gy8/opmfVHOtx3T/WmTolQ9BtiSfOYcrhQDtGpJW/qvmOKjy/q2cVrmuPxx/sptvlw4gvEhEPu76m3WMWzrm2ZZgyk3b8Xu15TE1tRJLXtCC9UwJFi14zxcv9vJO1Y/VPlTl2H1xxYzz23p92XWpviCyUZQPIbxxbjh+aDNk18SVXPsLSx8SeMlyNUm6CpGKtH3OXenarniidD3V0FFYsPDV27RxW+ag/P2KWXNtodBVydzdk6u+Xj7RlNWnpeP3/rNWTFH1+d3Az80tLH1qQzYsn23Fcn3nyvz77ZjQ0x+Ob0R5JiILKT3ZzJMtLZKzzaxS2wSGuns9H+WLG61k1ZllL/fMZHgojbEspiqmUjkAF681/m4nor+wdC/Ky+iYzyw7Wq0Jij/1GFX5wOr8tHSnwJObjhY2bVBbpVJMhqdIu5SDKbVSJWSL8bCIO4f9rNIVtW1pNUVdvTwzmaUuI9UXSHWyt7h0sgKZZFtbAFTMORzt6ztW5c394XjZRBGlWJflIBrXkVAUdW2LpGyloUU7J6+tCDX7ArZZurR7akpqnCyde0vXNXyfUC/byz2stS928JX4orYjEV6/ihw8APwCwielmG8p9len1FoeLveeIrwljR07XulYB+o6IpT7ujM2+GRvLAOk5uvFerPZwk42liV8jB6Q105Rago+0x8ufWSzZNe0pfI/BDyZuim00q7UnHqmoWjZs6yoTl72PjOlA5PZ0Faxzn36bF82TaY+ijGZh5Z8DnMedz47/mI8bvwU43fH+lYezbjKiuzunGrOUbgW6+/uAn68Pxx/aqMm3T37Cp3jUxd71iyy7Zkz3V8Y3wj6Y8DteXMTx29qOSDxVF7llg9UFRU9TdG/GQ16Z23EGKu2FPIWRfeqm2PPc+XnJU8j8i7g1m05EZsJ4Qbg5rzW1BTmxcyvr0Cf15GA8KzF+dnnrcpPVbuhxwGfbm+CQhO3VJ3VXEtMFhcFjzXJFmJlifjxmmMby34y6quJq1JM5XPplCl5V/NGvtJSUVfisV40X3pCjCxwsjvdFCC3iCzvfm2EoTMASe4UkTbapBBaa5eRi6ayvjVfalEEO1WVEUM/G6hiCrCVD7Ruvky4hNs3wJyXpIiqcampCxVRR3sXHiIYfpJif0vWl4tXUl4N3x4U5GdB3qXoISs9bHMxNfR2+7A1Ftn7MlY2xzN4fkhrTexvC95rrismFtqYS5Sqg0M2fIiTg2L3XbM4bVKO2uLSTg54q7Mi9wAXbabYmkrB6g/H9Ifjm1T1yQILToNxtpCil2HzuZraPuprdiSXSF2V2/UiM72UUsVuaTke6yrA4s3EuKpT1bnF/w++Erjr++YqXUsaW/4b3yPPzHy6T+dyw2Vi2X5nzuJWmVBvEviJSRbXVHCSrrA+JtdIYRYu3m839IdL94I8GeTr2ZQt3tXc8FxDdzUuCjNnkud2H/BHi/Oz5663b5eqvho4QzS7gpwZXn3fMBHj3sjHfg+4tF/1JNtV6A/HD6vqRSJyf67PZ1zyyRWUK8yn9W7lhMjVo0Hv2AmudxdwIfDbwEEvD0xNIRM3Vcqpat7sXGeXpaSxmvGmezBWeCtfrNvSVkE32V/J6p7OLc7V1wo/sC/JMtidr5BXvsq/HAB+YbVU/lKeljUT/Vg0yXG1/G/lKuLpUewjXubjXO5uHpu4XxMKYbVSsbIfMz58qEkzj00NPrHdCWq1xru01bsCMfeNsS6pfBnhU1Osk0P94fgiUV4MPOhoYns+YvY+xPUkFS32IUcPcbzvDPFpHfg+pt7dWqxVyTUWW3KwXBeJVuJc6uL6nuJrCNr1ID4WD/SSep1vGta0acwtLN0B/FuQ31Y4VJpCtdOVVpSWNVqyL0crbROrcwu4VYt1t5QVqJ3p0f3G/6+tz8Vp2nSNk/w+9XNL9nUXkNZyAal1x4u3DtX/H1D4DUWftp5swWWFXYeLUi3NO76npOP23ITvFfgxRN7rhm5cNFryQsEzuaJ4OsE+EfkcsOYO9KNB72QRuTLRObleDE8Y2rtwmuYJVzgIvKS/SbECOwFzC0u3g37Izp225nKF9VoJ4uOAyybkpwP94fhVCi8A7nGxDOW6KDtaFLJJu9xHrVdxT0Y+ePlZyLlkBRIb7FW4N5t+ndp5Pi2rqZYywcgDNa0StFL4F1ajpbr5aXddoHCBUqyPUi7lorjS6UrXZVxw2um7oiwYmy2N0kUrWeb+MBVUxQsgzP21BXJrvmo8jPCitdRP6y8s/Z7CjyLyHS2vgd/rtJT7DQ1Vu921jkcLgVpkO1v6pb3O8LRqB32Rbn7v4MVGZCPSsb7oODZZ4W4V2JTAdos1P5X3h+OH5hbGrxL4BdAFZ7iz7jS8a7DlslHrvCtccWjbddN1zuLY5nifgeOPsu45H89lxmdMwxTuSXudRivOPc3E9/Sj6PFn3YbmVZtivw08fm5hfOlUveWmRDk+bzot3DDq3anbGfWT9EWovtfym42+tDyXaUGLLwt306+i+ruLVR2uiVG149EPKHp0WhvqecD97ZotGh5TbugPxzdv+wnYdMibEb1Ty84Sjn/bbqPK9ZDW6y9N09Jmbjj+aBX8rp+G0qWOcxk1fCVarnO/7jrDJPAywvJLWpVOhhSJ5ulYaYVfJCeRce24+9BCHjtX4HKN5/UOgd+ZaNbgJjXj9rKzg1aiLant3GYCvpmUX0tCe79R7yNya761FvFZcE7+tfYcHyrj3dXlvBau4lbYixvDJZMoryvw7XeAHxHl7QqHrMKkbs/p4Msyw6+ko/qGoY1rr3Qd2t/l/VhNJj7tOerYN0uZ6eRlqkZgx9leTylBQvRhgZf0N3F/bTCz3hNUVaTlh0HehfJAkQdlo9dccJ91tTXSKbtMsjsHl81gTI2FGTjPnZoU3lyPOZleTfiiDezT7Gw3mYI4kyNalAO1ZlOnWOdeUKqZkYoKDqUl6V6EX1f40f5wfNtmTnruF9ksdzVF+0zEVWHA2wH6VcOTBxG5SESeg/BwcrfVE50MDh1FDV0/RtvYuPr8+aCfG83P7p9iOOejPCFJ2+ZhtnTX4N0clp9FuVtELt4Z1N/0uX1IlDcLHLSZbtZdlOhZltfJQTN7Fb1mpTY67esu3T43XPpphZ+TylWbhLp12fmyRr6NmBbZXBRxI4WxLWdaNXLIhUmaAF4tY7RsCQM1ri1fYzI3lPAlCWw4phSxU4bGDwnyqv5w/MCEMudOgXuxcldNrKHSmY0m6o1yzRjUFuc1a0s6knLsvpH0OdM+pjSoqck+TNdNpSy8e9+O08aZ2cbk1sxaPOsZuVpmEvNlgfduxHrpL4xfL/A4EflUmk+XXKU+2cy53BSXm1HUHE77m6GZtnmllZ3ZVbi8lQmL2XuLyiwYtyYm67W8dsrmN+EWIFf0h+Nvb4W8mtmIk/SH4wf6w/FFIvKDwNtFeCgtbtcMtu3KExfpX5QqkI7sv9IEmLJCpOhlVZgupSiVVtTJKuG9k1pkidgsElu3hJZZUkQ6PW7NeUXkfkR+XeAH5oZLb5wbLj282ZNe5ntKzd0+ig5vUocd1dW+Pxwf7A/HnxTkZxU5QJFhZbOnHM8VAcKtbB/ldES+OxrMnr7aGEaD2RMVfSfOGyGmHldHhozdFjOzXLUZruKdiv7C0iepKqNXtCpcCOJcPlpkk6apfARw5bTXrqxZ/FsReYEi3wNT0LiVrpX5RsvM1sQPdnztbMAmeFdKVxW4lkFWrnoe73Cb2g3KXsvIrCzPxGRDO/n7n/rD8U2T023pXuDmJIFbWYkssyeYWB+1WYRCR0fjtswv3FDisnTFy3XEZxtaWuCzwl1ZH5cJ7JUCm61Xrff8cOsyYm2pDJGHQF6ykW3k6n6uFyLys4jc6fZSbFklXFagdPGt3dua6UB8mZQiy1aNEucyGxtpZ+ZexNvvSX1XKbIrS97FZ9IiHfwr3wB+c6tk1absmKPB7AmoXIToqxWpnhK11SUMXwlmBfNIVwpp8ZuJDCxSagxa/MieRTq+bz6WVdxlXaPx5xORO4DrgHf2h+P7t3KDSq1y1JZrKHvI5bITpobNYW+VszZ+7D1WVT8GzK/MKcuU/tDOebxf4MUIn+oPl5a77idU9dmTL8WO9SDcKsrj+gu7t49dJ23ne31F/4blHhKFldd2peUeEuEH66zBtfDVjCovFNFLVHnEsmNZbm5XlHH5AXDjDMfTXXuF398rIj84baHb0aB3nKp+Fzh25euw8hiXEa/oql9OcI/T0K78bIJ5nuhW5TX94fi3NlEezgCnKVyJ6tm4Li3r4bjVfrsqX23CNR0OAD85t7B041bJqU01SSwOejMC5wHPAc5FNS8sMUXIyubRrtyw7f8FOY5ATCVj27QyJ3P6kgla9FgzJnXRVCHY2m61MN2mp8k0r8aPiHizL1B+oHCvwGeAj/WH4y9wmJCaPddjVLxbTJNyZadi5ypYFS/OnijIl4BHuMrDmIBem9VSp8hLeu/T5E1FvktBfqPM7BvNz56p8GcCMxRFFq0LKY/FJCSnejEcAPmhtSoARzpGg9m3KvIGaaqVp6K/vg+b4C0cuaUMiOqtiPzEeuuKjQa9Ryv6M4JcADqPyp7l9gDfDCQn1HS5SBxvlIkY5LUpRUsjXw0dY0Kj42EVym4Y0tG+rn4sPoTIc9bafHlx0DtL0GtV5VjfJ7DgfVeDyrQ/cmZ1X9M75cSlOCBchmX3bwo/svG0YGLF7C8pKrY7LGMIaPp12vG7Zur5fr+p8KS5LXroHg16Jyi8DLhA4CTgaNdexLTAsU1mchxVPYPm4dzSNbGq9QMnc5MWSrE1U+Lmr16rfn00+zZ+vKmuoRbzLLy3Pxy/Yitl1Jb5fEaD3j7gNOCnVPUMEelTTahv3bTioHS5LlyeGZZjfspkH9/MR1Y4R9lqwgu7rvEIKAsKC4Legsjnga9vhwKRi/Oz30Lk1G46Sifd68+3TS/CNQr3EwTeBvx8eb9d/Se76OJ6oubfvIsqm+qhmtf3At9S9BHS8TuW7cPVwjv6w3HEXi0vU/YC3wX6fo2vsP4p1RdBqrn7jQ0c16OB04HHA48BTgT2MsGIWEH2bZa49o27hJV71el1/eHSheukz/HAe4DzQPdu1H2tn0LrnYs2JZfnyZaaDXBQq56Zh6Vt1WjQ6wPnAj+A8gxE94McX95jV4/BfI+Q6lKZOMRy3a20ga60frspPtG83UlVT/K+raTpYQuqGQ16exQeWZPpNEHmXTdyNcXIyn5Jy0xAW8v2KlQ2OombIfWhDGniUnB8saFq61h33TvqyQS4fTvWLBoNei9V9HhZUUvsbKN9qD8c/8dtd0PT3Pt87yiElysc06krG2Om44NCPEAZVMnNcwvjLzeCSuGF1g2em4wb60nHuQp177cmDSLerRgNemcrnFFuVZ6u2mpnVVh6HuwPl96xiWOcB/YBxyr6BKwVlGIJdi9FE82dA4JVsJKNzvPS5UQpj+16wi0/S3//1twG8eRo0JtHOU+F/ULZcdGMvXVPdvwF4UyFHC0Ob12j67wq7ftn0nkphMcK522SC4q+laP+cPx722htHUvVK/MYlLMmuv+181U931oXgjX822T7u/68fv7d3GZTY/5c9aa5haWvhMQMBAKBQCAQCAQCgUAgEAgEAoFAIBAIBAKBQCAQCAQCgUAgEAgEAoFAIBAIBAKBQCAQCAQCgUAgEAgEAoFAIBAIBAKBQCAQCAQCgUAgEAgEAoFAIBAIBAKBQCAQCAQCgUAgEAgEAoFAIBAIBAKBQCAQCAQCgUAgEAgEAoFAIBAIBAKBQCAQCAQCgUAgEAgEAoFAIBAIBAKBQCAQCAQCgUAgEAgEAoFAIBAIBAKBQCAQCAQCgUAgEAgEAoFAIBAIBAKBQCAQCAQCgUAgEAgEAoFAIBAIBAKBQCAQCAQCgUAgEAgEAoFAIBAIBAKBQCAQCAQCgUAgEAgEAoFAIBAIBAKBQCAQCAQCgUAgEAgEAoFAIBAIBAKBQCAQCAQCgUAgEAgEAoFAIBAIBAKBQCBwRECAvw8yBAKBQCAQ2KV4H/DmjT7pHuC4oG0gEAgEAoFdin2bcdKZoGsgEAgEAoHAxiIUrEAgEAgEAoENxh7g/w0yBAKBQCAQ2KX4WpAgEAgEAoFAIBAIBAKBQCAQCAQCgUAgEAgEAoFAIBAIBAKBQCAQCAQCgUAgEAgEAoFAIBAIBAKBQCAQCAQCgUAgEAgEAoFAIBAIBAKBQCAQCAQCgUAgEAgEAoFAIBAIBAKBQCAQCAQCgUAgEAgEAoFAIBAIBAKBQCAQCAQCgUAgEAgEAoFAIBAIBAKBQCAQCAQCgUAgEAgEAoFAIBAIBAKBQCAQCAQCgUAgEAgEAoFAIBAIBAKBQCAQCAQCgUAgEAgEAoFAIBAIBAKBQCAQCAQCgUAgEAgEAoFAIBAIBAKBQCAQCAQCgUAgEAgEAoFAIBAIBAKBQCAQCAQCgUAgEAgEAoFAIBAIBAKBQCAQCAQCgUAgEAgEAoFAIBAIBAKBQCAQCAQCgc2DBAkCuxiPAI4rPnsAuCNIMzUde8BPAscAZ69w7D3ALcDfAN8EbgceChIGAoEjDaFgBXYLTgCeAfwwcBaVIrAf2FscdwC4D7gb+DrwJeAzbKwSsJdKwZgUs9uQnvM1PZ8DPKqDjpPiXuCzwLU1nTcaXwNOmuC4u4Af3+Br7wH+54TH3gj8whTnPhf43VWOuRm4f8oxfwv4HpXie0+IjUAgEAh0YQb4eeCLwD8DusbXPwHXMNlGPQn2Tnn97YSTgPevk57Lvb4LXEHbqrge/I8Jr/0/NoFWe6a49/8y5bnP3wT629c/A/8A/AHwQmBfiJNAIBAIzADPpdqwN3rjeTfQX+f4dqKCtQd4A5u7qVtl5/n1PK4XoWBt3OtzVO7fPSFiAoFAYPdhH3A9m7vR/E/gWesY405TsE6icrVt9Yb+fio37noQCtbGv/4rK8fZBQKBQOAIw6OYfENd7+ufWLuStZMUrHO3kKZdr69RxcutFaFgbR7/X01YswKBQOCIx6OB/8XWbzLnr2GsO0XBOqW+Rz3Mr6+ydiUrFKzNt2adEOInEGhjJkgQOALwKKr4kOO3+Lp7gU8Apx+BND2RatPfu87zfAO4c53nOAN4T7D5tsRjqTJtj9/thAgEAoEjDccBf8/anr7/hcoFdT3w+frvtQZlT4OdYMH68zXS83rgecCxwNFUVpw99fvHAq8FFtd47peu4T7CgrU1r78MURQIBAJHDo6ienpei1K1XJDu86g2i2k3mJdPMe7trmC9dg33/0fAqROefwZ4NVWywDTX+EemL5URChb8BVXNsq7Xy6nqaX0C+P9Y+0NGk5QQCAQCgSMAz2a6DeAfgKdPeO5rmN6KNak7bTsrWCcyXdzVPwG/usZrncL0StbvM11gdShYlft8UpwOvI21WYX/aYr1FQgEAoFtiv1UT9zTKFePneL8M8B/ZroN5rwJz72dFax3Tjm2V67zeo9keiXrrCnOHwrWdApWg+OprFprKRZ7bIinQCAQ2Ln4D0wn+M9fwzVOonJLTXqNd0543u2qYJ0I/O8pxvUHbEya/pnA/5niutdMce5QsNamYDXj/xXg+1Py65tCPAUCgcDOxHFMZ736g3Vc6wNTXOevJzzndlWw3jTFmJbY2PT8aSxn/0zVC3EShIK1dgWrweum5Ne/poqPDAR2NaJMQ2An4jymq/D9tnVc69opjj2W9VceP1zYB7x4iuPfwsY2A74KODjhsUcBF8Qy2DK8A7hhiuNPAc4JsgV2O0LBCuxEXDjFsR8FvrmOa30beGDCY49n4xpCbzX6U4z9IeDTG3z9u4F3bRIPBNaHQ8ClwIGYn0BgcoSCFdhpOIEqZmdSXL3O643r15GOaSxCnwbu2oQxTGMtfDTrL4IamBzfYTql+ryYn8BuR/SRCuw0nMPkbVPuZH3WqwYXMvlmcSc7E0+b4tivbtIYvgk8SOWuXA0zNS98msBW4c1MrogfS5Uh+o0gW2C3IhSswE7D46c49utM59ZYDt8+wml6HFW7oUlwELh1k8bxMHALk8fvPIVQsLYS36nXwqQFZc8gFKzALka4CAM7DU+Y4tjvBrkmwh4mt9A9RKW4bhamyXjbR2Cr8ZUpjv2JIFdgNyMUrMBOwjFMt6l+Jkg2Ec6b4tjNjkd7eIpjnxFTt+WYxj0c+0tgVyMWQGAn4USgN+Gxh9gY9+BuwDShArdt8lhu3aRxBzYGoymODQU4sKsRClbgSMVdHPmxUxuFwTYayz3baCyBNiKmKhCYEKFgBXYSnhgk2BSctkPHfTTwmJi+QCCwHREKVmAnYX+QIGCwh8lLdgQCgcCWIhSsQCAQCAQCgQ1GKFiBQGAn41CQIBAIbEeEghUIBHYqHgBuDjIEAoHtiFCwAoFAIDApzgwSBAKTIRSswE7Cg0GCTcED22gsT4zp2NY4bopjvxzkCuxmhIIV2Em4MUiwKfjiFMc+cpPHsn+KY6PO2dbjh6Y49r4gV2A3IxSswJGK46gqvwc2Fidv8vn/3RTH3hnTseWYxkX4l0GuwG5GKFiBnYQxk1f6PgY4Nkg2EaZp3ryXzbVizU9x7F/E1G05zpji2IUgV2A3I3p5BXYS7qeKFzphwuNPB27fgOvuY/KHkQNM17B4O+DuKY49CngscMcmjONo4Jwpjr9lA699DJV78v7DNAd/uAP45JVM91B+ww5bB4HAhiIsWIGdhq9McexG9dj7b8D/nvB16Q6k6X1MpzA9bpPGMY376SEm64s3qRXleMKlvBounOLYr7PzHjQCgQ1FKFiBnYavTnHsM6gsLoGVcQC4bYrjn83kVsRp8KIpjr1uwuOmsWBudNudJ05x7HbPkH0i07kHryeKwAZ2OULBCuw0/AmTb0anAKeu83rH169J8f/tULpeO8WxxzCdK28S7KdS3DZjvJPirA0+3zQKyXbOkD0auILpQkqu28b3EwgEAoFl8HlAJ3z9/jqv9YQprqXAoyY4594pz7kV2A/87RRj+i7VxrtRuHqKa//DFNc+a4rzfnWDafpXE173f9Q8MQ3On+K+PrfO+3jDlPz6OeLhPRAIBHYk/j2TC/t/YX1WrOunuNb3mSwLbjsqWFApo9OM67UbdN1TgH9mc5Tmac79L1QB/BuBn5/ifj62hvOfz9YoWL9S02Uavjg7RFQgEAjsTBwP/CPTbTBricU6k+k2lj+b8LzbVcE6iUpJnGZsZ6zzmscD32I6hfnRU17jv01x/r9m/Za5pwP/tMk0PJ/NVbD2Am+Zkhc2wloWCAQCgcOMK5hO8F8+5fkfQ+WKmuYar5zw3NtVwQL44JRj+wemV3ga7AM+MeX11mLtmdbF9UXWrmQ9nemU1G8xvXsQNk/B2g+cx3RKb/P6x3XwQiBwxEGCBIEdimOB/wo8YsLjDwFvp1K0Hlrl2CdSuQanKVT6MPD/AHdNcOxeKgvHpHgjG5uR9XfAh5b5br6m6zQ95+4DXkVV9+ihCX/zCKpA9UdNcZ17qUpETFvBfT8wnHI+7wQuq+9pknID8/U8PZfplLOfBT6+hjk8n8lrZ30FeMkK359BZUl8MpU7fa0Zom8G/mOIpkAgENj5mCbOpXn9FfB8qtgci71UmXEfYPqYEwXeP8W4967h/Bv5+u+rjO8X13jev65pu1yl931UpTP+M9O5eJvXS9fBK89a4z0tAu+hijd7bPE6l8qN9qdrvJ/PsTbrFUxnwdqK1+fY2KSHQCAQCBxGzADXsLYN4Z+psuaa1/9i7ZvLElX80qTY7goWTJepuRJtr6fqSfe3wN+v45z/mfXVNJsBvsT2UUiGTNcWqMT52+he/pS1K4qBQCAQ2KbYD3yNw7vBPH/KMe8EBWsv1ca5XZSRjShsuo+qvMThvp9/oVKQ1oPzt8nchHIVCAQCRzCOoaphtNWby/+hKhkxLXaCgtWM83McfuWqt4G8chrT1fvaDJ551gbcx/kcfiVxPS7OQCAQCOwQ7Gdrlaz/QxWrtBbsFAULqriaa1hbXNp6X3/A5rTk2UeVKXg4lMWNqrN1/mHkn79nbQ8WgUAgENih2A9cydoCjqd5/S3TtXUpsZMUrAZnA3+zReP7B+DlbG4fyX3Af6Bq0L3Z9/PPVMVRN1JZPP8w8M0/UpXxOClETSAQCOxOnMnmWSg+xnS9CbuwExUsqJSSa9g8peTvqbLy1kvfadCnygDdLKX8WjbOamVx/hbyy7eo6s6dFKIlEAgEAnuo+tC9n+nasHS9/jeVYnX6Bo1tpypYDY6jKpnw3zZoPN8F3sZ0dao2GicBvwb8xQbcz1eBq6iUt83C+WyOheqL9et3qVzgPaZr8hwIBGpEodHAbsA+KivCmcAPUylex6zym9uABapK419g8gKak+KYw0iPgxt0PzNUpQbOAJ5Zvz9tgt/dDXydqrXQV4DbgQPbhFf2UMWdPaO+nx+mcj0/cZnjb6/5ZESlnN1c39+hLRrnduSLQCAA/P8hWOm/wGkzrAAAABJ0RVh0RVhJRjpPcmllbnRhdGlvbgAxhFjs7wAAAABJRU5ErkJggg==;" vertex="1" parent="ep7B5gcZ21LLbHEQqian-2311">
          <mxGeometry x="73.33333333333334" y="50" width="210.9009574468085" height="72.19148936170212" as="geometry" />
        </mxCell>
        <mxCell id="ep7B5gcZ21LLbHEQqian-2318" value="" style="group" vertex="1" connectable="0" parent="1">
          <mxGeometry x="290" y="560" width="314" height="230" as="geometry" />
        </mxCell>
        <mxCell id="2109" value="Internet" style="shape=mxgraph.cisco.storage.cloud;html=1;dashed=0;strokeColor=#23445D;fillColor=#ffffff;strokeWidth=2;fontFamily=Helvetica;fontSize=24;fontColor=#23445D;align=center;fontStyle=1" parent="ep7B5gcZ21LLbHEQqian-2318" vertex="1">
          <mxGeometry width="309" height="190" as="geometry" />
        </mxCell>
        <mxCell id="2138" value="" style="shape=mxgraph.cisco.routers.router;html=1;dashed=0;fillColor=#10739E;strokeColor=#ffffff;strokeWidth=2;verticalLabelPosition=bottom;verticalAlign=top;fontFamily=Helvetica;fontSize=36;fontColor=#FFB366" parent="ep7B5gcZ21LLbHEQqian-2318" vertex="1">
          <mxGeometry x="180" y="110" width="134" height="120" as="geometry" />
        </mxCell>
        <mxCell id="ep7B5gcZ21LLbHEQqian-2319" value="" style="group" vertex="1" connectable="0" parent="1">
          <mxGeometry x="1179.9966666666664" y="830" width="240.00333333333356" height="20" as="geometry" />
        </mxCell>
        <mxCell id="ep7B5gcZ21LLbHEQqian-2294" value="Ethernet&lt;br&gt;" style="text;html=1;strokeColor=none;fillColor=none;align=center;verticalAlign=middle;whiteSpace=wrap;rounded=0;fontFamily=Verdana;fontSize=39;" vertex="1" parent="ep7B5gcZ21LLbHEQqian-2319">
          <mxGeometry x="200.00333333333356" width="40" height="20" as="geometry" />
        </mxCell>
        <mxCell id="ep7B5gcZ21LLbHEQqian-2302" value="" style="endArrow=none;html=1;fontFamily=Verdana;fontSize=39;strokeWidth=7;fillColor=#fff2cc;strokeColor=#d6b656;" edge="1" parent="ep7B5gcZ21LLbHEQqian-2319">
          <mxGeometry width="50" height="50" relative="1" as="geometry">
            <mxPoint x="110.00333333333356" y="9" as="sourcePoint" />
            <mxPoint y="9" as="targetPoint" />
          </mxGeometry>
        </mxCell>
      </root>
    </mxGraphModel>
  </diagram>
</mxfile>
